<svg width="15" height="14" viewBox="0 0 15 14" fill="none" xmlns="http://www.w3.org/2000/svg">
<path d="M0.666687 6.33334H3.33335V13.6667H0.666687V6.33334ZM10.6667 1.16667C11.1 0.660003 11.7734 0.333336 12.4667 0.333336C13.7 0.333336 14.6667 1.3 14.6667 2.53334C14.6667 4.04667 12.7267 5.8 10.6667 7.66667C8.60669 5.79334 6.66669 4.04 6.66669 2.53334C6.66669 1.3 7.63335 0.333336 8.86669 0.333336C9.56002 0.333336 10.2334 0.660003 10.6667 1.16667ZM14.6667 10.3333H8.66669L7.27335 9.84667L7.49335 9.21334L8.66669 9.66667H11.3334V8.33334L5.98002 6.33334H4.66669V12.3467L9.33335 13.6667L14.6667 11.6667V10.3333Z" fill="#F6BE31"/>
</svg>
