<svg width="13" height="13" viewBox="0 0 13 13" fill="none" xmlns="http://www.w3.org/2000/svg">
<path d="M4.99998 2.60268e-08C5.1195 -3.33665e-05 5.23683 0.0320659 5.33969 0.0929372C5.44255 0.153808 5.52716 0.241213 5.58465 0.346L5.61865 0.419333L6.95198 3.75267C7.00568 3.88677 7.01437 4.03469 6.97674 4.17416C6.9391 4.31364 6.85718 4.43711 6.74331 4.526L6.67665 4.57133L5.56065 5.24067L5.60265 5.30933C6.13382 6.15266 6.84732 6.86616 7.69065 7.39733L7.75865 7.43867L8.42865 6.324C8.5029 6.20006 8.6154 6.10359 8.74923 6.04912C8.88305 5.99465 9.03095 5.98513 9.17065 6.022L9.24731 6.048L12.5806 7.38133C12.6916 7.42561 12.7887 7.49891 12.8616 7.59356C12.9346 7.68821 12.9808 7.80072 12.9953 7.91933L13 8V10.6667C13 11.7713 12.1046 12.6667 10.96 12.6653C5.24065 12.318 0.681313 7.75867 0.333313 2C0.333285 1.48986 0.528196 0.99899 0.878169 0.627826C1.22814 0.256662 1.70672 0.0332617 2.21598 0.00333344L2.33331 2.60268e-08H4.99998Z" fill="#F6BE31"/>
</svg>