<svg width="194" height="224" viewBox="0 0 194 224" fill="none" xmlns="http://www.w3.org/2000/svg">
<mask id="mask0_452_2053" style="mask-type:luminance" maskUnits="userSpaceOnUse" x="0" y="0" width="194" height="224">
<path d="M193.949 127.3C193.949 180.69 150.669 223.97 97.2788 223.97C43.8888 223.97 0.608765 180.69 0.608765 127.3C0.608765 73.91 43.8888 0.630005 97.2788 0.630005C150.669 0.630005 193.949 73.91 193.949 127.3Z" fill="white"/>
</mask>
<g mask="url(#mask0_452_2053)">
<path d="M97.2788 223.97C150.668 223.97 193.949 180.689 193.949 127.3C193.949 73.9107 150.668 30.63 97.2788 30.63C43.8894 30.63 0.608765 73.9107 0.608765 127.3C0.608765 180.689 43.8894 223.97 97.2788 223.97Z" fill="#E5EBFA"/>
<path d="M45.8588 85.28C45.8588 85.28 62.8188 75.84 87.7188 69.05C112.619 62.26 137.509 59.93 137.509 59.93C137.509 59.93 110.969 79.75 93.0688 83.45C75.1688 87.15 45.8588 85.27 45.8588 85.27V85.28Z" fill="#8674FC"/>
<path d="M31.1488 70.62C32.9492 70.62 34.4088 69.1605 34.4088 67.36C34.4088 65.5596 32.9492 64.1 31.1488 64.1C29.3483 64.1 27.8888 65.5596 27.8888 67.36C27.8888 69.1605 29.3483 70.62 31.1488 70.62Z" stroke="#2C2D40" stroke-width="0.53" stroke-miterlimit="10"/>
<path d="M133.139 36.36C133.139 38.16 134.599 39.62 136.399 39.62C138.199 39.62 139.659 38.16 139.659 36.36C139.659 34.56 138.199 33.1 136.399 33.1C134.599 33.1 133.139 34.56 133.139 36.36Z" stroke="#2C2D40" stroke-width="0.53" stroke-miterlimit="10"/>
<path d="M32.8988 52.28C34.6992 52.28 36.1588 50.8205 36.1588 49.02C36.1588 47.2196 34.6992 45.76 32.8988 45.76C31.0983 45.76 29.6388 47.2196 29.6388 49.02C29.6388 50.8205 31.0983 52.28 32.8988 52.28Z" stroke="#2C2D40" stroke-width="0.53" stroke-miterlimit="10"/>
<path d="M42.8488 75.8C42.8488 76.7 43.5788 77.43 44.4788 77.43C45.3788 77.43 46.1088 76.7 46.1088 75.8C46.1088 74.9 45.3788 74.17 44.4788 74.17C43.5788 74.17 42.8488 74.9 42.8488 75.8Z" fill="#2C2D40"/>
<path d="M126.469 24.01C126.469 24.91 127.199 25.64 128.099 25.64C128.999 25.64 129.729 24.91 129.729 24.01C129.729 23.11 128.999 22.38 128.099 22.38C127.199 22.38 126.469 23.11 126.469 24.01Z" fill="#2C2D40"/>
<path d="M133.459 52.52C133.459 53.42 134.189 54.15 135.089 54.15C135.989 54.15 136.719 53.42 136.719 52.52C136.719 51.62 135.989 50.89 135.089 50.89C134.189 50.89 133.459 51.62 133.459 52.52Z" fill="#2C2D40"/>
<path d="M137.509 59.93C137.509 59.93 144.599 62.14 150.769 61.88C156.939 61.62 164.929 57.25 164.929 57.25C164.929 57.25 162.719 71.16 157.969 75.51C163.209 74.79 168.309 72.13 170.779 67.45C171.589 70.38 172.399 73.36 172.269 76.39C172.059 81.28 169.329 85.86 165.519 88.93C161.709 92 156.899 93.65 152.049 94.29" fill="#2C2D40"/>
<path d="M74.6288 145.35L115.889 77.88L142.359 69.32C142.359 69.32 149.369 82.55 151.699 90.08C154.039 97.61 155.329 106.17 155.329 106.17L165.109 123.74C166.509 126.25 165.369 129.42 162.699 130.48L158.209 132.25C158.209 132.25 157.109 156.54 156.349 160.25C155.469 164.54 153.659 169.13 149.709 171.04C147.829 171.95 145.689 172.12 143.599 172.19C136.529 172.43 129.429 171.67 122.569 169.93L100.129 209.87L55.4188 178.83L74.6188 145.36L74.6288 145.35Z" fill="#E47573"/>
<path d="M45.8588 85.28C37.3788 100.71 45.9988 117.11 48.4488 123.37C50.8988 129.63 54.5088 135.36 58.2888 140.93C60.0188 143.47 61.7988 146.02 62.8988 148.89C63.9988 151.76 64.3688 155.04 63.2088 157.89C64.6888 157.99 66.1988 157.27 67.0388 156.05C66.0088 157.4 65.0688 159.54 66.4188 160.56C67.3188 161.23 68.5788 160.83 69.6188 160.4C72.3788 159.25 75.1888 158.07 77.5188 156.2C80.5788 153.75 82.6388 150.27 84.3988 146.76C88.4488 138.71 91.3188 130.08 92.9088 121.22C96.8888 120.75 81.0988 134.52 100.799 124.47C120.499 114.42 117.089 102.17 116.499 97.04C119.409 96.91 145.919 76.67 147.449 79.04C147.549 79.19 147.499 79.09 147.599 79.25C149.889 75.78 149.419 70.98 147.219 67.45C145.019 63.92 141.359 61.53 137.519 59.93C137.519 59.93 122.279 71.22 92.5188 78.04C62.7588 84.85 45.8688 85.28 45.8688 85.28H45.8588Z" fill="#2C2D40"/>
<path d="M82.0588 114.71C82.4188 120.66 85.4288 126.4 90.1288 130.06C91.5988 131.21 93.2688 132.17 95.1188 132.46C99.2788 133.1 103.339 129.99 104.939 126.1C106.539 122.21 106.159 117.79 105.229 113.69C104.019 108.39 101.319 102.71 96.1488 101.04C87.8088 98.35 81.6288 107.34 82.0688 114.71H82.0588Z" fill="#E47573"/>
<g style="mix-blend-mode:multiply">
<path d="M100.449 127.76C98.6688 127.05 97.0888 125.84 95.9588 124.29C95.7288 123.98 95.5088 123.64 95.4788 123.25C95.4188 122.52 96.0388 121.92 96.5988 121.45C97.7388 120.49 98.8788 119.53 100.009 118.57C100.239 118.38 100.469 118.17 100.579 117.9C100.689 117.59 100.629 117.25 100.559 116.93C99.6988 112.85 98.6388 108.45 95.3988 105.82C94.5288 105.11 93.4888 104.55 92.3688 104.44C90.7088 104.27 89.0688 105.11 87.8988 106.3C86.7288 107.49 85.9488 109 85.2188 110.5C85.2188 110.5 83.6388 118.94 89.1288 124.56C94.6188 130.18 100.449 127.75 100.449 127.75V127.76Z" fill="#E47573"/>
</g>
<path d="M85.2288 110.51C85.7988 108.88 86.4888 107.25 87.7088 105.87C88.3288 105.19 89.0788 104.62 89.9488 104.22C90.8088 103.82 91.8288 103.64 92.8288 103.78C93.8288 103.92 94.7388 104.34 95.5188 104.88C96.2888 105.43 96.9888 106.06 97.5788 106.78C98.7688 108.22 99.5588 109.9 100.149 111.59C100.719 113.29 101.089 115.01 101.429 116.71C101.469 116.92 101.529 117.18 101.529 117.53C101.539 117.86 101.399 118.34 101.179 118.63C100.709 119.2 100.399 119.33 100.059 119.64C99.3888 120.18 98.7088 120.71 98.0288 121.24C97.3688 121.78 96.5788 122.29 96.2388 122.77C96.0688 123.02 96.0188 123.21 96.1088 123.5C96.1988 123.79 96.4588 124.15 96.6988 124.48C97.6488 125.83 98.9588 126.95 100.479 127.78C98.7988 127.33 97.2388 126.37 95.9888 125.06C95.6888 124.72 95.3788 124.42 95.1288 123.91C94.8488 123.41 94.8988 122.64 95.1888 122.16C95.4488 121.66 95.8188 121.31 96.1488 121L97.0988 120.12C97.7288 119.53 98.3688 118.95 99.0188 118.39C99.3188 118.12 99.7488 117.77 99.7988 117.65C99.8288 117.59 99.7988 117.64 99.8088 117.53C99.8088 117.44 99.7688 117.28 99.7188 117.07C99.3388 115.4 98.9588 113.75 98.4088 112.19C97.8988 110.62 97.1988 109.13 96.2288 107.88C95.2888 106.63 93.9988 105.55 92.5988 105.21C91.1988 104.88 89.5888 105.48 88.3688 106.53C87.1088 107.58 86.1888 109.06 85.2588 110.52L85.2288 110.51Z" fill="#2C2D40"/>
<g style="mix-blend-mode:overlay">
<path d="M70.2988 92C69.9688 93.95 69.4188 95.87 68.7488 97.75C68.0188 99.62 67.2388 101.42 66.1588 103.17C65.5788 104.01 64.8688 104.9 63.6888 105.23C63.3988 105.3 63.0788 105.33 62.7388 105.26C62.3988 105.19 62.0788 104.99 61.8588 104.72C61.4288 104.16 61.3888 103.56 61.3288 103.07C61.1088 101.07 61.0788 99.04 61.3288 97.04L62.3388 97.24C61.6288 99.69 60.1588 101.89 58.1888 103.48C57.7088 103.83 57.1488 104.39 56.2288 104.31C55.7288 104.27 55.3188 103.77 55.2788 103.37C55.2088 102.97 55.2288 102.69 55.2188 102.37C55.2288 101.11 55.4388 99.86 55.8188 98.67L56.3488 98.93C55.6388 99.89 54.8688 100.83 53.9388 101.61C53.0288 102.39 51.8888 103 50.6888 103.02C51.8788 102.85 52.8988 102.18 53.7188 101.36C54.5488 100.53 55.2088 99.56 55.8688 98.59C55.9588 98.46 56.1488 98.42 56.2788 98.51C56.3888 98.58 56.4288 98.71 56.3988 98.83C56.0888 99.99 55.9588 101.18 56.0088 102.36C56.0288 102.65 56.0388 102.98 56.0888 103.18C56.1488 103.39 56.2188 103.42 56.3488 103.44C56.4888 103.45 56.7388 103.38 56.9488 103.26C57.1588 103.15 57.3788 102.95 57.6088 102.77C59.4088 101.26 60.7288 99.2 61.3388 96.95C61.4188 96.67 61.6988 96.51 61.9788 96.59C62.2288 96.66 62.3888 96.9 62.3588 97.15C62.1388 99.08 62.0888 101.03 62.2788 102.97C62.3188 103.45 62.3888 103.89 62.5788 104.13C62.7588 104.36 63.0588 104.43 63.4488 104.35C64.2188 104.17 64.8988 103.44 65.4588 102.71C66.5488 101.15 67.4488 99.35 68.2388 97.57C69.0588 95.78 69.7088 93.92 70.2788 92.02L70.2988 92Z" fill="#BFCDF2"/>
<path d="M62.3388 116.01C63.0188 117.18 63.5888 118.41 64.0588 119.68C64.5288 120.96 64.9088 122.25 65.1688 123.62C65.2788 124.31 65.3588 125.13 64.9088 125.92C64.7088 126.29 64.2288 126.7 63.6588 126.69C63.1088 126.67 62.7488 126.42 62.4488 126.21C61.2988 125.36 60.3488 124.23 59.7788 122.93L60.6388 122.53C60.9088 123.18 61.1388 123.88 61.2088 124.62C61.2788 125.35 61.1888 126.14 60.8388 126.81C60.5088 127.48 59.9088 128.06 59.1788 128.24C58.4788 128.43 57.6588 128.28 57.1888 127.76C57.7588 128.15 58.4888 128.15 59.0588 127.9C59.6388 127.65 60.0388 127.13 60.2488 126.56C60.4588 125.98 60.4888 125.35 60.3788 124.74C60.2688 124.13 60.0388 123.52 59.7588 122.93C59.6488 122.69 59.7488 122.41 59.9888 122.3C60.2188 122.19 60.4988 122.28 60.6188 122.51V122.54C61.2188 123.66 62.0388 124.65 63.0688 125.38C63.3088 125.56 63.5488 125.68 63.6788 125.68C63.7988 125.68 63.9188 125.62 64.0488 125.42C64.2888 125.03 64.3288 124.41 64.2388 123.79C64.0488 122.51 63.7788 121.19 63.4588 119.9C63.1388 118.61 62.7588 117.32 62.3388 116.04V116.01Z" fill="#BFCDF2"/>
<path d="M79.4288 136.46C79.5588 137.69 79.4888 138.96 79.2188 140.19C78.9388 141.43 78.5388 142.61 77.8488 143.75C77.4988 144.31 76.9388 144.9 76.1588 145.09C75.7788 145.18 75.3688 145.2 74.9588 145.06C74.5488 144.94 74.1788 144.62 73.9788 144.28C73.5888 143.6 73.4688 143.02 73.3188 142.36C73.1888 141.72 73.1588 141.06 73.1988 140.41V140.39C73.2188 140.13 73.4388 139.93 73.6988 139.95C73.9488 139.96 74.1388 140.17 74.1388 140.42C74.1388 141.01 74.1388 141.64 73.9988 142.28C73.8688 142.91 73.5788 143.57 73.0688 144.01C72.5888 144.47 71.8588 144.73 71.2088 144.54C70.5588 144.36 70.1188 143.88 69.7988 143.39C70.2288 143.79 70.7388 144.15 71.2788 144.2C71.8088 144.25 72.2988 143.97 72.6288 143.58C73.3188 142.77 73.2688 141.61 73.2088 140.45H74.1488C74.1488 141.03 74.2188 141.61 74.3288 142.17C74.4488 142.71 74.6388 143.34 74.8688 143.72C75.0788 144.08 75.4488 144.19 75.9188 144.1C76.3588 144 76.7488 143.67 77.0688 143.22C77.6988 142.28 78.2188 141.15 78.6088 140.03C78.9988 138.89 79.2788 137.7 79.4288 136.47V136.46Z" fill="#BFCDF2"/>
<path d="M108.869 81.85C108.309 83.79 107.429 85.65 106.289 87.34C105.139 89.03 103.739 90.55 102.149 91.86C101.349 92.51 100.499 93.1 99.6088 93.61C99.1588 93.88 98.6488 94.13 98.0788 94.25C97.5288 94.38 96.7488 94.34 96.2188 93.82C95.6788 93.3 95.6088 92.62 95.5588 92.11C95.5188 91.58 95.5088 91.05 95.5388 90.53C95.5888 89.48 95.8088 88.43 96.1588 87.43C96.2488 87.15 96.5488 87.01 96.8188 87.11C97.0688 87.2 97.2088 87.46 97.1488 87.72C96.8388 89.03 96.2388 90.25 95.4088 91.29C94.5788 92.33 93.5388 93.19 92.3688 93.82C91.1788 94.4 89.9188 94.84 88.5188 94.74C88.1688 94.7 87.8188 94.62 87.4888 94.45C87.3188 94.36 87.1788 94.27 87.0288 94.13C86.8488 93.97 86.7688 93.76 86.7188 93.56C86.6088 92.78 86.8588 92.16 87.1488 91.56L87.4888 91.87C86.7188 92.26 85.9388 92.62 85.1288 92.92C84.3288 93.22 83.4888 93.49 82.6388 93.51C83.4888 93.38 84.2688 93.03 85.0288 92.68C85.7888 92.32 86.5388 91.9 87.2488 91.46C87.3588 91.39 87.5088 91.42 87.5788 91.54C87.6188 91.6 87.6288 91.68 87.5988 91.75V91.78C87.3888 92.32 87.1988 92.97 87.3088 93.44C87.3488 93.54 87.3888 93.64 87.4588 93.68C87.5388 93.75 87.6688 93.83 87.7888 93.88C88.0288 93.99 88.2988 94.04 88.5788 94.06C89.7188 94.09 90.9188 93.62 91.9488 93.05C92.9888 92.46 93.9088 91.65 94.6288 90.7C95.3488 89.75 95.8788 88.66 96.1388 87.5L97.1288 87.79C96.8188 88.7 96.6388 89.65 96.5688 90.6C96.5388 91.08 96.5388 91.56 96.5688 92.04C96.5988 92.51 96.6988 92.92 96.9088 93.11C97.3088 93.54 98.3488 93.28 99.1288 92.8C99.9988 92.34 100.809 91.78 101.609 91.2C103.199 90.03 104.629 88.63 105.829 87.04C107.069 85.48 108.059 83.72 108.849 81.86L108.869 81.85Z" fill="#BFCDF2"/>
<path d="M132.469 67.16C132.939 68.08 133.109 69.16 132.989 70.24C132.849 71.31 132.309 72.37 131.459 73.11C130.629 73.85 129.429 74.3 128.259 74.13C127.119 73.97 125.979 73.32 125.409 72.22L126.379 72.1C126.139 73.07 125.629 73.94 124.959 74.63C124.299 75.33 123.499 75.87 122.639 76.24C121.789 76.62 120.879 76.84 119.989 76.97C119.089 77.08 118.189 77.14 117.289 77.12C118.169 76.92 119.039 76.76 119.879 76.5C120.719 76.25 121.539 75.94 122.289 75.53C123.759 74.71 125.009 73.41 125.359 71.86C125.419 71.58 125.699 71.41 125.979 71.47C126.129 71.5 126.249 71.6 126.319 71.72C126.719 72.46 127.519 73 128.389 73.12C129.249 73.28 130.169 73 130.899 72.44C131.639 71.88 132.189 71.06 132.439 70.13C132.719 69.19 132.679 68.16 132.449 67.16H132.469Z" fill="#BFCDF2"/>
</g>
<path d="M122.829 170.07C114.309 165.64 106.779 159.32 100.939 151.7C104.969 161.27 111.099 170.15 118.609 177.33" fill="#2C2D40"/>
<path d="M12.1888 230.78C12.1888 230.78 46.8888 177.25 58.4588 173.15C70.0288 169.05 93.8888 187.13 109.549 199.9C125.209 212.67 143.529 234.39 143.529 234.39L12.1888 230.78Z" fill="#8674FC"/>
<g style="mix-blend-mode:multiply" opacity="0.32">
<path d="M124.819 126.39C125.179 130.15 130.279 132.74 136.209 132.17C142.139 131.6 146.649 128.1 146.289 124.34C145.929 120.58 140.829 117.99 134.899 118.56C128.969 119.13 124.459 122.63 124.819 126.39Z" fill="#FF7673"/>
</g>
<path d="M159.319 129.25C157.359 130.12 155.469 130.92 153.629 131.87L153.079 132.16L152.889 131.56C152.209 129.35 152.469 126.82 153.729 124.95C153.279 127.13 153.289 129.26 153.889 131.26L153.149 130.94C155.069 129.99 157.169 129.34 159.309 129.26L159.319 129.25Z" fill="#2C2D40"/>
<path d="M151.029 108.07C151.029 110.23 149.759 111.99 148.199 111.99C146.639 111.99 145.369 110.24 145.369 108.07C145.369 105.9 146.639 104.15 148.199 104.15C149.759 104.15 151.029 105.9 151.029 108.07Z" fill="#2C2D40"/>
<path d="M157.419 147.67C155.249 147.94 153.019 148.38 150.819 148.83C148.619 149.3 146.409 149.79 144.249 150.45C146.289 149.48 148.419 148.67 150.539 147.87C152.679 147.09 154.799 146.33 157.039 145.7L157.419 147.66V147.67Z" fill="#2C2D40"/>
<path d="M153.619 97.08C150.999 99.75 147.379 101.27 143.689 101.91C140.009 102.55 136.229 102.38 132.499 102.05C140.159 101.23 147.359 96.55 151.879 90.31C152.719 92.59 153.259 94.68 153.609 97.08H153.619Z" fill="#2C2D40"/>
<path d="M90.9488 19.99C81.0388 19.99 71.1688 23.43 63.3888 29.57C61.2588 31.25 59.2588 33.16 57.8588 35.48C53.9288 42.01 55.7388 51.12 61.2688 56.36C66.7988 61.61 75.3088 63.08 82.6288 60.96C89.9488 58.84 96.0688 53.49 100.129 47.03C102.159 43.8 103.749 40.14 103.669 36.33C103.519 28.78 96.2888 22.51 88.7388 22.18C81.1888 21.85 74.0088 26.58 70.0388 33C68.1288 36.09 66.8388 39.66 66.9888 43.28C67.1388 46.91 68.8888 50.57 71.9888 52.46C75.3188 54.5 79.5888 54.24 83.3688 53.24C90.2488 51.42 96.5088 47.3 100.919 41.71C103.699 38.18 105.809 33.53 104.439 29.24C102.769 24.03 96.2988 21.52 90.9688 22.8C85.6488 24.08 81.4488 28.2 78.3188 32.69C75.0188 37.42 72.5188 43.18 73.5788 48.85C74.9288 56.11 82.1588 61.36 89.5288 61.87C96.8988 62.38 104.109 58.87 109.529 53.85C112.049 51.52 114.299 48.79 115.449 45.56C116.599 42.33 116.529 38.54 114.669 35.66C113.079 33.21 110.379 31.66 107.579 30.86C99.5088 28.53 90.0788 32.33 85.8788 39.61C81.6788 46.89 83.0988 56.95 89.1588 62.78C95.2188 68.61 105.329 69.64 112.439 65.16C116.189 62.8 119.049 59.12 120.669 54.99C122.949 49.2 122.639 42.09 118.649 37.31C114.879 32.78 108.419 31.08 102.599 32.04C96.7788 33 91.5688 36.26 87.1988 40.21C80.0688 46.66 74.6088 55.77 75.1588 65.38C75.3388 68.56 76.4588 72.07 79.3188 73.48C81.4088 74.51 83.9388 74.14 86.0688 73.2C92.7688 70.24 96.1388 61.79 94.1088 54.76C92.0788 47.73 85.3688 42.55 78.1288 41.47C70.9988 40.41 63.2788 43.21 58.9588 48.98C54.6488 54.75 54.2588 63.35 58.5288 69.16C62.7888 74.97 71.5788 77.11 77.7788 73.43C79.7788 72.24 81.4488 70.57 82.8788 68.74C87.6588 62.61 89.5888 53.31 84.7788 47.2C82.8388 44.73 80.0488 43.08 77.2188 41.71C72.4588 39.4 66.5388 37.79 62.0788 40.65C57.2288 43.77 56.6088 51.04 59.2688 56.15C60.7188 58.95 63.1188 61.42 66.1788 62.19C69.1588 62.94 72.3788 61.96 74.8488 60.14C77.3188 58.32 79.1288 55.74 80.6088 53.05C85.6688 43.9 87.4588 33.17 92.8988 24.23C93.8788 22.62 95.0188 21.03 96.6288 20.02C100.419 17.64 105.409 19.23 109.369 21.31C115.839 24.72 122.049 29.91 123.609 37.06C124.699 42.02 123.329 47.31 120.629 51.62C117.929 55.92 113.999 59.33 109.769 62.15C103.499 66.33 96.1888 69.4 88.6488 69.14C81.1188 68.88 73.4288 64.74 70.4788 57.8C68.9188 54.14 68.7588 50.01 69.2388 46.06C70.3188 37.05 81.8388 21.77 81.6688 23.14C81.4988 24.51 66.9788 31.31 61.3688 36.97C57.1488 41.23 52.7688 46.66 53.9588 52.54C54.6788 56.07 57.3088 58.89 60.1188 61.13C71.3188 70.03 87.3888 72.36 100.649 66.99C106.049 64.81 111.139 61.25 113.839 56.09C117.059 49.92 116.329 42.11 112.749 36.14C109.169 30.18 103.029 26 96.3788 23.93C89.7288 21.86 82.5988 21.77 75.7088 22.69C81.7388 20.92 87.8288 19.13 94.1088 18.8C100.379 18.47 106.949 19.71 111.969 23.49C118.319 28.27 121.369 36.7 120.599 44.6C119.829 52.51 115.579 59.82 109.819 65.29C107.059 67.91 103.909 70.18 100.339 71.5C96.3288 72.99 91.9388 73.24 87.6988 72.74C72.6788 70.99 59.0588 58.84 56.9888 43.86C56.3888 39.48 56.7388 34.88 58.5988 30.86C62.3788 22.73 71.7388 18.42 80.6888 17.97C85.4088 17.73 90.2588 18.4 94.4688 20.55C98.6788 22.7 102.209 26.41 103.509 30.96C104.869 35.72 103.739 40.87 101.799 45.42C97.2988 56.04 88.3688 64.69 77.6188 68.86C72.2288 70.95 66.3288 71.95 60.6188 71.04C54.9088 70.13 49.4288 67.2 46.0188 62.53C42.0688 57.12 41.2788 49.57 44.0288 43.46C46.5688 37.82 51.8188 33.67 57.6388 31.59C63.4688 29.51 69.8288 29.35 75.9688 30.13" stroke="#2C2D40" stroke-miterlimit="10"/>
</g>
</svg>
