<svg width="194" height="224" viewBox="0 0 194 224" fill="none" xmlns="http://www.w3.org/2000/svg">
<mask id="mask0_452_2008" style="mask-type:luminance" maskUnits="userSpaceOnUse" x="0" y="0" width="194" height="224">
<path d="M193.799 127.3C193.799 180.69 150.519 223.97 97.1287 223.97C43.7387 223.97 0.45874 180.69 0.45874 127.3C0.45874 73.91 43.7387 0.630005 97.1287 0.630005C150.519 0.630005 193.799 73.91 193.799 127.3Z" fill="white"/>
</mask>
<g mask="url(#mask0_452_2008)">
<path d="M97.1287 223.97C150.518 223.97 193.799 180.689 193.799 127.3C193.799 73.9107 150.518 30.63 97.1287 30.63C43.7394 30.63 0.45874 73.9107 0.45874 127.3C0.45874 180.689 43.7394 223.97 97.1287 223.97Z" fill="#8674FC"/>
<path d="M145.449 90.98C145.449 90.98 128.489 81.54 103.589 74.75C78.6888 67.96 53.7988 65.63 53.7988 65.63C53.7988 65.63 80.3388 85.45 98.2388 89.15C116.139 92.85 145.449 90.97 145.449 90.97V90.98Z" fill="#BFCDF2"/>
<path d="M116.679 151.05L75.4187 83.58L48.9487 75.02C48.9487 75.02 41.9387 88.25 39.6087 95.78C37.2687 103.31 35.5587 114.97 35.5587 114.97C35.5587 114.97 31.5787 116.82 27.7487 122.38C23.9187 127.95 23.2487 134.95 23.2487 134.95L33.0987 137.94C33.0987 137.94 32.4388 182.69 68.7288 175.62L91.1688 215.56L135.879 184.52L116.679 151.05Z" fill="#E47573"/>
<path d="M145.449 90.98C149.039 97.45 150.539 105.07 149.669 112.42C149.599 113 149.389 113.72 148.809 113.81C148.509 113.85 148.219 113.7 147.969 113.53C146.579 112.58 145.639 111 145.489 109.32C146.569 115.96 145.319 122.81 142.859 129.07C140.409 135.33 136.799 141.06 133.019 146.63C131.289 149.17 129.509 151.72 128.409 154.59C127.309 157.46 126.939 160.74 128.099 163.59C126.619 163.69 125.109 162.97 124.269 161.75C125.299 163.1 126.239 165.24 124.889 166.26C123.989 166.93 122.729 166.53 121.689 166.1C118.929 164.95 116.119 163.77 113.789 161.9C110.729 159.45 108.669 155.97 106.909 152.46C102.859 144.41 99.9887 135.78 98.3987 126.92C94.4187 126.45 89.9887 126.14 86.0087 125.67C86.0687 120.51 86.1387 115.21 86.7287 110.09C47.4687 103.49 50.4287 81.28 49.4887 78.05C47.4187 79.97 45.3887 82.37 43.8587 84.75C43.7587 84.9 43.8087 84.8 43.7087 84.96C41.4187 81.49 41.8887 76.69 44.0887 73.16C46.2887 69.63 49.9487 67.24 53.7887 65.64C53.7887 65.64 69.0287 76.93 98.7887 83.75C128.549 90.56 145.439 90.99 145.439 90.99L145.449 90.98Z" fill="#2C2D40"/>
<path d="M68.4788 175.76C76.9988 171.33 84.5288 165.01 90.3688 157.39C86.3388 166.96 80.2088 175.84 72.6988 183.02" fill="#2C2D40"/>
<path d="M179.119 236.48C179.119 236.48 144.419 182.95 132.849 178.85C121.279 174.75 97.4287 192.83 81.7588 205.6C66.0988 218.37 47.7787 240.09 47.7787 240.09L179.119 236.48Z" fill="#BFCDF2"/>
<g style="mix-blend-mode:multiply" opacity="0.32">
<path d="M66.4902 132.117C66.8503 128.356 62.3379 124.848 56.4114 124.28C50.4848 123.713 45.3885 126.301 45.0284 130.061C44.6683 133.822 49.1808 137.33 55.1073 137.898C61.0338 138.465 66.1301 135.877 66.4902 132.117Z" fill="#FF7673"/>
</g>
<path d="M40.9688 113.63C40.9688 115.99 42.1887 117.91 43.6987 117.91C45.2087 117.91 46.4287 116 46.4287 113.63C46.4287 111.26 45.2087 109.35 43.6987 109.35C42.1887 109.35 40.9688 111.26 40.9688 113.63Z" fill="#2C2D40"/>
<path d="M63.6088 108.81C54.6388 107.07 38.9788 97.98 38.9788 97.98C38.9788 97.98 40.1488 93.85 40.9088 92.14C47.2388 99.04 55.0888 104.93 63.6088 108.81Z" fill="#2C2D40"/>
<path d="M146.129 91.61C147.539 96.45 149.179 101.62 153.169 104.69C155.659 106.61 158.789 107.47 161.619 108.86C166.299 111.16 170.269 115.08 172.149 119.94C174.029 124.8 173.669 130.6 170.769 134.94C175.369 133.34 180.639 136.66 182.389 141.21C184.139 145.75 183.029 150.96 180.799 155.29C185.799 153.63 191.629 156.76 193.809 161.56C195.989 166.36 194.909 172.23 191.909 176.57C188.909 180.91 184.249 183.87 179.339 185.78C180.859 186.36 181.659 188.13 181.569 189.75C181.479 191.37 180.689 192.87 179.809 194.24C174.999 201.79 167.169 207.35 158.449 209.39C156.069 209.95 152.819 209.76 152.149 207.42C152.999 208.57 152.629 210.27 151.699 211.35C150.769 212.43 149.409 213.02 148.089 213.56C143.869 215.29 139.509 216.86 134.969 217.23C130.429 217.6 125.619 216.65 122.059 213.79C118.499 210.93 116.499 205.96 117.899 201.62C113.209 204.32 107.069 204.29 102.409 201.54C97.7488 198.8 94.7388 193.44 94.8288 188.03C94.8788 184.56 96.7488 180.62 100.179 180.12C95.8688 179.75 92.8788 175.36 92.2988 171.08C91.3588 164.09 95.6688 156.72 102.229 154.12C98.7388 152.05 97.2688 147.17 99.0288 143.51C99.6188 142.28 100.519 141.21 101.409 140.17C115.319 123.91 128.059 103.43 145.449 90.97" fill="#2C2D40"/>
<path d="M118.299 121.03C117.949 126.98 114.929 132.72 110.229 136.38C108.759 137.53 107.089 138.49 105.239 138.78C101.079 139.43 97.0188 136.31 95.4188 132.42C93.8188 128.53 94.1988 124.11 95.1288 120.01C96.3388 114.71 99.0388 109.03 104.209 107.36C112.549 104.67 118.729 113.66 118.289 121.03H118.299Z" fill="#E47573"/>
<g style="mix-blend-mode:multiply">
<path d="M99.9088 134.08C101.689 133.37 103.269 132.16 104.399 130.61C104.629 130.3 104.849 129.96 104.879 129.57C104.939 128.84 104.319 128.24 103.759 127.77C102.619 126.81 101.479 125.85 100.349 124.89C100.119 124.7 99.8888 124.49 99.7788 124.22C99.6688 123.91 99.7288 123.57 99.7988 123.25C100.659 119.17 101.719 114.77 104.959 112.14C105.829 111.43 106.869 110.87 107.989 110.76C109.649 110.59 111.289 111.43 112.459 112.62C113.629 113.81 114.409 115.32 115.139 116.82C115.139 116.82 116.719 125.26 111.229 130.88C105.739 136.5 99.9088 134.07 99.9088 134.07V134.08Z" fill="#E47573"/>
</g>
<path d="M115.129 116.84C114.199 115.39 113.279 113.9 112.019 112.85C110.799 111.8 109.189 111.2 107.789 111.53C106.389 111.87 105.099 112.95 104.159 114.2C103.189 115.45 102.489 116.94 101.979 118.51C101.429 120.07 101.049 121.72 100.669 123.39C100.619 123.6 100.579 123.76 100.579 123.85C100.579 123.95 100.569 123.91 100.589 123.97C100.639 124.08 101.069 124.43 101.369 124.71C102.019 125.28 102.649 125.86 103.289 126.44L104.249 127.32C104.579 127.63 104.939 127.97 105.209 128.48C105.499 128.96 105.539 129.73 105.269 130.23C105.009 130.74 104.709 131.04 104.409 131.38C103.169 132.68 101.599 133.65 99.9188 134.1C101.439 133.27 102.749 132.15 103.699 130.8C103.929 130.47 104.189 130.11 104.289 129.82C104.379 129.53 104.329 129.35 104.159 129.09C103.819 128.6 103.029 128.09 102.369 127.56C101.689 127.03 101.009 126.5 100.339 125.96C99.9988 125.66 99.6988 125.53 99.2188 124.95C98.9888 124.66 98.8488 124.18 98.8688 123.85C98.8688 123.51 98.9288 123.24 98.9688 123.03C99.3088 121.33 99.6788 119.61 100.249 117.91C100.839 116.23 101.629 114.54 102.819 113.1C103.409 112.38 104.109 111.75 104.879 111.2C105.659 110.66 106.569 110.24 107.569 110.1C108.569 109.96 109.589 110.14 110.449 110.54C111.319 110.94 112.069 111.52 112.689 112.19C113.909 113.56 114.599 115.2 115.169 116.83L115.129 116.84Z" fill="#2C2D40"/>
<path d="M34.6388 147.07C39.5688 148.54 44.2088 150.7 48.3988 153.43C43.7488 151.59 38.9088 150.44 34.0688 150.01L34.6388 147.06V147.07Z" fill="#2C2D40"/>
<path d="M43.4088 121.31C43.4088 121.31 38.0688 130.96 42.9988 130.96C47.9288 130.96 43.4088 121.31 43.4088 121.31Z" fill="white"/>
<path d="M150.349 87.78C152.149 87.78 153.609 86.3205 153.609 84.52C153.609 82.7196 152.149 81.26 150.349 81.26C148.548 81.26 147.089 82.7196 147.089 84.52C147.089 86.3205 148.548 87.78 150.349 87.78Z" stroke="#BFCDF2" stroke-width="0.53" stroke-miterlimit="10"/>
<path d="M162.049 92.96C162.049 93.86 162.779 94.59 163.679 94.59C164.579 94.59 165.309 93.86 165.309 92.96C165.309 92.06 164.579 91.33 163.679 91.33C162.779 91.33 162.049 92.06 162.049 92.96Z" fill="#BFCDF2"/>
<path d="M74.6287 19.69C76.4292 19.69 77.8887 18.2305 77.8887 16.43C77.8887 14.6296 76.4292 13.17 74.6287 13.17C72.8283 13.17 71.3687 14.6296 71.3687 16.43C71.3687 18.2305 72.8283 19.69 74.6287 19.69Z" stroke="#BFCDF2" stroke-width="0.53" stroke-miterlimit="10"/>
<path d="M61.7387 31.93C61.7387 32.83 62.4687 33.56 63.3687 33.56C64.2687 33.56 64.9987 32.83 64.9987 31.93C64.9987 31.03 64.2687 30.3 63.3687 30.3C62.4687 30.3 61.7387 31.03 61.7387 31.93Z" fill="#BFCDF2"/>
<path d="M131.789 21.59C131.789 23.39 133.249 24.85 135.049 24.85C136.849 24.85 138.309 23.39 138.309 21.59C138.309 19.79 136.849 18.33 135.049 18.33C133.249 18.33 131.789 19.79 131.789 21.59Z" stroke="#BFCDF2" stroke-width="0.53" stroke-miterlimit="10"/>
<path d="M132.889 34.21C132.889 35.11 133.619 35.84 134.519 35.84C135.419 35.84 136.149 35.11 136.149 34.21C136.149 33.31 135.419 32.58 134.519 32.58C133.619 32.58 132.889 33.31 132.889 34.21Z" fill="#BFCDF2"/>
<g style="mix-blend-mode:overlay">
<path d="M60.9688 80.47C63.0487 83.82 65.5587 86.86 68.4587 89.47C71.3587 92.07 74.5987 94.3 78.1287 95.92C81.6287 97.61 85.4087 98.69 89.2687 99.25C91.1987 99.54 93.1487 99.68 95.1087 99.67C97.0687 99.69 99.0288 99.53 100.979 99.27C99.0688 99.75 97.0988 100.01 95.1188 100.16C93.1388 100.27 91.1488 100.22 89.1688 100.02C85.2088 99.6 81.3287 98.49 77.7087 96.83C74.1187 95.1 70.7788 92.82 67.9388 90.04C65.0988 87.26 62.6988 84.03 60.9788 80.48L60.9688 80.47Z" fill="#BFCDF2"/>
<path d="M78.9888 84.49C83.5788 87.08 88.3288 89.35 93.2388 91.22C98.1488 93.08 103.179 94.6 108.319 95.64C113.439 96.76 118.659 97.4 123.899 97.67L127.829 97.8L131.769 97.76L135.709 97.59L139.649 97.26L135.739 97.85L131.799 98.25L127.839 98.43H123.869C118.579 98.33 113.299 97.67 108.109 96.62C102.939 95.49 97.8388 93.97 92.9488 91.94C88.0588 89.91 83.3588 87.45 78.9788 84.5L78.9888 84.49Z" fill="#BFCDF2"/>
<path d="M135.789 107.61C138.269 107.61 140.759 107.99 143.159 108.67C145.559 109.35 147.899 110.39 149.869 112.01C150.849 112.81 151.709 113.79 152.369 114.9C153.029 116.01 153.429 117.3 153.499 118.6C153.579 119.9 153.359 121.22 152.809 122.43C152.269 123.64 151.339 124.69 150.139 125.33L149.979 124.47C152.089 124.7 154.159 125.37 155.989 126.46C157.819 127.55 159.419 129.12 160.389 131.06C161.369 133.01 161.629 135.27 161.209 137.38C160.799 139.49 159.629 141.52 157.779 142.73L157.569 141.94C159.689 142.07 161.669 143.09 163.139 144.54C164.609 146 165.619 147.96 165.789 150.03C165.969 152.11 165.259 154.18 164.059 155.81C162.859 157.45 161.109 158.7 159.139 159.13C163.009 158 165.659 153.95 165.229 150.09C165.019 148.17 164.029 146.38 162.629 145.07C161.229 143.75 159.389 142.91 157.509 142.8L156.229 142.73L157.299 142.02C158.919 140.94 159.949 139.13 160.309 137.21C160.679 135.29 160.419 133.23 159.529 131.51C158.629 129.77 157.189 128.33 155.499 127.3C153.809 126.26 151.869 125.62 149.889 125.38L148.379 125.2L149.729 124.52C151.789 123.48 152.789 120.97 152.669 118.65C152.639 116.27 151.279 114.08 149.459 112.51C147.629 110.91 145.369 109.84 143.049 109.05C140.709 108.26 138.269 107.8 135.789 107.62V107.61Z" fill="#BFCDF2"/>
<path d="M131.679 138.02C134.109 138.42 136.529 139.02 138.819 139.98C141.109 140.93 143.269 142.35 144.879 144.32C146.499 146.3 147.299 148.89 147.219 151.45C147.159 152.73 146.869 154.02 146.279 155.19C145.689 156.35 144.779 157.38 143.639 158.06L143.569 157.24C146.739 158.4 149.259 161.15 150.119 164.43C150.959 167.72 150.099 171.34 147.899 173.9L147.669 173.17C152.459 174.39 156.139 178.8 156.519 183.66C156.909 188.52 153.919 193.35 149.559 195.19C153.799 193.08 156.369 188.28 155.899 183.72C155.399 179.16 151.829 175.14 147.449 174.05L146.739 173.87L147.209 173.31C149.189 170.97 149.939 167.63 149.149 164.68C148.389 161.73 146.109 159.17 143.239 158.1L142.319 157.76L143.159 157.28C145.179 156.13 146.269 153.77 146.369 151.42C146.509 149.07 145.829 146.62 144.369 144.73C142.899 142.82 140.849 141.4 138.649 140.34C136.439 139.28 134.059 138.6 131.659 138.03L131.679 138.02Z" fill="#BFCDF2"/>
<path d="M118.859 151.34C122.979 152.58 126.129 156.69 126.209 161.15C126.269 163.37 125.539 165.59 124.259 167.4C122.999 169.22 121.189 170.69 119.069 171.46L118.859 170.53C119.639 170.44 120.449 170.64 121.109 171.04C121.779 171.43 122.299 172 122.689 172.64C123.459 173.9 123.759 175.46 123.369 176.92C122.989 178.34 122.109 179.56 121.089 180.51C120.059 181.47 118.879 182.24 117.639 182.85L117.569 182.12C118.969 182.61 119.759 184.02 119.779 185.36C119.799 186.72 119.159 187.97 118.319 188.92C116.599 190.84 113.899 191.77 111.449 191.27C113.919 191.53 116.449 190.48 117.929 188.59C118.679 187.67 119.189 186.51 119.129 185.37C119.079 184.26 118.349 183.15 117.339 182.87L116.429 182.61L117.279 182.14C118.439 181.49 119.559 180.77 120.489 179.87C121.419 178.97 122.169 177.89 122.479 176.67C122.789 175.5 122.519 174.18 121.869 173.15C121.219 172.12 120.139 171.36 118.979 171.48L114.759 171.93L118.769 170.54C120.689 169.88 122.369 168.55 123.559 166.88C124.739 165.21 125.469 163.2 125.519 161.14C125.569 157.02 122.859 152.92 118.879 151.33L118.859 151.34Z" fill="#BFCDF2"/>
</g>
<path d="M111.299 49.9L103.669 64.61L100.219 59.61L110.699 60.85L114.699 61.32L112.949 64.3L102.269 82.42L108.449 62.31L110.699 65.76L100.219 66.99L95.3788 67.56L96.7688 62L100.779 45.92L111.299 49.9Z" fill="#1B283E"/>
<path d="M161.309 63.26L157.519 70.58L155.799 68.09L161.009 68.71L163.009 68.94L162.129 70.42L156.819 79.44L159.889 69.44L161.009 71.15L155.799 71.77L153.389 72.05L154.079 69.28L156.079 61.28L161.309 63.26Z" fill="#1B283E"/>
<path d="M60.1888 44.25L55.9188 52.19L54.1988 49.7L59.4188 50.32L61.4088 50.55L60.5388 52.03L55.2188 61.05L58.2988 51.05L59.4188 52.76L54.1988 53.38L51.7888 53.66L52.4788 50.89L54.2188 43.88L60.1888 44.25Z" fill="#1B283E"/>
<path d="M142.989 63.26L139.189 70.58L137.479 68.09L142.689 68.71L144.679 68.94L143.809 70.42L138.489 79.44L141.569 69.44L142.689 71.15L137.479 71.77L135.069 72.05L135.759 69.28L137.749 61.28L142.989 63.26Z" fill="#1B283E"/>
<path d="M142.499 51.48H64.8988C64.3188 48.29 64.8087 45.39 66.9887 42.99C69.1687 40.59 72.4888 39.27 75.7288 39.53C74.8988 34.72 76.4988 30.1 79.7888 26.49C83.0688 22.87 88.7488 22.36 93.6188 22.73C95.4788 18.85 100.369 15.85 104.659 15.52C108.229 15.24 111.789 16.84 114.319 19.37C116.839 21.9 117.029 23.53 117.789 27.03C120.249 26.62 122.469 26.62 124.809 27.49C126.009 27.94 127.069 28.7 128.019 29.56C130.739 32.01 132.699 35.37 133.189 39C135.949 39.52 138.409 40.51 140.059 42.78C141.719 45.05 142.859 48.7 142.519 51.49L142.499 51.48Z" fill="#BFCDF2"/>
<path d="M174.549 64.27H120.429C120.029 62.04 120.369 60.03 121.889 58.35C123.409 56.67 125.729 55.76 127.979 55.94C127.399 52.58 128.519 49.37 130.809 46.84C133.099 44.32 137.059 43.96 140.459 44.22C141.759 41.51 145.169 39.42 148.159 39.19C150.649 39 153.129 40.11 154.889 41.88C156.649 43.65 156.779 44.78 157.309 47.22C159.029 46.93 160.569 46.93 162.209 47.54C163.049 47.85 163.789 48.38 164.449 48.98C166.349 50.69 167.709 53.03 168.049 55.56C169.979 55.92 171.689 56.62 172.839 58.2C173.999 59.78 174.799 62.33 174.549 64.27Z" fill="#2C2D40"/>
<path d="M88.0987 43.98H44.3687C44.0387 42.18 44.3187 40.55 45.5487 39.2C46.7787 37.85 48.6487 37.1 50.4687 37.25C49.9987 34.54 50.9087 31.94 52.7587 29.9C54.6087 27.86 57.8087 27.57 60.5487 27.78C61.5987 25.59 64.3487 23.9 66.7687 23.72C68.7787 23.56 70.7887 24.46 72.2087 25.89C73.6287 27.32 73.7387 28.24 74.1587 30.21C75.5487 29.98 76.7987 29.98 78.1187 30.47C78.7987 30.72 79.3887 31.15 79.9287 31.63C81.4587 33.01 82.5587 34.9 82.8387 36.95C84.3987 37.24 85.7787 37.8 86.7087 39.08C87.6387 40.36 88.2887 42.41 88.0887 43.99L88.0987 43.98Z" stroke="#2C2D40" stroke-miterlimit="10"/>
</g>
</svg>
