<svg width="194" height="230" viewBox="0 0 194 230" fill="none" xmlns="http://www.w3.org/2000/svg">
<mask id="mask0_452_1958" style="mask-type:luminance" maskUnits="userSpaceOnUse" x="0" y="0" width="194" height="230">
<path d="M193.949 132.92C193.949 186.31 150.669 229.59 97.2788 229.59C43.8888 229.59 0.608765 186.31 0.608765 132.92C0.608765 79.53 43.8888 0 97.2788 0C150.669 0 193.949 79.53 193.949 132.92Z" fill="white"/>
</mask>
<g mask="url(#mask0_452_1958)">
<path d="M97.2788 229.59C150.668 229.59 193.949 186.309 193.949 132.92C193.949 79.5306 150.668 36.25 97.2788 36.25C43.8894 36.25 0.608765 79.5306 0.608765 132.92C0.608765 186.309 43.8894 229.59 97.2788 229.59Z" fill="#8674FC"/>
<path d="M50.8988 89.44C50.8988 89.44 67.8588 80 92.7588 73.21C117.659 66.42 142.549 64.09 142.549 64.09C142.549 64.09 116.009 83.91 98.1088 87.61C80.2088 91.31 50.8988 89.43 50.8988 89.43V89.44Z" fill="#BFCDF2"/>
<path d="M79.6688 149.51L120.929 82.04L147.399 73.48C147.399 73.48 154.409 86.71 156.739 94.24C159.079 101.77 160.789 113.43 160.789 113.43L168.599 120.84C171.859 125.01 170.949 131.06 166.599 134.07L163.249 136.4C163.249 136.4 163.909 181.15 127.619 174.08L105.179 214.02L60.4688 182.98L79.6688 149.51Z" fill="#E47573"/>
<path d="M50.8988 89.44C47.3088 95.91 45.8088 103.53 46.6788 110.88C46.7488 111.46 46.9588 112.18 47.5388 112.27C47.8388 112.31 48.1288 112.16 48.3788 111.99C49.7688 111.04 50.7088 109.46 50.8588 107.78C49.7788 114.42 51.0288 121.27 53.4888 127.53C55.9488 133.79 59.5488 139.52 63.3288 145.09C65.0588 147.63 66.8388 150.18 67.9388 153.05C69.0388 155.92 69.4088 159.2 68.2488 162.05C69.7288 162.15 71.2388 161.43 72.0788 160.21C71.0488 161.56 70.1088 163.7 71.4588 164.72C72.3588 165.39 73.6188 164.99 74.6588 164.56C77.4188 163.41 80.2288 162.23 82.5588 160.36C85.6188 157.91 87.6788 154.43 89.4388 150.92C93.4888 142.87 96.3588 134.24 97.9488 125.38C101.929 124.91 106.359 124.6 110.339 124.13C110.279 118.97 110.209 113.67 109.619 108.55C148.879 101.95 145.919 79.74 146.859 76.51C148.929 78.43 150.959 80.83 152.489 83.21C152.589 83.36 152.539 83.26 152.639 83.42C154.929 79.95 154.459 75.15 152.259 71.62C150.059 68.09 146.399 65.7 142.559 64.1C142.559 64.1 127.319 75.39 97.5588 82.21C67.7988 89.02 50.9088 89.45 50.9088 89.45L50.8988 89.44Z" fill="#2C2D40"/>
<path d="M99.1688 123.19C94.4088 155.73 77.6188 186.36 52.7588 207.89C46.8288 213.02 40.4888 217.64 34.1488 222.25C28.1088 226.64 22.0788 231.03 16.0388 235.42C7.15876 227.87 2.52877 216.96 1.91877 205.32C1.31877 193.68 5.21877 181.97 12.1388 172.59C8.59877 176.36 4.45877 181.34 1.75877 185.74C-1.28123 174.2 3.74877 162 10.7288 152.33C17.7088 142.66 26.7388 134.59 33.5988 124.83C40.4988 115.01 45.0188 103.76 49.4788 92.62C56.0388 94.06 62.5988 95.5 69.1488 96.94C76.3988 98.53 83.8288 100.2 90.0288 104.27C96.2288 108.34 100.249 115.84 99.1688 123.19Z" fill="#2C2D40"/>
<path d="M78.0488 119.5C78.3988 125.45 81.4188 131.19 86.1188 134.85C87.5888 136 89.2588 136.96 91.1088 137.25C95.2688 137.9 99.3288 134.78 100.929 130.89C102.529 127 102.149 122.58 101.219 118.48C100.009 113.18 97.3088 107.5 92.1388 105.83C83.7988 103.14 77.6188 112.13 78.0588 119.5H78.0488Z" fill="#E47573"/>
<g style="mix-blend-mode:multiply">
<path d="M96.4488 132.55C94.6688 131.84 93.0888 130.63 91.9588 129.08C91.7288 128.77 91.5088 128.43 91.4788 128.04C91.4188 127.31 92.0388 126.71 92.5988 126.24C93.7388 125.28 94.8788 124.32 96.0088 123.36C96.2388 123.17 96.4688 122.96 96.5788 122.69C96.6888 122.38 96.6288 122.04 96.5588 121.72C95.6988 117.64 94.6388 113.24 91.3988 110.61C90.5288 109.9 89.4888 109.34 88.3688 109.23C86.7088 109.06 85.0688 109.9 83.8988 111.09C82.7288 112.28 81.9488 113.79 81.2188 115.29C81.2188 115.29 79.6388 123.73 85.1288 129.35C90.6188 134.97 96.4488 132.54 96.4488 132.54V132.55Z" fill="#E47573"/>
</g>
<path d="M81.2188 115.3C81.7888 113.67 82.4788 112.04 83.6988 110.66C84.3188 109.98 85.0688 109.41 85.9388 109.01C86.7988 108.61 87.8188 108.43 88.8188 108.57C89.8188 108.71 90.7288 109.13 91.5088 109.67C92.2788 110.22 92.9788 110.85 93.5688 111.57C94.7588 113.01 95.5488 114.69 96.1388 116.38C96.7088 118.08 97.0788 119.8 97.4188 121.5C97.4588 121.71 97.5188 121.97 97.5188 122.32C97.5288 122.65 97.3888 123.13 97.1688 123.42C96.6988 123.99 96.3888 124.12 96.0488 124.43C95.3788 124.97 94.6988 125.5 94.0188 126.03C93.3588 126.57 92.5688 127.08 92.2288 127.56C92.0588 127.81 92.0088 128 92.0988 128.29C92.1888 128.58 92.4488 128.94 92.6888 129.27C93.6388 130.62 94.9488 131.74 96.4688 132.57C94.7888 132.12 93.2288 131.16 91.9788 129.85C91.6788 129.51 91.3688 129.21 91.1188 128.7C90.8388 128.2 90.8888 127.43 91.1788 126.95C91.4388 126.45 91.8088 126.1 92.1388 125.79L93.0988 124.91C93.7288 124.32 94.3688 123.74 95.0188 123.18C95.3188 122.91 95.7488 122.56 95.7988 122.44C95.8288 122.38 95.7988 122.43 95.8088 122.32C95.8088 122.23 95.7688 122.07 95.7188 121.86C95.3388 120.19 94.9588 118.54 94.4088 116.98C93.8988 115.41 93.1988 113.92 92.2288 112.67C91.2788 111.42 89.9988 110.34 88.5988 110C87.1988 109.67 85.5888 110.27 84.3688 111.32C83.1088 112.37 82.1888 113.85 81.2588 115.31L81.2188 115.3Z" fill="#2C2D40"/>
<path d="M127.869 174.23C119.349 169.8 111.819 163.48 105.979 155.86C110.009 165.43 116.139 174.31 123.649 181.49" fill="#2C2D40"/>
<path d="M17.2288 234.94C17.2288 234.94 51.9288 181.41 63.4988 177.31C75.0688 173.21 98.9188 191.29 114.589 204.06C130.249 216.83 148.569 238.55 148.569 238.55L17.2288 234.94Z" fill="#BFCDF2"/>
<g style="mix-blend-mode:multiply" opacity="0.32">
<path d="M129.859 130.55C130.219 134.31 135.319 136.9 141.249 136.33C147.179 135.76 151.689 132.25 151.329 128.5C150.969 124.74 145.869 122.15 139.939 122.72C134.009 123.29 129.499 126.79 129.859 130.55Z" fill="#FF7673"/>
</g>
<path d="M155.379 112.09C155.379 114.45 154.159 116.37 152.649 116.37C151.139 116.37 149.919 114.46 149.919 112.09C149.919 109.72 151.139 107.81 152.649 107.81C154.159 107.81 155.379 109.72 155.379 112.09Z" fill="#2C2D40"/>
<path d="M132.739 107.28C141.709 105.54 157.369 96.45 157.369 96.45C157.369 96.45 156.199 92.32 155.439 90.61C149.109 97.51 141.259 103.4 132.739 107.28Z" fill="#2C2D40"/>
<path d="M161.979 148.87C157.179 150.96 151.779 151.64 146.609 150.79C152.669 148.86 157.859 145.98 162.959 142.17C164.439 144.21 164.289 147.86 161.979 148.87Z" fill="#C33C4C"/>
<path d="M147.139 150.34C151.149 151.95 155.169 153.57 159.339 154.71C159.879 154.86 160.469 155 160.989 154.78C161.679 154.5 161.999 153.69 162.119 152.95C162.429 151.05 161.909 149.02 160.709 147.51" fill="#C33C4C"/>
<g style="mix-blend-mode:overlay">
<path d="M140.969 69.52C140.639 72.15 139.819 74.71 138.689 77.13C137.529 79.53 136.039 81.77 134.339 83.83C130.919 87.95 126.639 91.27 122.059 93.98C117.429 96.62 112.499 98.72 107.369 100.14C104.809 100.84 102.199 101.39 99.5788 101.78C96.9488 102.13 94.3088 102.36 91.6588 102.36C94.2888 102.12 96.9088 101.79 99.4988 101.27C102.089 100.78 104.639 100.15 107.149 99.37C112.169 97.81 117.019 95.74 121.539 93.08C126.089 90.49 130.269 87.23 133.739 83.32C137.199 79.42 139.879 74.73 140.969 69.54V69.52Z" fill="#BFCDF2"/>
<path d="M107.519 85.77C106.649 86.32 105.769 86.87 104.889 87.41L102.179 88.91L99.3788 90.26L96.5188 91.49C92.6688 93.04 88.6588 94.16 84.5888 95C80.5088 95.75 76.3688 96.21 72.2188 96.22L69.1088 96.16L66.0088 95.96L62.9288 95.58C61.9088 95.41 60.8888 95.24 59.8788 95.05C60.9088 95.12 61.9388 95.21 62.9588 95.3L66.0388 95.44L69.1188 95.49L72.1988 95.41C76.2888 95.23 80.3788 94.79 84.3888 93.96C88.4188 93.22 92.3688 92.09 96.2288 90.73L99.1088 89.65L101.949 88.45L104.749 87.16C105.659 86.69 106.579 86.22 107.509 85.77H107.519Z" fill="#BFCDF2"/>
<path d="M79.3088 139.7C78.6088 141.12 77.8388 142.5 77.0888 143.89C76.2988 145.26 75.4888 146.62 74.6688 147.97C73.0188 150.67 71.2388 153.28 69.3888 155.85C67.5188 158.4 65.5888 160.91 63.5388 163.31C62.5088 164.51 61.4688 165.7 60.4088 166.87C59.3188 168.02 58.2488 169.18 57.1088 170.28L60.0088 166.54C60.9788 165.3 61.9488 164.06 62.8988 162.8C64.7988 160.29 66.6988 157.78 68.5288 155.23C70.3888 152.69 72.1788 150.11 73.9788 147.53C74.8788 146.24 75.7588 144.93 76.6388 143.62L79.2988 139.7H79.3088Z" fill="#BFCDF2"/>
<path d="M67.4688 113.31C66.6888 117.73 65.3188 122.05 63.6288 126.22C61.9088 130.38 59.8288 134.39 57.5488 138.27C52.9688 146.04 47.5388 153.23 42.2488 160.47C36.8888 167.66 31.6988 174.98 27.4188 182.84C23.1488 190.67 19.8788 199.16 18.8188 208.11C19.1288 203.63 20.0788 199.19 21.4288 194.9C22.8188 190.61 24.6288 186.47 26.6988 182.47C30.8688 174.47 36.0988 167.1 41.3988 159.85C46.7688 152.66 52.1588 145.48 56.8588 137.86C61.5388 130.25 65.4588 122.08 67.4688 113.31Z" fill="#BFCDF2"/>
<path d="M57.8588 104.33C56.2488 107.06 54.5588 109.74 52.8688 112.42C51.1388 115.08 49.3788 117.71 47.5988 120.33C44.0188 125.56 40.2388 130.65 36.3788 135.68C32.4588 140.66 28.4488 145.58 24.2688 150.34C22.1688 152.71 20.0488 155.07 17.8988 157.4C15.7188 159.7 13.5388 162 11.2888 164.23L14.4188 160.66L17.5188 157.06C19.5888 154.66 21.6388 152.25 23.6588 149.82C27.7088 144.96 31.7088 140.06 35.5488 135.04C39.4688 130.07 43.2188 124.99 46.9388 119.87C48.7988 117.31 50.6288 114.73 52.4388 112.14L55.1588 108.25L57.8488 104.34L57.8588 104.33Z" fill="#BFCDF2"/>
</g>
<path d="M110.899 29.05C111.649 32.6 110.989 36.45 108.909 40.59L104.699 49.04C104.089 50.28 103.839 51.47 103.929 52.6C104.009 53.41 103.489 54.16 102.699 54.32L92.4588 56.49C91.3988 56.71 90.3688 56.04 90.1388 54.98C89.3988 51.49 89.8888 48.17 91.5988 45.03L95.9788 36.98C97.0988 34.89 97.5188 33.18 97.2388 31.85C96.5188 28.47 94.4988 27.13 91.1788 27.83C88.4088 28.42 87.0488 29.97 87.0988 32.49C87.1188 33.44 86.4988 34.29 85.5688 34.49L75.6588 36.59C74.5288 36.83 73.4388 36.04 73.3088 34.89C72.7888 30.34 73.8488 26.3 76.4688 22.78C79.2688 19.06 83.3088 16.64 88.5788 15.53C93.7888 14.43 98.4288 14.98 102.489 17.19C106.939 19.61 109.749 23.56 110.909 29.05H110.899ZM107.819 65.84C108.279 68 107.889 70.02 106.669 71.9C105.449 73.78 103.749 74.95 101.589 75.41C99.4288 75.87 97.4088 75.48 95.5288 74.26C93.6488 73.04 92.4788 71.34 92.0188 69.18C91.5588 67.02 91.9488 65 93.1688 63.12C94.3888 61.24 96.0888 60.07 98.2488 59.61C100.409 59.15 102.429 59.54 104.309 60.76C106.189 61.98 107.359 63.68 107.819 65.84Z" fill="#2C2D40"/>
<path d="M137.509 42.91C136.719 44.9 135.139 46.57 132.769 47.93L127.949 50.7C127.249 51.11 126.729 51.61 126.409 52.2C126.179 52.62 125.689 52.82 125.239 52.64L119.509 50.36C118.919 50.12 118.629 49.45 118.859 48.86C119.639 46.9 120.959 45.43 122.819 44.45L127.599 41.93C128.829 41.27 129.599 40.57 129.889 39.82C130.639 37.93 130.089 36.61 128.229 35.87C126.679 35.25 125.499 35.57 124.699 36.83C124.399 37.3 123.819 37.52 123.299 37.31L117.749 35.11C117.119 34.86 116.839 34.11 117.149 33.51C118.379 31.11 120.219 29.47 122.649 28.6C125.239 27.69 128.009 27.82 130.959 28.99C133.879 30.15 135.969 31.93 137.239 34.35C138.629 36.99 138.719 39.85 137.499 42.92L137.509 42.91ZM123.989 59.97C123.509 61.18 122.659 62.05 121.449 62.57C120.229 63.09 119.019 63.12 117.809 62.63C116.599 62.14 115.729 61.3 115.209 60.09C114.689 58.88 114.659 57.66 115.149 56.45C115.639 55.24 116.479 54.37 117.689 53.85C118.899 53.33 120.119 53.31 121.329 53.79C122.539 54.27 123.409 55.12 123.929 56.33C124.449 57.54 124.469 58.76 123.989 59.97Z" fill="#EEB422"/>
<path d="M67.5087 45.34C69.0487 46.83 69.9888 48.92 70.3488 51.63L71.0788 57.15C71.1888 57.96 71.4588 58.62 71.8788 59.14C72.1788 59.51 72.1788 60.04 71.8488 60.39L67.5588 64.82C67.1188 65.28 66.3888 65.29 65.9288 64.85C64.4188 63.39 63.5588 61.61 63.3588 59.51L62.8388 54.13C62.6988 52.74 62.3387 51.76 61.7587 51.21C60.2987 49.79 58.8688 49.81 57.4688 51.25C56.3088 52.45 56.1587 53.66 57.0087 54.87C57.3287 55.33 57.3087 55.94 56.9187 56.35L52.7688 60.64C52.2988 61.13 51.4988 61.1 51.0588 60.58C49.3088 58.53 48.4888 56.21 48.6088 53.62C48.7488 50.88 49.9288 48.37 52.1288 46.08C54.3088 43.82 56.7588 42.56 59.4688 42.31C62.4388 42.02 65.1188 43.03 67.4888 45.33L67.5087 45.34ZM78.1388 64.33C79.0788 65.24 79.5588 66.35 79.5788 67.67C79.5988 68.99 79.1587 70.12 78.2587 71.06C77.3487 72 76.2387 72.48 74.9187 72.5C73.5987 72.52 72.4688 72.08 71.5288 71.18C70.5888 70.27 70.1088 69.16 70.0888 67.84C70.0688 66.52 70.5088 65.39 71.4088 64.45C72.3188 63.51 73.4288 63.03 74.7488 63.01C76.0688 62.99 77.1987 63.43 78.1388 64.33Z" fill="#EEB422"/>
<path d="M58.9588 74.78C60.7592 74.78 62.2188 73.3205 62.2188 71.52C62.2188 69.7196 60.7592 68.26 58.9588 68.26C57.1583 68.26 55.6988 69.7196 55.6988 71.52C55.6988 73.3205 57.1583 74.78 58.9588 74.78Z" stroke="#BFCDF2" stroke-width="0.53" stroke-miterlimit="10"/>
<path d="M47.2588 79.95C47.2588 80.85 46.5288 81.58 45.6288 81.58C44.7288 81.58 43.9988 80.85 43.9988 79.95C43.9988 79.05 44.7288 78.32 45.6288 78.32C46.5288 78.32 47.2588 79.05 47.2588 79.95Z" fill="#BFCDF2"/>
<path d="M154.309 51.01C156.109 51.01 157.569 49.5504 157.569 47.75C157.569 45.9495 156.109 44.49 154.309 44.49C152.508 44.49 151.049 45.9495 151.049 47.75C151.049 49.5504 152.508 51.01 154.309 51.01Z" stroke="#BFCDF2" stroke-width="0.53" stroke-miterlimit="10"/>
<path d="M142.609 56.18C142.609 57.08 141.879 57.81 140.979 57.81C140.079 57.81 139.349 57.08 139.349 56.18C139.349 55.28 140.079 54.55 140.979 54.55C141.879 54.55 142.609 55.28 142.609 56.18Z" fill="#BFCDF2"/>
<path d="M61.3088 23.32C63.1092 23.32 64.5688 21.8604 64.5688 20.06C64.5688 18.2595 63.1092 16.8 61.3088 16.8C59.5083 16.8 58.0488 18.2595 58.0488 20.06C58.0488 21.8604 59.5083 23.32 61.3088 23.32Z" stroke="#BFCDF2" stroke-width="0.53" stroke-miterlimit="10"/>
<path d="M63.4588 32.67C63.4588 33.57 62.7288 34.3 61.8288 34.3C60.9288 34.3 60.1988 33.57 60.1988 32.67C60.1988 31.77 60.9288 31.04 61.8288 31.04C62.7288 31.04 63.4588 31.77 63.4588 32.67Z" fill="#BFCDF2"/>
<path d="M141.859 40.72C142.679 39.67 143.599 38.75 144.559 37.88C145.509 37 146.519 36.2 147.539 35.41C148.579 34.65 149.629 33.9 150.739 33.24C151.839 32.56 152.979 31.94 154.219 31.44C153.399 32.49 152.479 33.41 151.519 34.28C150.569 35.16 149.559 35.96 148.539 36.75C147.499 37.51 146.449 38.26 145.339 38.92C144.239 39.6 143.099 40.22 141.859 40.72Z" fill="#5700DD"/>
<path d="M138.729 32.16C138.989 31.39 139.369 30.74 139.789 30.13C140.199 29.51 140.679 28.95 141.179 28.42C141.689 27.89 142.239 27.4 142.839 26.97C143.439 26.53 144.079 26.13 144.839 25.85C144.579 26.62 144.199 27.27 143.779 27.88C143.369 28.5 142.889 29.06 142.379 29.59C141.869 30.11 141.319 30.6 140.719 31.04C140.119 31.48 139.479 31.88 138.719 32.16H138.729Z" fill="#5700DD"/>
<path d="M116.619 26.91C116.849 25.64 117.219 24.44 117.649 23.26C118.069 22.08 118.559 20.94 119.099 19.81C119.639 18.69 120.219 17.59 120.879 16.52C121.529 15.45 122.229 14.41 123.089 13.44C122.869 14.71 122.489 15.91 122.059 17.09C121.639 18.27 121.149 19.41 120.609 20.54C120.069 21.66 119.479 22.76 118.829 23.83C118.179 24.9 117.479 25.94 116.629 26.92L116.619 26.91Z" fill="#5700DD"/>
<path d="M113.889 20.3C113.719 19.67 113.709 19.09 113.749 18.52C113.779 17.95 113.899 17.41 114.059 16.88C114.219 16.35 114.429 15.84 114.719 15.35C114.999 14.86 115.329 14.38 115.829 13.95C115.999 14.58 116.019 15.16 115.969 15.73C115.939 16.3 115.819 16.84 115.659 17.37C115.499 17.9 115.289 18.41 114.999 18.9C114.719 19.39 114.389 19.87 113.889 20.3Z" fill="#5700DD"/>
<path d="M43.4888 30.83C44.5088 31.06 45.4288 31.47 46.3188 31.94C47.2088 32.41 48.0388 32.98 48.8188 33.6C49.5988 34.23 50.3288 34.91 50.9788 35.68C51.6388 36.44 52.2288 37.26 52.6788 38.2C51.7388 37.75 50.9088 37.21 50.1088 36.65C49.2988 36.1 48.5288 35.51 47.7788 34.91C47.0288 34.3 46.2888 33.68 45.5788 33.01C44.8588 32.35 44.1588 31.65 43.5088 30.84L43.4888 30.83Z" fill="#5700DD"/>
<path d="M41.3288 38.48C42.1188 38.47 42.8388 38.61 43.5288 38.8C44.2288 38.98 44.8888 39.24 45.5388 39.54C46.1788 39.84 46.7988 40.19 47.3888 40.61C47.9788 41.02 48.5488 41.49 49.0388 42.11C48.2488 42.12 47.5288 41.99 46.8288 41.8C46.1288 41.62 45.4688 41.36 44.8188 41.06C44.1788 40.75 43.5588 40.41 42.9688 39.99C42.3788 39.58 41.8088 39.11 41.3188 38.49L41.3288 38.48Z" fill="#5700DD"/>
<path d="M29.1488 68.94C30.6488 68.62 32.1488 68.46 33.6488 68.36C35.1488 68.25 36.6388 68.24 38.1388 68.24C39.6388 68.28 41.1288 68.34 42.6188 68.49C44.1088 68.64 45.6088 68.84 47.0988 69.21C45.5988 69.54 44.0988 69.69 42.5988 69.79C41.0988 69.9 39.6088 69.91 38.1088 69.9C36.6088 69.86 35.1188 69.8 33.6288 69.64C32.1388 69.49 30.6388 69.29 29.1488 68.92V68.94Z" fill="#5700DD"/>
<path d="M39.3688 63.09C40.2188 62.83 41.0588 62.75 41.8888 62.74C42.7288 62.72 43.5488 62.8 44.3688 62.94C45.1788 63.08 45.9888 63.29 46.7688 63.59C47.5488 63.88 48.3188 64.24 49.0288 64.77C48.1488 64.91 47.3188 64.91 46.4988 64.87C45.6788 64.83 44.8788 64.73 44.0788 64.6C43.2788 64.46 42.4888 64.29 41.7088 64.04C40.9188 63.81 40.1388 63.53 39.3588 63.11L39.3688 63.09Z" fill="#5700DD"/>
</g>
</svg>
