<svg width="130" height="137" viewBox="0 0 130 137" fill="none" xmlns="http://www.w3.org/2000/svg">
<path d="M4.33743 114.461H2.33224V113.491H4.33743C4.71577 113.491 5.02054 113.417 5.25175 113.269C5.48716 113.12 5.65741 112.914 5.7625 112.651C5.8718 112.387 5.92645 112.087 5.92645 111.749C5.92645 111.44 5.8718 111.15 5.7625 110.878C5.65741 110.606 5.48716 110.388 5.25175 110.223C5.02054 110.055 4.71577 109.97 4.33743 109.97H2.57186V117.988H1.41162V108.994H4.33743C4.93016 108.994 5.43041 109.112 5.83817 109.346C6.24593 109.581 6.55491 109.906 6.7651 110.322C6.97949 110.734 7.08668 111.205 7.08668 111.737C7.08668 112.313 6.97949 112.805 6.7651 113.213C6.55491 113.621 6.24593 113.932 5.83817 114.146C5.43041 114.356 4.93016 114.461 4.33743 114.461Z" fill="white"/>
<path d="M14.3167 116.277C14.3167 116.108 14.2747 115.96 14.1906 115.832C14.1065 115.704 13.9678 115.581 13.7744 115.461C13.5853 115.342 13.3288 115.214 13.0051 115.078C12.6899 114.951 12.4061 114.825 12.1539 114.702C11.9059 114.574 11.6957 114.436 11.5233 114.288C11.351 114.14 11.2185 113.969 11.1261 113.775C11.0378 113.577 10.9936 113.345 10.9936 113.077C10.9936 112.809 11.0441 112.562 11.145 112.336C11.2501 112.105 11.3972 111.903 11.5864 111.731C11.7755 111.558 12.0025 111.424 12.2674 111.329C12.5322 111.23 12.8286 111.181 13.1565 111.181C13.6231 111.181 14.0203 111.269 14.3482 111.446C14.6761 111.623 14.9263 111.866 15.0986 112.175C15.2752 112.48 15.3634 112.824 15.3634 113.207H14.2537C14.2537 113.022 14.2116 112.846 14.1275 112.682C14.0435 112.517 13.9195 112.383 13.7555 112.28C13.5916 112.173 13.3919 112.12 13.1565 112.12C12.9085 112.12 12.7067 112.163 12.5511 112.249C12.3956 112.336 12.2821 112.449 12.2106 112.589C12.1434 112.725 12.1097 112.875 12.1097 113.04C12.1097 113.164 12.1266 113.271 12.1602 113.361C12.198 113.448 12.2611 113.53 12.3494 113.608C12.4376 113.682 12.5574 113.761 12.7088 113.843C12.8643 113.921 13.0619 114.012 13.3015 114.115C13.7639 114.292 14.1528 114.471 14.468 114.652C14.7833 114.833 15.0229 115.045 15.1869 115.288C15.3508 115.531 15.4328 115.832 15.4328 116.19C15.4328 116.483 15.3782 116.748 15.2689 116.987C15.1638 117.222 15.0124 117.424 14.8149 117.592C14.6173 117.761 14.3798 117.891 14.1023 117.982C13.8291 118.068 13.5222 118.111 13.1817 118.111C12.6688 118.111 12.2338 118.012 11.8764 117.815C11.5233 117.613 11.2543 117.352 11.0693 117.03C10.8886 116.705 10.7982 116.357 10.7982 115.986H11.9143C11.9269 116.299 11.9983 116.542 12.1287 116.715C12.2632 116.888 12.425 117.008 12.6142 117.074C12.8034 117.139 12.9925 117.172 13.1817 117.172C13.4297 117.172 13.6378 117.137 13.806 117.067C13.9741 116.993 14.1002 116.888 14.1843 116.752C14.2726 116.616 14.3167 116.458 14.3167 116.277Z" fill="white"/>
<path d="M20.6766 111.304V117.988H19.5668V111.304H20.6766ZM19.5037 109.532C19.5037 109.346 19.5563 109.19 19.6614 109.062C19.7665 108.934 19.9241 108.871 20.1343 108.871C20.3445 108.871 20.5021 108.934 20.6072 109.062C20.7165 109.19 20.7711 109.346 20.7711 109.532C20.7711 109.709 20.7165 109.861 20.6072 109.989C20.5021 110.112 20.3445 110.174 20.1343 110.174C19.9241 110.174 19.7665 110.112 19.6614 109.989C19.5563 109.861 19.5037 109.709 19.5037 109.532Z" fill="white"/>
<path d="M26.1473 108.5V117.988H25.0312V108.5H26.1473ZM29.6091 111.304L27.1814 114.424L25.6807 116.116L25.605 114.899L26.6392 113.503L28.266 111.304H29.6091ZM28.5876 117.988L26.6707 114.8L27.2445 113.781L29.8866 117.988H28.5876Z" fill="white"/>
<path d="M33.2008 114.967V114.331C33.2008 113.812 33.2681 113.357 33.4026 112.966C33.5371 112.571 33.7242 112.241 33.9638 111.978C34.2034 111.714 34.4829 111.516 34.8024 111.385C35.1219 111.249 35.4645 111.181 35.8302 111.181C36.2044 111.181 36.5512 111.249 36.8707 111.385C37.1902 111.516 37.4697 111.714 37.7093 111.978C37.9531 112.241 38.1423 112.571 38.2768 112.966C38.4113 113.357 38.4786 113.812 38.4786 114.331V114.967C38.4786 115.486 38.4113 115.943 38.2768 116.339C38.1423 116.73 37.9552 117.057 37.7156 117.321C37.476 117.584 37.1965 117.782 36.877 117.914C36.5575 118.045 36.2128 118.111 35.8428 118.111C35.4729 118.111 35.1282 118.045 34.8087 117.914C34.4892 117.782 34.2076 117.584 33.9638 117.321C33.7242 117.057 33.5371 116.73 33.4026 116.339C33.2681 115.943 33.2008 115.486 33.2008 114.967ZM34.3169 114.331V114.967C34.3169 115.334 34.3547 115.655 34.4304 115.931C34.5061 116.207 34.6133 116.437 34.752 116.623C34.8907 116.808 35.0525 116.948 35.2375 117.043C35.4225 117.133 35.6243 117.179 35.8428 117.179C36.0951 117.179 36.3158 117.133 36.5049 117.043C36.6983 116.948 36.8581 116.808 36.9842 116.623C37.1103 116.437 37.2049 116.207 37.2679 115.931C37.331 115.655 37.3625 115.334 37.3625 114.967V114.331C37.3625 113.965 37.3247 113.645 37.249 113.374C37.1733 113.098 37.0661 112.867 36.9274 112.682C36.7887 112.492 36.6247 112.352 36.4356 112.262C36.2506 112.167 36.0488 112.12 35.8302 112.12C35.6158 112.12 35.4162 112.167 35.2312 112.262C35.0462 112.352 34.8844 112.492 34.7457 112.682C34.6112 112.867 34.5061 113.098 34.4304 113.374C34.3547 113.645 34.3169 113.965 34.3169 114.331Z" fill="white"/>
<path d="M45.8095 116.277C45.8095 116.108 45.7675 115.96 45.6834 115.832C45.5993 115.704 45.4606 115.581 45.2672 115.461C45.0781 115.342 44.8216 115.214 44.498 115.078C44.1827 114.951 43.8989 114.825 43.6467 114.702C43.3987 114.574 43.1885 114.436 43.0161 114.288C42.8438 114.14 42.7114 113.969 42.6189 113.775C42.5306 113.577 42.4865 113.345 42.4865 113.077C42.4865 112.809 42.5369 112.562 42.6378 112.336C42.7429 112.105 42.89 111.903 43.0792 111.731C43.2684 111.558 43.4954 111.424 43.7602 111.329C44.025 111.23 44.3214 111.181 44.6493 111.181C45.1159 111.181 45.5132 111.269 45.841 111.446C46.1689 111.623 46.4191 111.866 46.5914 112.175C46.768 112.48 46.8563 112.824 46.8563 113.207H45.7465C45.7465 113.022 45.7044 112.846 45.6204 112.682C45.5363 112.517 45.4123 112.383 45.2483 112.28C45.0844 112.173 44.8847 112.12 44.6493 112.12C44.4013 112.12 44.1995 112.163 44.0439 112.249C43.8884 112.336 43.7749 112.449 43.7034 112.589C43.6362 112.725 43.6026 112.875 43.6026 113.04C43.6026 113.164 43.6194 113.271 43.653 113.361C43.6908 113.448 43.7539 113.53 43.8422 113.608C43.9304 113.682 44.0503 113.761 44.2016 113.843C44.3571 113.921 44.5547 114.012 44.7943 114.115C45.2567 114.292 45.6456 114.471 45.9609 114.652C46.2761 114.833 46.5158 115.045 46.6797 115.288C46.8436 115.531 46.9256 115.832 46.9256 116.19C46.9256 116.483 46.871 116.748 46.7617 116.987C46.6566 117.222 46.5052 117.424 46.3077 117.592C46.1101 117.761 45.8726 117.891 45.5951 117.982C45.3219 118.068 45.015 118.111 44.6745 118.111C44.1617 118.111 43.7266 118.012 43.3692 117.815C43.0161 117.613 42.7471 117.352 42.5621 117.03C42.3814 116.705 42.291 116.357 42.291 115.986H43.4071C43.4197 116.299 43.4912 116.542 43.6215 116.715C43.756 116.888 43.9178 117.008 44.107 117.074C44.2962 117.139 44.4853 117.172 44.6745 117.172C44.9225 117.172 45.1306 117.137 45.2988 117.067C45.4669 116.993 45.593 116.888 45.6771 116.752C45.7654 116.616 45.8095 116.458 45.8095 116.277Z" fill="white"/>
<path d="M50.738 114.967V114.331C50.738 113.812 50.8053 113.357 50.9398 112.966C51.0743 112.571 51.2614 112.241 51.501 111.978C51.7406 111.714 52.0201 111.516 52.3396 111.385C52.6591 111.249 53.0017 111.181 53.3674 111.181C53.7416 111.181 54.0884 111.249 54.4079 111.385C54.7274 111.516 55.0069 111.714 55.2465 111.978C55.4903 112.241 55.6795 112.571 55.814 112.966C55.9485 113.357 56.0158 113.812 56.0158 114.331V114.967C56.0158 115.486 55.9485 115.943 55.814 116.339C55.6795 116.73 55.4924 117.057 55.2528 117.321C55.0132 117.584 54.7337 117.782 54.4142 117.914C54.0947 118.045 53.75 118.111 53.3801 118.111C53.0101 118.111 52.6654 118.045 52.3459 117.914C52.0264 117.782 51.7448 117.584 51.501 117.321C51.2614 117.057 51.0743 116.73 50.9398 116.339C50.8053 115.943 50.738 115.486 50.738 114.967ZM51.8541 114.331V114.967C51.8541 115.334 51.8919 115.655 51.9676 115.931C52.0433 116.207 52.1505 116.437 52.2892 116.623C52.4279 116.808 52.5897 116.948 52.7747 117.043C52.9597 117.133 53.1615 117.179 53.3801 117.179C53.6323 117.179 53.853 117.133 54.0421 117.043C54.2355 116.948 54.3953 116.808 54.5214 116.623C54.6475 116.437 54.7421 116.207 54.8051 115.931C54.8682 115.655 54.8997 115.334 54.8997 114.967V114.331C54.8997 113.965 54.8619 113.645 54.7862 113.374C54.7105 113.098 54.6033 112.867 54.4646 112.682C54.3259 112.492 54.1619 112.352 53.9728 112.262C53.7878 112.167 53.586 112.12 53.3674 112.12C53.153 112.12 52.9534 112.167 52.7684 112.262C52.5834 112.352 52.4216 112.492 52.2829 112.682C52.1483 112.867 52.0433 113.098 51.9676 113.374C51.8919 113.645 51.8541 113.965 51.8541 114.331Z" fill="white"/>
<path d="M63.3467 116.277C63.3467 116.108 63.3047 115.96 63.2206 115.832C63.1365 115.704 62.9978 115.581 62.8044 115.461C62.6153 115.342 62.3588 115.214 62.0352 115.078C61.7199 114.951 61.4361 114.825 61.1839 114.702C60.9359 114.574 60.7257 114.436 60.5533 114.288C60.381 114.14 60.2486 113.969 60.1561 113.775C60.0678 113.577 60.0237 113.345 60.0237 113.077C60.0237 112.809 60.0741 112.562 60.175 112.336C60.2801 112.105 60.4272 111.903 60.6164 111.731C60.8056 111.558 61.0326 111.424 61.2974 111.329C61.5622 111.23 61.8586 111.181 62.1865 111.181C62.6531 111.181 63.0504 111.269 63.3783 111.446C63.7061 111.623 63.9563 111.866 64.1286 112.175C64.3052 112.48 64.3935 112.824 64.3935 113.207H63.2837C63.2837 113.022 63.2416 112.846 63.1576 112.682C63.0735 112.517 62.9495 112.383 62.7855 112.28C62.6216 112.173 62.4219 112.12 62.1865 112.12C61.9385 112.12 61.7367 112.163 61.5812 112.249C61.4256 112.336 61.3121 112.449 61.2406 112.589C61.1734 112.725 61.1398 112.875 61.1398 113.04C61.1398 113.164 61.1566 113.271 61.1902 113.361C61.228 113.448 61.2911 113.53 61.3794 113.608C61.4677 113.682 61.5875 113.761 61.7388 113.843C61.8943 113.921 62.0919 114.012 62.3315 114.115C62.7939 114.292 63.1828 114.471 63.4981 114.652C63.8133 114.833 64.053 115.045 64.2169 115.288C64.3808 115.531 64.4628 115.832 64.4628 116.19C64.4628 116.483 64.4082 116.748 64.2989 116.987C64.1938 117.222 64.0424 117.424 63.8449 117.592C63.6473 117.761 63.4098 117.891 63.1323 117.982C62.8591 118.068 62.5522 118.111 62.2117 118.111C61.6989 118.111 61.2638 118.012 60.9064 117.815C60.5533 117.613 60.2843 117.352 60.0993 117.03C59.9186 116.705 59.8282 116.357 59.8282 115.986H60.9443C60.9569 116.299 61.0284 116.542 61.1587 116.715C61.2932 116.888 61.455 117.008 61.6442 117.074C61.8334 117.139 62.0225 117.172 62.2117 117.172C62.4597 117.172 62.6678 117.137 62.836 117.067C63.0041 116.993 63.1302 116.888 63.2143 116.752C63.3026 116.616 63.3467 116.458 63.3467 116.277Z" fill="white"/>
<path d="M70.0912 117.296L71.6109 111.304H72.7963L70.5452 119.019C70.4906 119.184 70.417 119.361 70.3245 119.551C70.2362 119.744 70.1227 119.927 69.984 120.1C69.8453 120.273 69.6793 120.413 69.4859 120.52C69.2925 120.631 69.0655 120.687 68.8049 120.687C68.725 120.687 68.622 120.675 68.4959 120.65C68.374 120.625 68.2857 120.605 68.2311 120.588V119.662C68.2563 119.666 68.2962 119.67 68.3509 119.674C68.4055 119.682 68.4454 119.686 68.4707 119.686C68.6893 119.686 68.8742 119.651 69.0256 119.581C69.1811 119.516 69.3135 119.402 69.4228 119.242C69.5321 119.085 69.6246 118.869 69.7003 118.593L70.0912 117.296ZM69.1075 111.304L70.4632 116.493L70.7533 117.697L69.9588 118.117L67.8906 111.304H69.1075Z" fill="white"/>
<path d="M79.7174 116.845V113.219C79.7174 112.956 79.6754 112.744 79.5913 112.583C79.5114 112.422 79.3895 112.305 79.2255 112.231C79.0658 112.157 78.864 112.12 78.6202 112.12C78.3848 112.12 78.1809 112.167 78.0086 112.262C77.8404 112.356 77.7101 112.482 77.6176 112.639C77.5293 112.795 77.4852 112.968 77.4852 113.157H76.3691C76.3691 112.919 76.4216 112.682 76.5267 112.447C76.636 112.212 76.7916 112 76.9934 111.811C77.1951 111.617 77.4369 111.465 77.7185 111.354C78.0044 111.238 78.3238 111.181 78.677 111.181C79.0973 111.181 79.4694 111.249 79.7931 111.385C80.1167 111.516 80.3711 111.733 80.556 112.033C80.741 112.334 80.8335 112.733 80.8335 113.232V116.53C80.8335 116.752 80.8503 116.989 80.8839 117.24C80.9218 117.492 80.9743 117.708 81.0416 117.889V117.988H79.8876C79.833 117.856 79.791 117.681 79.7615 117.463C79.7321 117.24 79.7174 117.034 79.7174 116.845ZM79.8939 113.936L79.9066 114.739H79.131C78.8661 114.739 78.6244 114.768 78.4058 114.825C78.1914 114.883 78.0065 114.967 77.8509 115.078C77.6954 115.185 77.5756 115.319 77.4915 115.48C77.4116 115.641 77.3717 115.824 77.3717 116.03C77.3717 116.297 77.4095 116.511 77.4852 116.672C77.5609 116.829 77.6744 116.942 77.8257 117.012C77.977 117.082 78.1683 117.117 78.3995 117.117C78.6812 117.117 78.9292 117.053 79.1436 116.925C79.358 116.798 79.524 116.643 79.6417 116.462C79.7636 116.281 79.8204 116.112 79.812 115.956L80.0579 116.468C80.0411 116.629 79.9864 116.804 79.8939 116.993C79.8057 117.179 79.6817 117.358 79.5219 117.531C79.3622 117.7 79.173 117.84 78.9544 117.951C78.74 118.058 78.4983 118.111 78.2293 118.111C77.8341 118.111 77.4873 118.037 77.1888 117.889C76.8946 117.741 76.6655 117.522 76.5015 117.234C76.3376 116.946 76.2556 116.59 76.2556 116.166C76.2556 115.844 76.3123 115.548 76.4258 115.276C76.5394 115.004 76.7075 114.77 76.9303 114.572C77.1531 114.37 77.4326 114.214 77.769 114.102C78.1095 113.991 78.5025 113.936 78.9481 113.936H79.8939Z" fill="white"/>
<path d="M86.3484 108.5V117.988H85.2386V108.5H86.3484Z" fill="white"/>
<path d="M3.49248 133.801H1.92868L1.94129 132.831H3.49248C4.04317 132.831 4.49087 132.728 4.83558 132.522C5.18028 132.312 5.43461 132.003 5.59856 131.596C5.7625 131.184 5.84447 130.675 5.84447 130.07V128.532C5.84447 128.054 5.79823 127.642 5.70575 127.296C5.61327 126.95 5.47455 126.666 5.28958 126.444C5.10462 126.222 4.87131 126.057 4.58966 125.95C4.308 125.839 3.97801 125.783 3.59967 125.783H1.89715V124.807H3.59967C4.11673 124.807 4.58335 124.887 4.99952 125.048C5.41569 125.204 5.77301 125.441 6.07148 125.758C6.36994 126.071 6.59695 126.46 6.75248 126.926C6.91223 127.391 6.9921 127.931 6.9921 128.544V130.07C6.9921 130.683 6.91223 131.223 6.75248 131.688C6.59695 132.154 6.36784 132.543 6.06517 132.856C5.7625 133.169 5.39467 133.405 4.96169 133.566C4.53291 133.722 4.04317 133.801 3.49248 133.801ZM2.57186 124.807V133.801H1.41162V124.807H2.57186Z" fill="white"/>
<path d="M13.6609 133.924C13.2532 133.924 12.8853 133.865 12.5574 133.745C12.2296 133.626 11.95 133.444 11.7188 133.202C11.4876 132.954 11.311 132.644 11.1891 132.269C11.0672 131.894 11.0063 131.451 11.0063 130.941V130.187C11.0063 129.598 11.0756 129.1 11.2143 128.692C11.3573 128.285 11.5485 127.957 11.7882 127.71C12.0278 127.459 12.2989 127.278 12.6016 127.167C12.9043 127.051 13.2153 126.994 13.5348 126.994C13.9636 126.994 14.3293 127.062 14.632 127.198C14.9347 127.333 15.1806 127.535 15.3698 127.803C15.5589 128.071 15.6976 128.4 15.7859 128.791C15.8784 129.182 15.9246 129.633 15.9246 130.144V130.78H11.662V129.847H14.8086V129.693C14.7917 129.347 14.7434 129.042 14.6635 128.779C14.5879 128.515 14.4617 128.309 14.2852 128.161C14.1086 128.009 13.8585 127.933 13.5348 127.933C13.3288 127.933 13.1376 127.968 12.961 128.038C12.7886 128.104 12.6394 128.221 12.5133 128.39C12.3914 128.554 12.2947 128.783 12.2232 129.075C12.156 129.368 12.1224 129.738 12.1224 130.187V130.941C12.1224 131.299 12.156 131.608 12.2232 131.867C12.2947 132.123 12.3977 132.335 12.5322 132.504C12.6709 132.668 12.8391 132.792 13.0367 132.874C13.2385 132.952 13.4676 132.992 13.724 132.992C14.0981 132.992 14.4071 132.922 14.6509 132.781C14.8947 132.637 15.107 132.454 15.2878 132.232L15.8742 132.917C15.7523 133.086 15.5926 133.249 15.395 133.405C15.2016 133.558 14.962 133.683 14.6761 133.782C14.3945 133.877 14.0561 133.924 13.6609 133.924Z" fill="white"/>
<path d="M23.1673 132.09C23.1673 131.921 23.1252 131.773 23.0412 131.645C22.9571 131.517 22.8184 131.394 22.625 131.274C22.4358 131.155 22.1794 131.027 21.8557 130.891C21.5404 130.764 21.2567 130.638 21.0045 130.515C20.7564 130.387 20.5462 130.249 20.3739 130.101C20.2015 129.952 20.0691 129.782 19.9766 129.588C19.8884 129.39 19.8442 129.158 19.8442 128.89C19.8442 128.622 19.8947 128.375 19.9956 128.149C20.1006 127.918 20.2478 127.716 20.437 127.543C20.6261 127.371 20.8531 127.237 21.118 127.142C21.3828 127.043 21.6792 126.994 22.0071 126.994C22.4737 126.994 22.8709 127.082 23.1988 127.259C23.5267 127.436 23.7768 127.679 23.9492 127.988C24.1257 128.293 24.214 128.637 24.214 129.02H23.1042C23.1042 128.834 23.0622 128.659 22.9781 128.495C22.894 128.33 22.77 128.196 22.6061 128.093C22.4421 127.986 22.2425 127.933 22.0071 127.933C21.759 127.933 21.5572 127.976 21.4017 128.062C21.2462 128.149 21.1327 128.262 21.0612 128.402C20.9939 128.538 20.9603 128.688 20.9603 128.853C20.9603 128.977 20.9771 129.084 21.0108 129.174C21.0486 129.261 21.1117 129.343 21.1999 129.421C21.2882 129.495 21.408 129.574 21.5594 129.656C21.7149 129.734 21.9125 129.825 22.1521 129.928C22.6145 130.105 23.0033 130.284 23.3186 130.465C23.6339 130.646 23.8735 130.858 24.0375 131.101C24.2014 131.344 24.2834 131.645 24.2834 132.003C24.2834 132.296 24.2287 132.561 24.1194 132.8C24.0143 133.035 23.863 133.237 23.6654 133.405C23.4679 133.574 23.2303 133.704 22.9529 133.795C22.6797 133.881 22.3728 133.924 22.0323 133.924C21.5194 133.924 21.0843 133.825 20.727 133.628C20.3739 133.426 20.1049 133.164 19.9199 132.843C19.7391 132.518 19.6487 132.17 19.6487 131.799H20.7648C20.7775 132.112 20.8489 132.355 20.9792 132.528C21.1138 132.701 21.2756 132.821 21.4648 132.886C21.6539 132.952 21.8431 132.985 22.0323 132.985C22.2803 132.985 22.4884 132.95 22.6565 132.88C22.8247 132.806 22.9508 132.701 23.0349 132.565C23.1231 132.429 23.1673 132.271 23.1673 132.09Z" fill="white"/>
<path d="M30.8198 127.117V127.994H27.6355V127.117H30.8198ZM28.6759 125.493H29.792V132.145C29.792 132.372 29.8193 132.543 29.8739 132.658C29.9328 132.773 30.0064 132.849 30.0946 132.886C30.1829 132.924 30.2775 132.942 30.3784 132.942C30.4541 132.942 30.5381 132.934 30.6306 132.917C30.7231 132.897 30.7862 132.88 30.8198 132.868L30.8135 133.801C30.7378 133.83 30.6369 133.856 30.5108 133.881C30.3847 133.91 30.225 133.924 30.0316 133.924C29.792 133.924 29.5692 133.869 29.3632 133.757C29.1572 133.646 28.9912 133.461 28.865 133.202C28.7389 132.938 28.6759 132.584 28.6759 132.139V125.493Z" fill="white"/>
<path d="M37.1733 133.924C36.7656 133.924 36.3977 133.865 36.0699 133.745C35.742 133.626 35.4624 133.444 35.2312 133.202C35 132.954 34.8234 132.644 34.7015 132.269C34.5796 131.894 34.5187 131.451 34.5187 130.941V130.187C34.5187 129.598 34.588 129.1 34.7268 128.692C34.8697 128.285 35.061 127.957 35.3006 127.71C35.5402 127.459 35.8113 127.278 36.114 127.167C36.4167 127.051 36.7277 126.994 37.0472 126.994C37.476 126.994 37.8417 127.062 38.1444 127.198C38.4471 127.333 38.693 127.535 38.8822 127.803C39.0713 128.071 39.2101 128.4 39.2983 128.791C39.3908 129.182 39.4371 129.633 39.4371 130.144V130.78H35.1745V129.847H38.321V129.693C38.3041 129.347 38.2558 129.042 38.1759 128.779C38.1003 128.515 37.9742 128.309 37.7976 128.161C37.621 128.009 37.3709 127.933 37.0472 127.933C36.8412 127.933 36.65 127.968 36.4734 128.038C36.3011 128.104 36.1518 128.221 36.0257 128.39C35.9038 128.554 35.8071 128.783 35.7357 129.075C35.6684 129.368 35.6348 129.738 35.6348 130.187V130.941C35.6348 131.299 35.6684 131.608 35.7357 131.867C35.8071 132.123 35.9101 132.335 36.0446 132.504C36.1834 132.668 36.3515 132.792 36.5491 132.874C36.7509 132.952 36.98 132.992 37.2364 132.992C37.6105 132.992 37.9195 132.922 38.1633 132.781C38.4071 132.637 38.6194 132.454 38.8002 132.232L39.3866 132.917C39.2647 133.086 39.105 133.249 38.9074 133.405C38.714 133.558 38.4744 133.683 38.1885 133.782C37.9069 133.877 37.5685 133.924 37.1733 133.924Z" fill="white"/>
<path d="M44.4916 124.313V133.801H43.3755V124.313H44.4916ZM47.9534 127.117L45.5258 130.237L44.025 131.929L43.9494 130.712L44.9835 129.316L46.6103 127.117H47.9534ZM46.9319 133.801L45.015 130.613L45.5888 129.594L48.2309 133.801H46.9319Z" fill="white"/>
<path d="M60.402 130.274H58.3968V129.304H60.402C60.7803 129.304 61.0851 129.23 61.3163 129.082C61.5517 128.933 61.722 128.727 61.8271 128.464C61.9364 128.2 61.991 127.9 61.991 127.562C61.991 127.253 61.9364 126.963 61.8271 126.691C61.722 126.419 61.5517 126.201 61.3163 126.036C61.0851 125.867 60.7803 125.783 60.402 125.783H58.6364V133.801H57.4762V124.807H60.402C60.9947 124.807 61.495 124.924 61.9027 125.159C62.3105 125.394 62.6195 125.719 62.8297 126.135C63.0441 126.547 63.1512 127.018 63.1512 127.55C63.1512 128.126 63.0441 128.618 62.8297 129.026C62.6195 129.434 62.3105 129.745 61.9027 129.959C61.495 130.169 60.9947 130.274 60.402 130.274Z" fill="white"/>
<path d="M68.1869 128.167V133.801H67.0708V127.117H68.1491L68.1869 128.167ZM69.8831 127.08L69.8894 128.143C69.797 128.122 69.7129 128.11 69.6372 128.106C69.5658 128.097 69.4817 128.093 69.385 128.093C69.1748 128.093 68.9898 128.134 68.8301 128.217C68.6746 128.299 68.54 128.414 68.4265 128.563C68.313 128.711 68.2226 128.888 68.1554 129.094C68.0881 129.296 68.0419 129.518 68.0167 129.761L67.7266 129.946C67.7266 129.543 67.7581 129.164 67.8212 128.81C67.8885 128.456 67.9914 128.143 68.1302 127.871C68.2689 127.595 68.4454 127.381 68.6598 127.228C68.8784 127.072 69.1391 126.994 69.4417 126.994C69.509 126.994 69.591 127.004 69.6877 127.025C69.7886 127.041 69.8537 127.06 69.8831 127.08Z" fill="white"/>
<path d="M73.2289 130.78V130.144C73.2289 129.625 73.2962 129.17 73.4307 128.779C73.5652 128.384 73.7523 128.054 73.9919 127.791C74.2315 127.527 74.511 127.329 74.8305 127.198C75.15 127.062 75.4926 126.994 75.8583 126.994C76.2325 126.994 76.5793 127.062 76.8988 127.198C77.2183 127.329 77.4978 127.527 77.7374 127.791C77.9812 128.054 78.1704 128.384 78.3049 128.779C78.4395 129.17 78.5067 129.625 78.5067 130.144V130.78C78.5067 131.299 78.4395 131.756 78.3049 132.151C78.1704 132.543 77.9833 132.87 77.7437 133.134C77.5041 133.397 77.2246 133.595 76.9051 133.727C76.5856 133.858 76.2409 133.924 75.871 133.924C75.501 133.924 75.1563 133.858 74.8368 133.727C74.5173 133.595 74.2357 133.397 73.9919 133.134C73.7523 132.87 73.5652 132.543 73.4307 132.151C73.2962 131.756 73.2289 131.299 73.2289 130.78ZM74.345 130.144V130.78C74.345 131.147 74.3828 131.468 74.4585 131.744C74.5342 132.02 74.6414 132.25 74.7801 132.436C74.9188 132.621 75.0807 132.761 75.2656 132.856C75.4506 132.946 75.6524 132.992 75.871 132.992C76.1232 132.992 76.3439 132.946 76.5331 132.856C76.7264 132.761 76.8862 132.621 77.0123 132.436C77.1384 132.25 77.233 132.02 77.296 131.744C77.3591 131.468 77.3906 131.147 77.3906 130.78V130.144C77.3906 129.777 77.3528 129.458 77.2771 129.187C77.2014 128.911 77.0943 128.68 76.9555 128.495C76.8168 128.305 76.6529 128.165 76.4637 128.075C76.2787 127.98 76.0769 127.933 75.8583 127.933C75.644 127.933 75.4443 127.98 75.2593 128.075C75.0743 128.165 74.9125 128.305 74.7738 128.495C74.6393 128.68 74.5342 128.911 74.4585 129.187C74.3828 129.458 74.345 129.777 74.345 130.144Z" fill="white"/>
<path d="M82.5524 127.117H83.6622V134.598C83.6622 135.005 83.6075 135.351 83.4982 135.635C83.3931 135.919 83.2292 136.134 83.0064 136.278C82.7878 136.426 82.5083 136.5 82.1677 136.5C82.0753 136.5 81.9681 136.49 81.8462 136.469C81.7285 136.449 81.6276 136.424 81.5435 136.395V135.475C81.615 135.491 81.6927 135.503 81.7768 135.512C81.8609 135.524 81.9302 135.53 81.9849 135.53C82.1068 135.53 82.2098 135.499 82.2939 135.438C82.3779 135.376 82.441 135.277 82.483 135.141C82.5293 135.005 82.5524 134.824 82.5524 134.598V127.117ZM82.4515 125.344C82.4515 125.159 82.5041 125.003 82.6091 124.875C82.7184 124.747 82.8761 124.684 83.0821 124.684C83.2923 124.684 83.4499 124.747 83.555 124.875C83.6643 125.003 83.7189 125.159 83.7189 125.344C83.7189 125.522 83.6643 125.674 83.555 125.802C83.4499 125.925 83.2923 125.987 83.0821 125.987C82.8761 125.987 82.7184 125.925 82.6091 125.802C82.5041 125.674 82.4515 125.522 82.4515 125.344Z" fill="white"/>
<path d="M90.4508 133.924C90.0431 133.924 89.6752 133.865 89.3473 133.745C89.0194 133.626 88.7399 133.444 88.5087 133.202C88.2775 132.954 88.1009 132.644 87.979 132.269C87.8571 131.894 87.7962 131.451 87.7962 130.941V130.187C87.7962 129.598 87.8655 129.1 88.0042 128.692C88.1472 128.285 88.3384 127.957 88.578 127.71C88.8177 127.459 89.0888 127.278 89.3915 127.167C89.6941 127.051 90.0052 126.994 90.3247 126.994C90.7535 126.994 91.1192 127.062 91.4219 127.198C91.7246 127.333 91.9705 127.535 92.1596 127.803C92.3488 128.071 92.4875 128.4 92.5758 128.791C92.6683 129.182 92.7145 129.633 92.7145 130.144V130.78H88.4519V129.847H91.5984V129.693C91.5816 129.347 91.5333 129.042 91.4534 128.779C91.3777 128.515 91.2516 128.309 91.0751 128.161C90.8985 128.009 90.6484 127.933 90.3247 127.933C90.1187 127.933 89.9275 127.968 89.7509 128.038C89.5785 128.104 89.4293 128.221 89.3032 128.39C89.1813 128.554 89.0846 128.783 89.0131 129.075C88.9459 129.368 88.9122 129.738 88.9122 130.187V130.941C88.9122 131.299 88.9459 131.608 89.0131 131.867C89.0846 132.123 89.1876 132.335 89.3221 132.504C89.4608 132.668 89.629 132.792 89.8266 132.874C90.0283 132.952 90.2574 132.992 90.5139 132.992C90.888 132.992 91.197 132.922 91.4408 132.781C91.6846 132.637 91.8969 132.454 92.0777 132.232L92.6641 132.917C92.5422 133.086 92.3824 133.249 92.1849 133.405C91.9915 133.558 91.7519 133.683 91.466 133.782C91.1844 133.877 90.846 133.924 90.4508 133.924Z" fill="white"/>
<path d="M99.9572 132.09C99.9572 131.921 99.9151 131.773 99.8311 131.645C99.747 131.517 99.6083 131.394 99.4149 131.274C99.2257 131.155 98.9693 131.027 98.6456 130.891C98.3303 130.764 98.0466 130.638 97.7943 130.515C97.5463 130.387 97.3361 130.249 97.1638 130.101C96.9914 129.952 96.859 129.782 96.7665 129.588C96.6783 129.39 96.6341 129.158 96.6341 128.89C96.6341 128.622 96.6846 128.375 96.7855 128.149C96.8905 127.918 97.0377 127.716 97.2268 127.543C97.416 127.371 97.643 127.237 97.9079 127.142C98.1727 127.043 98.469 126.994 98.7969 126.994C99.2636 126.994 99.6608 127.082 99.9887 127.259C100.317 127.436 100.567 127.679 100.739 127.988C100.916 128.293 101.004 128.637 101.004 129.02H99.8941C99.8941 128.834 99.8521 128.659 99.768 128.495C99.6839 128.33 99.5599 128.196 99.396 128.093C99.232 127.986 99.0324 127.933 98.7969 127.933C98.5489 127.933 98.3471 127.976 98.1916 128.062C98.0361 128.149 97.9226 128.262 97.8511 128.402C97.7838 128.538 97.7502 128.688 97.7502 128.853C97.7502 128.977 97.767 129.084 97.8007 129.174C97.8385 129.261 97.9015 129.343 97.9898 129.421C98.0781 129.495 98.1979 129.574 98.3492 129.656C98.5048 129.734 98.7024 129.825 98.942 129.928C99.4044 130.105 99.7932 130.284 100.109 130.465C100.424 130.646 100.663 130.858 100.827 131.101C100.991 131.344 101.073 131.645 101.073 132.003C101.073 132.296 101.019 132.561 100.909 132.8C100.804 133.035 100.653 133.237 100.455 133.405C100.258 133.574 100.02 133.704 99.7428 133.795C99.4695 133.881 99.1627 133.924 98.8222 133.924C98.3093 133.924 97.8742 133.825 97.5169 133.628C97.1638 133.426 96.8948 133.164 96.7098 132.843C96.529 132.518 96.4386 132.17 96.4386 131.799H97.5547C97.5673 132.112 97.6388 132.355 97.7691 132.528C97.9036 132.701 98.0655 132.821 98.2547 132.886C98.4438 132.952 98.633 132.985 98.8222 132.985C99.0702 132.985 99.2783 132.95 99.4464 132.88C99.6146 132.806 99.7407 132.701 99.8248 132.565C99.913 132.429 99.9572 132.271 99.9572 132.09Z" fill="white"/>
<path d="M106.317 127.117V133.801H105.207V127.117H106.317ZM105.144 125.344C105.144 125.159 105.197 125.003 105.302 124.875C105.407 124.747 105.565 124.684 105.775 124.684C105.985 124.684 106.143 124.747 106.248 124.875C106.357 125.003 106.412 125.159 106.412 125.344C106.412 125.522 106.357 125.674 106.248 125.802C106.143 125.925 105.985 125.987 105.775 125.987C105.565 125.987 105.407 125.925 105.302 125.802C105.197 125.674 105.144 125.522 105.144 125.344Z" fill="white"/>
<g clip-path="url(#clip0_645_474)">
<path d="M37.0089 1.75555L36.5488 3.07177L36.3062 3.7281L36.1778 4.05269L36.11 4.21321L36.0744 4.29525L36.0565 4.33449L36.0458 4.35589L36.0387 4.36659L36.0315 4.38086C36.0137 4.41296 35.9638 4.43793 35.9352 4.43436L36.0351 4.37729C35.6535 5.07999 35.1612 5.72204 34.5941 6.28919C34.0269 6.85991 33.3813 7.34859 32.7036 7.77663L32.6893 7.78733L32.6536 7.8016C31.7369 8.14403 30.8273 8.51143 29.9035 8.83245C28.9761 9.13922 28.0486 9.45311 27.1212 9.77057L27.3103 9.62076L18.9671 23.0719L19.017 22.8471C19.0135 22.8115 19.017 22.8471 19.0206 22.8471C19.0206 22.8543 19.0313 22.8578 19.0349 22.865C19.0456 22.8757 19.0634 22.8828 19.0991 22.8935C19.174 22.9113 19.3131 22.9006 19.4522 22.865C19.7483 22.7829 20.0193 22.6581 20.2476 22.4583C20.7185 22.0624 21.0181 21.4632 21.2535 20.8211C21.307 20.6677 21.4105 20.4501 21.5032 20.286C21.6031 20.1255 21.703 19.9579 21.81 19.8152C22.0204 19.512 22.2487 19.2302 22.477 18.952C22.9371 18.3955 23.4151 17.8676 23.9038 17.3433C24.3925 16.8225 24.8883 16.3124 25.3912 15.8059C25.6481 15.5527 25.8835 15.303 26.1653 15.0533L26.975 14.3613L30.2174 11.5933L30.3244 11.5041H30.4492C30.6311 11.5148 30.7453 11.5541 30.888 11.6325C30.9593 11.6753 31.0092 11.7146 31.0806 11.7931C31.1412 11.868 31.1697 11.925 31.2018 11.9892C31.2304 12.0534 31.2518 12.1212 31.2661 12.1854C31.2732 12.2175 31.2768 12.2532 31.2803 12.2853C31.2803 12.3174 31.2875 12.3459 31.2803 12.4208C31.2411 12.6563 31.1662 12.724 31.1091 12.8275C30.8666 13.1663 30.6097 13.4089 30.3458 13.6657C29.8214 14.1615 29.2792 14.6217 28.7299 15.0711L28.3162 15.4064C28.2413 15.467 28.1842 15.5099 28.1164 15.5705L27.9167 15.7417L27.1177 16.4301L25.5161 17.807L25.6052 17.6893C25.5232 17.8569 25.5553 18.0781 25.6873 18.2101C25.8121 18.3456 26.0297 18.392 26.2009 18.3171L26.1189 18.3634L31.0449 14.5824L31.1055 14.5361L31.1804 14.5182C32.4931 14.2115 33.7843 13.7977 35.0221 13.2698C35.3289 13.1378 35.632 13.0023 35.896 12.8382C36.16 12.6741 36.4025 12.4743 36.6272 12.2496C37.0838 11.8145 37.4583 11.283 37.7223 10.6873C38.2359 9.42101 38.8673 8.17256 39.5807 6.99902C40.2941 5.81835 41.1145 4.70902 42.0098 3.67459C41.2001 4.78036 40.4831 5.94676 39.8554 7.1524C39.2276 8.36518 38.7032 9.60649 38.2752 10.912C38.0255 11.5862 37.6545 12.2318 37.1409 12.7633C36.8841 13.0272 36.588 13.2555 36.267 13.4481C35.9459 13.6372 35.6213 13.787 35.3003 13.9225C34.0198 14.4719 32.6929 14.8963 31.341 15.2102L31.4765 15.146L26.5505 18.927L26.5148 18.9556L26.4685 18.9734C26.0333 19.1589 25.4911 19.0519 25.1629 18.6987C24.8276 18.3563 24.7456 17.807 24.9561 17.3825L24.9917 17.3112L25.0488 17.2648L26.6575 15.8844C27.189 15.4278 27.7347 14.9498 28.2805 14.5218C28.8227 14.0795 29.3577 13.6265 29.8571 13.1521C30.1032 12.9167 30.3529 12.667 30.5206 12.4315C30.5562 12.3852 30.5848 12.2996 30.5705 12.3602C30.5705 12.3923 30.5705 12.3745 30.5705 12.3638V12.3352C30.5634 12.3174 30.5562 12.296 30.5491 12.2817C30.5241 12.2354 30.542 12.2639 30.5206 12.2461C30.5134 12.2354 30.4492 12.2247 30.4564 12.2247L30.6846 12.1391L27.4529 14.8963L26.6468 15.5848C26.4007 15.8023 26.1439 16.0699 25.8977 16.3124C25.3984 16.8118 24.9097 17.3183 24.4281 17.832C23.9466 18.3456 23.4758 18.87 23.0299 19.4086C22.8087 19.6761 22.5911 19.9508 22.395 20.229C22.2915 20.3681 22.2095 20.5072 22.1203 20.6463C22.0418 20.7926 21.9848 20.8924 21.9206 21.0744C21.6673 21.7521 21.3284 22.4762 20.7042 23.0077C20.3974 23.2752 20.0122 23.4607 19.6234 23.5605C19.4201 23.6105 19.1989 23.6497 18.9243 23.5926C18.7887 23.5605 18.6425 23.4928 18.5248 23.3751C18.4677 23.318 18.4178 23.2502 18.3821 23.1789C18.3429 23.1004 18.3215 23.0505 18.3001 22.9256L18.2822 22.8115L18.35 22.7009L26.6932 9.24979L26.761 9.14278L26.8822 9.10355C27.8096 8.78965 28.7335 8.47219 29.6573 8.14759C30.5848 7.83727 31.53 7.57331 32.4646 7.28438L32.4146 7.30578C33.7665 6.58525 35.0007 5.5865 35.8318 4.27028L35.9317 4.21321C35.9031 4.20964 35.8568 4.23104 35.8389 4.25958C35.8282 4.27385 35.8389 4.25958 35.8389 4.26315V4.25601L35.8532 4.23818L35.8746 4.20251L35.9138 4.1276L35.9923 3.97422L36.1457 3.66389L36.4418 3.0361L37.0089 1.76269V1.75555Z" fill="white"/>
<path d="M56.4668 42.0019C56.0637 41.5097 55.6642 41.0138 55.2754 40.5109C55.0828 40.2576 54.8866 40.008 54.7082 39.7333C54.5406 39.4444 54.4015 39.1626 54.2731 38.8594C53.7666 37.6644 53.5632 36.3518 53.5597 35.0534V35.0356L53.5668 34.9999C53.763 34.0404 53.9306 33.0737 54.1518 32.1214C54.3836 31.1725 54.6048 30.2166 54.8295 29.2642L54.8581 29.5032L47.8632 15.303L48.0273 15.4671C48.0594 15.4814 48.0273 15.4671 48.0273 15.4707C48.0201 15.4707 48.013 15.4707 48.0059 15.4707C47.9916 15.4707 47.9738 15.4849 47.9452 15.5099C47.8882 15.5634 47.824 15.6882 47.7812 15.8238C47.692 16.1163 47.6563 16.4159 47.7062 16.7155C47.7919 17.3219 48.1414 17.8962 48.5623 18.4384C48.6658 18.5632 48.7942 18.7666 48.8834 18.9306C48.969 19.1019 49.0546 19.2731 49.1223 19.4407C49.2686 19.7796 49.3863 20.122 49.5004 20.4644C49.7287 21.1493 49.9249 21.8342 50.1104 22.5262C50.2923 23.2146 50.4671 23.9066 50.6276 24.6021C50.7061 24.9553 50.7917 25.2834 50.8559 25.658L51.0128 26.7138L51.6442 30.93L51.6656 31.0691L51.5978 31.1725C51.4944 31.3223 51.4052 31.3973 51.259 31.4793C51.1841 31.515 51.1234 31.5399 51.02 31.5578C50.9272 31.5685 50.863 31.5649 50.7881 31.5578C50.7168 31.5471 50.6526 31.5292 50.5884 31.5078C50.5563 31.4971 50.5242 31.4829 50.4956 31.4686C50.4671 31.4543 50.4421 31.4436 50.3815 31.3973C50.2031 31.2403 50.1853 31.1404 50.1282 31.037C49.9677 30.6518 49.8999 30.3058 49.8215 29.9491C49.6788 29.2428 49.5753 28.5401 49.4862 27.8338L49.422 27.3059C49.4113 27.2096 49.4041 27.1383 49.3899 27.0491L49.3506 26.7887L49.1901 25.7471L48.8727 23.6605L48.9262 23.7996C48.8263 23.6391 48.623 23.5535 48.4446 23.5927C48.2627 23.6284 48.1093 23.7889 48.0808 23.9744V23.8816L48.6836 30.0596L48.6907 30.1345L48.6658 30.2059C48.227 31.4936 47.8917 32.8205 47.6884 34.1617C47.6385 34.497 47.5957 34.8251 47.5992 35.139C47.5992 35.4529 47.6492 35.7704 47.7241 36.0771C47.8596 36.6978 48.1271 37.3006 48.4981 37.8392C49.3114 38.9628 50.0355 40.1685 50.6561 41.4098C51.2804 42.6511 51.7869 43.9495 52.1899 45.2728C51.6799 43.9887 51.0735 42.7474 50.3779 41.5632C49.6788 40.3789 48.8976 39.2553 48.0166 38.1995C47.5707 37.6323 47.1997 36.976 47.0142 36.2519C46.9251 35.8917 46.8787 35.5171 46.8823 35.139C46.8823 34.7609 46.9322 34.4042 46.9821 34.0547C47.1926 32.6671 47.5386 31.3009 47.9916 29.9776L47.9738 30.1274L47.3745 23.9494V23.903V23.8531C47.4459 23.3858 47.824 22.9827 48.2984 22.89C48.7692 22.7866 49.2757 23.0077 49.5254 23.4108L49.5682 23.4785L49.5789 23.5499L49.8999 25.6473C50.0034 26.3393 50.1247 27.0562 50.196 27.7447C50.2852 28.4367 50.3851 29.1322 50.5242 29.8064C50.5919 30.1381 50.674 30.4841 50.7846 30.7516C50.8024 30.8051 50.863 30.8729 50.8167 30.8301C50.7881 30.8123 50.8024 30.823 50.8131 30.8301L50.8416 30.8408C50.8595 30.8479 50.8773 30.8515 50.8951 30.8551C50.9486 30.8551 50.913 30.8586 50.9415 30.8515C50.9558 30.8515 50.9986 30.8051 50.995 30.8087L50.9451 31.0477L50.3173 26.8493L50.1603 25.8007C50.1068 25.4761 50.0141 25.1194 49.9392 24.7805C49.7787 24.0921 49.6075 23.4072 49.4255 22.7259C49.2436 22.0446 49.0474 21.3705 48.8298 20.707C48.7193 20.3753 48.6051 20.0471 48.4696 19.7368C48.4089 19.5763 48.3305 19.4336 48.2591 19.2838C48.1771 19.1411 48.12 19.0376 47.9987 18.8878C47.5564 18.3171 47.1213 17.643 47.0035 16.8333C46.9393 16.4302 46.9857 16.0057 47.107 15.624C47.1748 15.4279 47.2568 15.2138 47.4494 15.0141C47.5493 14.9178 47.6813 14.8286 47.8454 14.7894C47.9238 14.7715 48.0059 14.7644 48.0879 14.7715C48.1735 14.7822 48.2306 14.7894 48.3447 14.8357L48.4517 14.8821L48.5088 14.9998L55.5037 29.2L55.5607 29.3141L55.5322 29.439C55.3111 30.3914 55.0863 31.3438 54.8723 32.2997C54.6512 33.2521 54.3729 34.1938 54.1233 35.139L54.1304 35.0855C54.0483 36.3233 54.1554 37.586 54.562 38.7666C54.6619 39.0591 54.7831 39.3552 54.9187 39.6263C55.0721 39.8938 55.2433 40.1649 55.4145 40.4324C55.7605 40.9639 56.1172 41.4918 56.4775 42.0162L56.4668 42.0019Z" fill="white"/>
<path d="M12.8674 37.9605C13.4239 37.8963 13.9767 37.832 14.5368 37.7928C15.111 37.7571 15.6711 37.8392 16.2275 37.9569C17.3404 38.1994 18.3962 38.6739 19.3629 39.2731L19.3772 39.2802L19.4021 39.3016L21.5459 41.3099C21.9026 41.6452 22.245 41.9947 22.5839 42.3443L23.6183 43.3858L23.4007 43.2824L39.1525 44.8697L38.9278 44.9232C38.9349 44.9161 38.9349 44.9089 38.9385 44.9054C38.9421 44.8947 38.9421 44.8733 38.9385 44.834C38.9207 44.7591 38.8529 44.6379 38.7566 44.5308C38.5533 44.3026 38.3214 44.1135 38.0396 43.9958C37.4796 43.7461 36.8055 43.739 36.1242 43.8103C35.9636 43.8317 35.7211 43.8317 35.5356 43.821C35.3466 43.8032 35.1539 43.7853 34.9756 43.7532C34.6082 43.6962 34.2586 43.6177 33.9055 43.5321C33.2064 43.3644 32.5179 43.1647 31.8331 42.9578C31.1518 42.7474 30.4741 42.5262 29.7999 42.2979C29.461 42.1766 29.1329 42.0768 28.7833 41.9305L27.806 41.506L23.893 39.8082L23.7646 39.7511L23.7146 39.6369C23.6397 39.4693 23.6254 39.3516 23.6326 39.1875C23.6397 39.1055 23.654 39.0413 23.6932 38.9449C23.7325 38.8593 23.7717 38.8058 23.8181 38.7523C23.8644 38.6988 23.9144 38.6525 23.9679 38.6097C23.9964 38.5882 24.0214 38.5704 24.0499 38.5526C24.0784 38.5383 24.0999 38.5205 24.1712 38.4919C24.3995 38.4242 24.4922 38.4598 24.6099 38.467C25.0237 38.5383 25.3519 38.6596 25.6979 38.7844C26.3756 39.0377 27.0248 39.323 27.6704 39.6191L28.1519 39.8438C28.2376 39.8831 28.3053 39.9187 28.3874 39.9508L28.6299 40.0543L29.6001 40.4716L31.5406 41.3063L31.3943 41.2778C31.5834 41.2778 31.7653 41.1493 31.8259 40.9781C31.8937 40.8069 31.8366 40.5929 31.694 40.4681L31.7724 40.5216L26.2115 37.7571L26.1437 37.7215L26.0938 37.6608C25.2342 36.605 24.2889 35.6205 23.258 34.7359C23.0012 34.5148 22.7444 34.3079 22.4769 34.1402C22.2093 33.9761 21.9169 33.8513 21.6137 33.7478C21.0108 33.541 20.3652 33.4447 19.7089 33.4768C18.3249 33.5695 16.9195 33.5445 15.5355 33.4126C14.1515 33.2841 12.7818 33.0273 11.4478 32.6671C12.8068 32.9167 14.1836 33.0559 15.5534 33.0951C16.9302 33.1308 18.2928 33.0594 19.6554 32.8739C20.3759 32.7955 21.1286 32.824 21.8384 33.0594C22.5482 33.2806 23.1974 33.7371 23.7182 34.1973C24.7847 35.1104 25.7585 36.127 26.6431 37.2114L26.5254 37.1187L32.0863 39.8831L32.1256 39.9045L32.1612 39.9366C32.5215 40.2469 32.6606 40.7819 32.4894 41.2278C32.3289 41.6808 31.8723 41.9947 31.3979 41.9947H31.3194L31.2517 41.9662L29.3041 41.1279C28.662 40.8497 27.9914 40.5715 27.3672 40.2683C26.7323 39.9758 26.0902 39.694 25.4446 39.455C25.1271 39.3373 24.7883 39.2232 24.5029 39.1768C24.4458 39.1625 24.3567 39.1768 24.4173 39.1625C24.4316 39.1554 24.4459 39.1483 24.4173 39.1625L24.3923 39.1804C24.3923 39.1804 24.3638 39.2053 24.3531 39.2196C24.3246 39.2624 24.3388 39.2339 24.3317 39.2588C24.3246 39.2695 24.3424 39.3302 24.3388 39.3266L24.1605 39.159L28.0556 40.8497L29.0294 41.2742C29.3326 41.4026 29.6858 41.5096 30.0139 41.6273C30.6809 41.8556 31.3515 42.0732 32.0257 42.2801C32.6999 42.487 33.3776 42.6796 34.0553 42.8437C34.3942 42.9257 34.733 43.0006 35.0683 43.0541C35.2395 43.0862 35.4001 43.0969 35.5641 43.1148C35.7318 43.1183 35.8459 43.1255 36.0386 43.1041C36.7555 43.0327 37.5581 43.0184 38.3107 43.3466C38.6853 43.5036 39.0206 43.7711 39.2845 44.0743C39.4165 44.2348 39.552 44.4167 39.6198 44.6878C39.6483 44.8233 39.6555 44.9839 39.602 45.1408C39.5734 45.2193 39.5378 45.2906 39.4878 45.3548C39.4343 45.4226 39.3987 45.4654 39.2952 45.5367L39.1989 45.6009L39.0705 45.5867L23.3187 43.9994L23.1938 43.9851L23.1047 43.8959L22.0667 42.8579C21.7171 42.5155 21.3675 42.1731 21.0358 41.8128L19.0383 39.6619L19.0775 39.694C18.1894 39.0555 17.212 38.5312 16.1562 38.2209C15.8922 38.1424 15.6247 38.0782 15.3536 38.0318C15.0789 37.9819 14.815 37.9355 14.5368 37.9391C13.9803 37.9319 13.4203 37.9462 12.8638 37.964L12.8674 37.9605Z" fill="white"/>
<path d="M58.5144 18.6345C58.9638 19.8794 59.3241 21.1528 59.5773 22.4512C59.6344 22.7508 59.6879 23.0505 59.7343 23.3537C59.7949 23.7496 59.7985 23.771 59.8448 24.1883C59.9162 24.8268 59.9626 25.4689 59.9804 26.1109C60.0232 27.3629 59.9697 28.6185 59.8234 29.8634C59.8127 29.9419 59.8056 30.0203 59.7949 30.0988C59.7699 30.2986 59.8163 29.9454 59.7878 30.1416C59.7699 30.2772 59.7485 30.4163 59.7271 30.5518C59.6736 30.8836 59.6166 31.2117 59.5524 31.5435C59.4311 32.1605 59.2848 32.7741 59.1172 33.384C58.9495 33.994 58.7605 34.5897 58.55 35.1818C58.4502 35.46 58.3467 35.7347 58.2397 36.0093C58.1826 36.1556 58.122 36.3018 58.0613 36.4445C58.1256 36.2947 57.9686 36.6549 57.9472 36.7084C57.4371 37.857 56.845 38.9699 56.1744 40.0293C55.8391 40.5608 55.4824 41.0816 55.1079 41.5881C54.794 42.0161 54.4658 42.4228 54.0307 42.9221C53.1996 43.8817 52.2935 44.777 51.3304 45.6009C50.8097 46.0432 50.5065 46.2822 50.0071 46.6425C49.4827 47.0206 48.9477 47.3809 48.3948 47.7162C47.8419 48.0515 47.2677 48.3761 46.6862 48.6721C46.1512 48.9432 45.4556 49.2642 45.049 49.4319C43.8362 49.9277 42.5878 50.3272 41.3144 50.6268C39.9696 50.9443 38.9566 51.0977 37.6582 51.1904C36.3598 51.2831 35.1042 51.276 33.8344 51.1726C32.6323 51.0763 31.63 50.9193 30.3423 50.6126C29.0546 50.3058 27.9168 49.9455 26.7468 49.4783C26.3829 49.3356 26.4365 49.357 26.1012 49.2072C25.7944 49.0716 25.4948 48.9325 25.1951 48.7827C24.6494 48.5152 24.1108 48.2262 23.5864 47.923C21.3749 46.6354 19.5985 45.2157 17.8436 43.3074C17.412 42.8365 16.9982 42.3514 16.6023 41.852C16.5916 41.8378 16.4703 41.6808 16.563 41.8021C16.5274 41.7557 16.4917 41.7058 16.4525 41.6594C16.3562 41.531 16.2598 41.4026 16.1671 41.2706C15.9674 40.9924 15.7712 40.7106 15.5821 40.4252C14.8723 39.3551 14.2445 38.228 13.7059 37.0616C13.4312 36.4695 13.26 36.0486 13.0175 35.3744C12.7892 34.7502 12.5894 34.1152 12.4111 33.4732C12.2327 32.8311 12.0972 32.239 11.9759 31.6148C11.9153 31.2938 11.8582 30.9763 11.8082 30.6517C11.7512 30.2772 11.7547 30.3021 11.7048 29.8777C11.5657 28.6043 11.5229 27.3201 11.5764 26.0432C11.6335 24.6806 11.7476 23.746 12.0044 22.4655C12.9782 17.6001 15.3182 13.2163 18.8067 9.75631C19.2597 9.30687 19.727 8.87883 20.2121 8.46506C20.4404 8.27244 20.6722 8.07982 20.9076 7.89434C21.061 7.77306 21.3143 7.58044 21.5854 7.38783C22.6376 6.62806 23.7505 5.9539 24.9098 5.36535C26.0691 4.77679 27.0785 4.36302 28.3769 3.94925C29.6753 3.53548 30.9095 3.25012 32.2078 3.05394C32.5146 3.00757 32.5396 3.004 32.9212 2.9612C33.2423 2.92553 33.5633 2.89699 33.8843 2.87559C34.5228 2.82922 35.1613 2.80782 35.8034 2.81138C36.4454 2.81495 37.0768 2.84349 37.7081 2.89342C38.0256 2.91839 38.3395 2.9505 38.6534 2.98617C38.714 2.9933 38.7711 3.00043 38.8317 3.00757C39.0315 3.03254 38.6784 2.98617 38.8745 3.0147C39.0493 3.03967 39.2277 3.06464 39.4024 3.09318C40.6473 3.29293 41.8744 3.58899 43.0764 3.96709C43.6757 4.15614 44.2678 4.37016 44.8492 4.60201C45.1667 4.73042 45.156 4.72329 45.4949 4.87667C45.7802 5.00508 46.0656 5.13706 46.3474 5.27617C47.4745 5.82905 48.5625 6.46398 49.6005 7.17737C50.6385 7.89077 51.4018 8.50786 52.3613 9.40317C53.3208 10.2985 54.1519 11.2116 54.9402 12.2104C55.0865 12.3923 55.0116 12.2996 54.9795 12.2603C55.0294 12.3245 55.0758 12.3887 55.1257 12.4529C55.222 12.5814 55.3183 12.7098 55.4111 12.8417C55.6001 13.1021 55.782 13.3697 55.9604 13.6372C56.3207 14.1794 56.656 14.7323 56.9734 15.2994C57.6119 16.4444 58.0828 17.486 58.5037 18.6274C58.7212 19.216 59.2884 19.6119 59.9305 19.4371C60.4976 19.2802 60.9577 18.6024 60.7402 18.0103C58.8283 12.8168 55.379 8.35805 50.8204 5.21197C46.4508 2.1943 41.136 0.528514 35.8141 0.499978C30.3066 0.471442 24.7849 2.21926 20.3262 5.46165C15.8675 8.70404 12.6215 13.1093 10.7881 18.2172C8.96536 23.3001 8.75491 28.9467 10.1995 34.1509C11.6442 39.3551 14.7938 44.2027 19.0706 47.6163C23.3046 50.9942 28.4375 53.0488 33.8379 53.4875C39.324 53.9334 44.9384 52.5673 49.6219 49.6851C54.3053 46.803 57.8545 42.6689 59.9982 37.7678C62.1919 32.7562 62.8554 27.2131 61.8067 21.8341C61.5534 20.5357 61.1932 19.2588 60.7437 18.0174C60.5297 17.4289 59.9554 17.033 59.3169 17.2077C58.7498 17.3647 58.2932 18.0424 58.5072 18.6345H58.5144Z" fill="white"/>
<path d="M35.9246 30.7944C37.9104 30.7944 39.5201 29.1847 39.5201 27.1989C39.5201 25.2132 37.9104 23.6034 35.9246 23.6034C33.9389 23.6034 32.3291 25.2132 32.3291 27.1989C32.3291 29.1847 33.9389 30.7944 35.9246 30.7944Z" stroke="white" stroke-width="3" stroke-miterlimit="10"/>
<path d="M39.5166 26.9778H43.0337" stroke="white" stroke-width="3" stroke-miterlimit="10"/>
<path d="M28.8762 26.9778H32.3005" stroke="white" stroke-width="3" stroke-miterlimit="10"/>
<path d="M33.0389 29.8811L30.9272 31.9928" stroke="white" stroke-width="3" stroke-miterlimit="10"/>
<path d="M40.9398 21.9841L38.582 24.3383" stroke="white" stroke-width="3" stroke-miterlimit="10"/>
<path d="M38.6462 29.6992L41.1182 32.1711" stroke="white" stroke-width="3" stroke-miterlimit="10"/>
<path d="M31.1055 22.1625L33.4953 24.5488" stroke="white" stroke-width="3" stroke-miterlimit="10"/>
<path d="M35.9709 31.2152V34.3042" stroke="white" stroke-width="3" stroke-miterlimit="10"/>
<path d="M35.9709 20.1504V23.6032" stroke="white" stroke-width="3" stroke-miterlimit="10"/>
<path d="M20.8969 89.9814L16.9447 91.13L14.5727 82.9116H6.73598L4.3675 91.13L0.415283 89.9814L8.79057 60.9604H12.5216L20.9005 89.9814H20.8969ZM13.3884 78.7953L10.6561 69.3214L7.92379 78.7953H13.3884Z" fill="white"/>
<path d="M33.9414 75.2283H28.4126V71.112H33.9414V70.7018C33.9414 69.3499 34.2054 68.0373 34.7297 66.8031C35.2327 65.6117 35.9568 64.5381 36.8771 63.6214C37.7973 62.7011 38.8674 61.9805 40.0588 61.474C41.293 60.9497 42.6056 60.6857 43.9575 60.6857C45.3094 60.6857 46.6221 60.9497 47.8562 61.474L46.2511 65.2657C45.5234 64.959 44.753 64.802 43.9575 64.802C43.1621 64.802 42.3916 64.959 41.664 65.2657C40.9613 65.5618 40.3299 65.9898 39.7877 66.532C39.2455 67.0742 38.8175 67.7056 38.5214 68.4083C38.2147 69.1359 38.0577 69.9064 38.0577 70.7018V71.112H48.4412V75.2283H38.0577V90.5913H33.9414V75.2283Z" fill="white"/>
<path d="M57.134 71.0443C56.6988 71.5401 56.4598 72.0894 56.2244 72.7921C56.1959 72.8206 56.1745 72.8491 56.1531 72.8812V75.1748H58.6107C58.5858 75.0856 58.5715 74.9929 58.5608 74.8966C58.5251 74.7396 58.5037 74.5791 58.5073 74.4186C58.4859 74.2724 58.4788 74.1226 58.493 73.9727C58.4823 73.8087 58.4895 73.6446 58.5144 73.4805C58.4966 73.2736 58.5109 73.0632 58.5537 72.8634C58.5608 72.7314 58.5786 72.5959 58.6143 72.4675C58.6286 72.2142 58.6856 71.961 58.7926 71.7327C58.8461 71.4973 58.9425 71.2725 59.0816 71.0764C59.0816 71.0657 59.0887 71.055 59.0923 71.0443H57.1304H57.134Z" fill="white"/>
<path opacity="0.99" d="M65.9622 70.7553V70.3451C65.9622 69.5497 66.1191 68.7792 66.4259 68.0516C66.7219 67.3489 67.15 66.7175 67.6921 66.1753C68.2343 65.6331 68.8657 65.2051 69.5684 64.9091C70.296 64.6023 71.0665 64.4453 71.8619 64.4453C72.6574 64.4453 73.4279 64.6023 74.1555 64.9091L75.7607 61.1173C74.5265 60.593 73.2138 60.329 71.8619 60.329C70.5101 60.329 69.1974 60.593 67.9632 61.1173C66.7719 61.6203 65.6982 62.3444 64.7815 63.2647C63.8612 64.185 63.1407 65.2551 62.6342 66.4464C62.495 66.7746 62.3845 67.1099 62.2846 67.4487C63.2798 67.117 64.275 66.8067 65.2737 66.8067H67.0501C66.8789 66.9494 66.7148 67.1027 66.5614 67.2633C65.4164 68.4618 64.7743 70.1097 64.5568 71.7434C64.5532 71.7826 64.5532 71.8254 64.5461 71.8647C64.5461 71.8968 64.5461 71.9324 64.5461 71.9646C64.5532 72.0787 64.5532 72.1928 64.5461 72.3034C64.5461 72.4069 64.5461 72.5139 64.5282 72.6173C64.5282 72.6886 64.5211 72.76 64.514 72.8313C64.514 72.9027 64.514 72.974 64.5104 73.0453C64.514 73.1809 64.5104 73.3164 64.489 73.4484V73.4555C64.5033 73.7302 64.5247 74.0049 64.5639 74.2653C64.5247 74.0013 64.5033 73.7302 64.489 73.4555C64.4961 73.7266 64.4498 74.0013 64.3463 74.251C64.275 74.6255 64.1073 74.9751 63.8255 75.2319C63.6935 75.396 63.533 75.5422 63.3333 75.6457C63.2013 75.7491 63.0515 75.8312 62.8803 75.8882C62.6912 76.0095 62.4701 76.0987 62.2097 76.1308C62.0991 76.1879 61.9778 76.2342 61.8423 76.2663V90.2239H65.9586V74.8609H76.3421V70.7446H65.9586L65.9622 70.7553Z" fill="white"/>
<path d="M83.5117 80.8535C83.5117 75.3318 88.0026 70.8374 93.5243 70.8374C95.6644 70.8374 97.7262 71.5223 99.424 72.76V71.1121H103.54V90.5914H99.424V88.9434C97.7262 90.1812 95.6644 90.866 93.5243 90.866C88.0026 90.866 83.5117 86.3752 83.5117 80.8499V80.8535ZM93.5243 86.7533C96.7773 86.7533 99.424 84.1066 99.424 80.8535C99.424 77.6004 96.7773 74.9537 93.5243 74.9537C90.2712 74.9537 87.6245 77.6004 87.6245 80.8535C87.6245 84.1066 90.2712 86.7533 93.5243 86.7533Z" fill="white"/>
<path d="M116.788 90.5914H112.672V71.1121H116.788V71.9967C118.062 71.2405 119.52 70.8374 121.04 70.8374C125.656 70.8374 129.408 74.5899 129.408 79.2055V90.5914H125.292V79.2055C125.292 76.862 123.384 74.9537 121.04 74.9537C118.697 74.9537 116.788 76.862 116.788 79.2055V90.5914Z" fill="white"/>
<path d="M48.1094 87.9518C48.3662 88.1836 48.6373 88.4012 48.9191 88.5974C49.1937 88.8043 49.4826 88.9862 49.7751 89.1646C50.3637 89.507 50.9844 89.7817 51.6264 89.9778C52.8963 90.3987 54.241 90.4844 55.5394 90.2561C56.185 90.1348 56.8164 89.96 57.4049 89.7103C57.9935 89.4571 58.5428 89.1253 59.0172 88.7151C59.966 87.9019 60.6473 86.7854 60.9755 85.5476C61.3215 84.317 61.3821 82.9865 61.1503 81.7096C61.054 81.0675 60.8649 80.4433 60.6116 79.8547C60.3655 79.2626 60.0195 78.724 59.6058 78.2674C59.1991 77.7966 58.6605 77.497 58.0327 77.1795C57.7224 77.019 57.3871 76.8406 57.0839 76.6016C56.7771 76.3662 56.5025 76.0702 56.3063 75.7456C55.9068 75.0892 55.7427 74.3366 55.7427 73.6161C55.7356 72.892 55.8925 72.1929 56.1208 71.533L56.1886 71.5508C56.0245 72.2214 55.9282 72.9134 55.9746 73.6018C56.0174 74.2867 56.2207 74.968 56.6131 75.5316C57.38 76.7443 59.0279 76.8085 59.9946 77.8715C60.4904 78.3637 60.897 78.9523 61.1788 79.5908C61.4713 80.2257 61.6889 80.8963 61.8102 81.5847C62.0812 82.958 62.0242 84.3884 61.6639 85.7403C61.2929 87.0886 60.526 88.3406 59.4452 89.2323C58.3573 90.1277 56.9947 90.6306 55.6143 90.8054C54.2303 90.9837 52.7999 90.8339 51.4944 90.3274C50.1925 89.8245 49.0118 89.0183 48.063 87.9982L48.1165 87.9518H48.1094Z" fill="white"/>
<path d="M61.4286 82.7654C61.4144 82.7832 61.4037 82.8046 61.3894 82.8189C61.3252 82.8867 61.2218 82.9223 61.236 82.9188L61.1647 82.9473L61.0184 83.0008C60.9221 83.0329 60.8258 83.0615 60.7295 83.09C60.5369 83.1435 60.3371 83.1827 60.141 83.2148C59.745 83.2755 59.3384 83.2897 58.9353 83.2469C58.1292 83.1685 57.3444 82.8367 56.7309 82.316C56.1174 81.7952 55.668 81.1032 55.4218 80.3541C55.1757 79.6015 55.1365 78.7953 55.2827 78.0284L55.3041 77.9143L55.4111 77.8929C56.1031 77.7466 56.8165 77.6289 57.5442 77.7288C57.9009 77.7787 58.2683 77.8929 58.5643 78.1283C58.7106 78.2425 58.8354 78.3887 58.9353 78.5457C59.0316 78.7062 59.0923 78.881 59.1422 79.0522C59.2385 79.3982 59.292 79.7406 59.3919 80.0688C59.4882 80.4005 59.6202 80.7215 59.7914 81.0211C60.1303 81.6275 60.6082 82.1519 61.1683 82.5692L61.4393 82.7725L61.4286 82.7654ZM60.8651 82.3374C60.412 81.9807 60.0125 81.5526 59.7094 81.0568C59.5239 80.7572 59.3741 80.4362 59.2599 80.1009C59.1422 79.7656 59.0744 79.4196 58.9674 79.095C58.8675 78.7668 58.6928 78.4814 58.4252 78.2924C58.1613 78.1033 57.8331 78.0106 57.5014 77.9785C56.8308 77.9143 56.1459 78.0498 55.4825 78.2211L55.6109 78.0855C55.5074 78.8025 55.5717 79.5408 55.8249 80.2114C56.0746 80.8785 56.5026 81.4777 57.0555 81.9093C57.612 82.3374 58.2861 82.5906 58.9781 82.6299C59.3241 82.6513 59.6772 82.6227 60.0197 82.5585C60.1909 82.5228 60.3621 82.4836 60.5298 82.4301C60.6118 82.4051 60.6938 82.373 60.7759 82.3445L60.8936 82.2946L60.9507 82.2696C60.9863 82.2553 60.9043 82.2839 60.8615 82.3409C60.8615 82.3409 60.8615 82.3409 60.8615 82.3445L60.8651 82.3374Z" fill="white"/>
<path d="M61.3678 82.6548C60.7615 82.587 60.1729 82.4122 59.6271 82.159C59.0814 81.9057 58.5785 81.5704 58.1219 81.1888C57.2123 80.4183 56.4953 79.4445 55.9817 78.3887C56.5488 79.4195 57.3086 80.3434 58.2325 81.0496C58.6962 81.3992 59.1955 81.6988 59.7306 81.9129C60.2656 82.1269 60.8257 82.2624 61.3928 82.2981L61.3643 82.6548H61.3678Z" fill="white"/>
<path d="M54.5872 88.3727C54.2876 87.6022 53.7382 86.8924 52.9999 86.4108C52.2651 85.9257 51.3484 85.6653 50.4138 85.6939C51.327 85.4905 52.3293 85.5583 53.246 85.9364C54.1663 86.3109 54.9796 86.9958 55.536 87.8804L54.5836 88.3727H54.5872Z" fill="white"/>
<path d="M58.4752 89.8887C57.1768 89.2466 55.8035 88.7544 54.3767 88.551C53.6633 88.4547 52.9428 88.4191 52.2223 88.4797C51.5017 88.5332 50.7955 88.6901 50.0892 88.897C48.6802 89.3037 47.3034 89.9564 45.7945 90.2097C44.2893 90.4879 42.6984 90.0813 41.5142 89.1681C42.7555 90.0064 44.3214 90.2989 45.7446 89.9457C47.1785 89.6211 48.4948 88.897 49.9215 88.387C50.6349 88.1337 51.3804 87.9161 52.1473 87.8162C52.9142 87.7057 53.6918 87.695 54.4623 87.752C56.0068 87.8804 57.5085 88.3192 58.9211 88.9184L58.4716 89.8887H58.4752Z" fill="white"/>
<path d="M56.4027 67.0635C55.2827 67.9767 54.5194 69.3535 54.4516 70.8231C54.4195 71.5543 54.5408 72.2963 54.794 72.9883C55.0509 73.6803 55.4147 74.3402 55.8891 74.918C55.3933 74.3616 55.0009 73.7124 54.712 73.0204C54.4266 72.3284 54.2697 71.5757 54.2733 70.816C54.2804 70.0562 54.4623 69.3 54.794 68.6116C55.1258 67.9232 55.5966 67.3025 56.1709 66.7924L56.4027 67.0635Z" fill="white"/>
<path d="M66.2761 67.7198L66.8148 66.9672L66.8433 67.0528C65.5592 66.8637 64.2394 67.0029 63.0409 67.4095C61.8424 67.8268 60.7865 68.5866 60.0303 69.5853C59.267 70.577 58.8247 71.7862 58.6785 73.0239C58.5393 74.2652 58.7462 75.5315 59.2064 76.6908L58.8889 76.4732C60.0018 76.491 61.1254 76.4411 62.1634 76.145C62.677 75.9952 63.1657 75.7669 63.5474 75.4316C63.9326 75.0999 64.1966 74.654 64.2965 74.1404C64.3999 73.6267 64.3928 73.0525 64.432 72.4782C64.4677 71.9039 64.539 71.3189 64.6995 70.7589C65.0099 69.6389 65.5485 68.5973 66.2761 67.7198C65.6662 68.6793 65.206 69.7316 65.0099 70.8302C64.91 71.3795 64.8636 71.9324 64.8672 72.4924C64.8636 73.0525 64.9064 73.6267 64.8137 74.2331C64.7281 74.8431 64.4142 75.4459 63.954 75.8739C63.4939 76.3056 62.9232 76.5766 62.3596 76.7621C61.2146 77.1295 60.0339 77.183 58.8818 77.1759H58.6535L58.5643 76.9583C58.04 75.6992 57.8331 74.3045 57.9972 72.9455C58.1541 71.5864 58.7034 70.2773 59.5595 69.2108C59.9875 68.6758 60.5119 68.2299 61.079 67.8518C61.6462 67.4737 62.2704 67.1919 62.9196 67.0136C64.218 66.6462 65.5841 66.6569 66.8683 66.9493L66.9574 66.9708L66.8968 67.035L66.2797 67.7162L66.2761 67.7198Z" fill="white"/>
<path d="M55.5109 74.5934C54.826 74.1333 54.1982 73.5697 53.7238 72.8777C53.2387 72.1928 52.9462 71.3617 52.9105 70.5021C52.8856 69.6424 53.1566 68.7721 53.6667 68.0694C54.1732 67.3631 54.9009 66.8281 55.6963 66.4928L55.839 66.4321L55.971 66.532C56.6202 67.0242 57.2551 67.5486 57.7937 68.2156C58.0612 68.5509 58.2931 68.9362 58.4108 69.4034C58.5428 69.8636 58.4251 70.4414 58.1433 70.8302C57.8722 71.219 57.5654 71.4651 57.3193 71.7541C57.0696 72.0359 56.852 72.3319 56.6844 72.6708C56.3384 73.3378 56.185 74.1083 56.1672 74.8966V75.107L56.0138 74.9965C55.839 74.8645 55.6714 74.7289 55.5037 74.5934L55.5465 74.5363C55.7391 74.6255 55.9282 74.7182 56.1137 74.8145L55.9603 74.9144C55.8105 74.1118 55.864 73.2415 56.1743 72.4461C56.3277 72.0466 56.5453 71.6649 56.8128 71.3332C57.0696 70.9979 57.3657 70.7054 57.5476 70.4307C57.7259 70.1596 57.7581 69.885 57.6974 69.5675C57.6332 69.2536 57.4549 68.9326 57.2444 68.6258C56.8164 68.0123 56.2314 67.4773 55.6286 66.9743L55.9032 67.0135C55.1756 67.2846 54.5121 67.7305 54.0341 68.3405C53.5526 68.9469 53.2744 69.7138 53.2601 70.4985C53.2458 71.2832 53.4705 72.0787 53.8986 72.76C54.3159 73.4484 54.8973 74.0405 55.5501 74.5328L55.5073 74.5898L55.5109 74.5934Z" fill="white"/>
<path d="M59.3668 76.8085C60.1266 74.7789 61.1325 72.8456 62.3809 71.0799C63.0087 70.1989 63.6936 69.3642 64.432 68.5795C64.6174 68.3833 64.8029 68.1871 64.9991 68.0016C65.1917 67.8126 65.3808 67.6235 65.5877 67.4487L66.8076 66.3893L65.6198 67.4808C65.4165 67.6592 65.2345 67.8518 65.0455 68.048C64.8564 68.237 64.6781 68.4404 64.4962 68.6401C63.7792 69.4391 63.1229 70.2916 62.5236 71.1798C61.3323 72.9633 60.3941 74.9037 59.6986 76.9262L59.3633 76.8049L59.3668 76.8085Z" fill="white"/>
<path d="M66.0371 66.8031L66.9039 66.9565L67.1678 66.7496L66.0371 66.8031Z" fill="white"/>
</g>
<defs>
<clipPath id="clip0_645_474">
<rect width="129" height="98.7092" fill="white" transform="translate(0.411621 0.5)"/>
</clipPath>
</defs>
</svg>
