<svg width="195" height="230" viewBox="0 0 195 230" fill="none" xmlns="http://www.w3.org/2000/svg">
<mask id="mask0_452_1858" style="mask-type:luminance" maskUnits="userSpaceOnUse" x="0" y="0" width="195" height="230">
<path d="M193.799 132.92C193.799 186.31 150.519 229.59 97.1288 229.59C43.7388 229.59 0.458759 186.31 0.458759 132.92C0.458759 79.53 -12.2512 0.25 96.1288 0.25C204.509 0.25 193.799 79.53 193.799 132.92Z" fill="white"/>
</mask>
<g mask="url(#mask0_452_1858)">
<path d="M97.1288 229.59C150.518 229.59 193.799 186.309 193.799 132.92C193.799 79.5306 150.518 36.25 97.1288 36.25C43.7394 36.25 0.458771 79.5306 0.458771 132.92C0.458771 186.309 43.7394 229.59 97.1288 229.59Z" fill="#E5EBFA"/>
<path d="M156.669 89.44C156.669 89.44 139.709 80 114.809 73.21C89.9088 66.42 65.0188 64.09 65.0188 64.09C65.0188 64.09 91.5588 83.91 109.459 87.61C127.359 91.31 156.669 89.43 156.669 89.43V89.44Z" fill="#8674FC"/>
<path d="M144.149 86.66C143.389 77.94 145.539 69 150.179 61.58C151.959 58.73 154.279 55.98 157.469 54.93C158.409 54.62 159.739 54.66 160.039 55.61C160.119 55.88 160.099 56.16 160.049 56.44C159.639 58.81 157.629 60.52 155.899 62.19C148.669 69.15 144.359 79.05 144.189 89.08" stroke="#5700DD" stroke-width="0.53" stroke-miterlimit="10"/>
<path d="M170.479 59.13C172.889 58.24 175.609 57.59 177.969 58.61C178.439 58.81 178.899 59.09 179.169 59.53C179.469 60.01 179.489 60.62 179.399 61.18C179.039 63.28 177.239 64.82 175.429 65.96C171.009 68.74 165.899 70.26 161.339 72.8C157.549 74.92 154.159 77.76 151.389 81.1C149.999 82.78 148.789 84.58 147.709 86.47C146.519 88.55 145.559 88.38 146.219 85.93C148.309 78.2 152.859 71.18 158.929 65.99C162.349 63.06 166.269 60.71 170.489 59.14L170.479 59.13Z" fill="#2C2D40"/>
<path d="M164.629 73.71C168.499 71.53 173.149 69.8 177.309 71.36C177.969 71.61 178.689 72.05 178.769 72.75C178.809 73.14 178.649 73.52 178.449 73.86C177.229 75.97 174.899 77.15 172.639 78.05C168.059 79.87 163.239 81.01 158.649 82.79C155.179 84.14 146.479 90.69 146.479 90.69C146.479 90.69 153.809 81.68 155.139 80.5C158.049 77.91 161.239 75.63 164.639 73.71H164.629Z" stroke="#5700DD" stroke-width="0.53" stroke-miterlimit="10"/>
<path d="M164.729 84.43C167.039 84.21 169.459 84.24 171.539 85.27C172.369 85.68 173.189 86.35 173.289 87.26C173.329 87.67 173.219 88.09 173.039 88.46C172.329 89.94 170.639 90.73 168.999 90.85C167.369 90.97 165.749 90.55 164.149 90.2C161.639 89.65 159.079 89.3 156.509 89.28C153.849 89.27 151.429 90.03 148.879 90.35C150.029 88.42 154.159 87.12 156.229 86.36C158.969 85.36 161.829 84.7 164.729 84.42V84.43Z" fill="#2C2D40"/>
<path d="M138.839 88.1C134.269 82.14 132.879 73.86 135.269 66.74C137.609 59.76 143.069 54.37 147.529 48.51C151.339 43.5 154.489 38 156.889 32.19C160.889 40.38 160.129 50.86 156.039 59C153.409 64.24 149.299 68.56 145.719 73.2C142.129 77.84 139.139 82.24 138.839 88.1Z" fill="#EEB422"/>
<path d="M156.889 32.18C157.619 34.68 157.349 37.38 156.679 39.89C155.969 42.41 154.839 44.78 153.559 47.05C150.999 51.62 147.429 55.46 144.469 59.63C141.399 63.72 139.189 68.41 138.009 73.38C137.409 75.86 137.079 78.41 137.179 80.97C137.239 83.52 137.779 86.08 138.899 88.41C137.559 86.19 136.889 83.59 136.659 81C136.459 78.39 136.699 75.76 137.219 73.21C138.259 68.09 140.539 63.22 143.629 59.02C146.729 54.83 150.219 51.03 152.889 46.65C154.229 44.47 155.409 42.18 156.209 39.75C157.019 37.34 157.399 34.73 156.899 32.18H156.889Z" fill="#5700DD"/>
<path d="M87.0588 77.76C91.6288 71.8 93.0188 63.52 90.6288 56.4C88.2888 49.42 82.8288 44.03 78.3688 38.17C74.5588 33.16 71.4088 27.66 69.0088 21.85C65.0088 30.04 65.7688 40.52 69.8588 48.66C72.4888 53.9 76.5988 58.22 80.1788 62.86C83.7688 67.5 86.7588 71.9 87.0588 77.76Z" fill="#E47573"/>
<path d="M69.0088 21.84C68.5088 24.39 68.8888 27 69.6988 29.41C70.4988 31.84 71.6788 34.13 73.0188 36.31C75.6888 40.69 79.1788 44.49 82.2788 48.68C85.3588 52.88 87.6388 57.75 88.6888 62.87C89.2088 65.43 89.4488 68.06 89.2488 70.66C89.0088 73.25 88.3388 75.85 87.0088 78.07C88.1288 75.74 88.6688 73.18 88.7288 70.63C88.8288 68.08 88.4988 65.52 87.8988 63.04C86.7188 58.06 84.5088 53.38 81.4388 49.29C78.4788 45.12 74.9088 41.28 72.3488 36.71C71.0688 34.45 69.9388 32.07 69.2288 29.55C68.5588 27.04 68.2888 24.34 69.0188 21.84H69.0088Z" fill="#5700DD"/>
<path d="M78.6488 76.57C80.5688 70.98 79.5388 64.46 75.9688 59.74C72.4788 55.11 67.0588 52.46 62.2688 49.2C58.1788 46.42 54.4488 43.1 51.2088 39.36C50.2688 46.47 53.4588 54.1 58.5388 59.15C61.8088 62.4 65.9588 64.6 69.7888 67.17C73.6188 69.74 76.9588 72.27 78.6488 76.57Z" fill="#EEB422"/>
<path d="M51.1988 39.36C51.4588 41.39 52.3988 43.24 53.5988 44.84C54.7988 46.45 56.2488 47.87 57.7988 49.16C60.8888 51.76 64.4388 53.72 67.7988 56.07C71.1488 58.44 74.0688 61.5 76.1288 65.06C77.1588 66.84 77.9888 68.74 78.4888 70.74C78.9588 72.73 79.1088 74.84 78.6688 76.83C78.9188 74.81 78.6888 72.77 78.0988 70.85C77.5288 68.92 76.6488 67.1 75.5788 65.4C73.4588 61.98 70.6388 59.04 67.3288 56.75C64.0788 54.38 60.4588 52.4 57.4088 49.64C55.8888 48.27 54.4488 46.78 53.2888 45.08C52.1688 43.37 51.2888 41.43 51.2088 39.38L51.1988 39.36Z" fill="#5700DD"/>
<path d="M141.919 33.26C141.919 32.39 141.899 31.47 141.489 30.7C141.359 30.45 141.129 30.2 140.849 30.21C140.469 30.23 140.289 30.67 140.219 31.04C139.459 35 140.539 40.26 141.769 44.05C142.049 40.48 141.919 36.83 141.909 33.25L141.919 33.26Z" fill="#E47573"/>
<path d="M146.529 30.44C146.709 29.58 146.879 28.69 146.639 27.85C146.559 27.58 146.399 27.29 146.119 27.24C145.749 27.18 145.479 27.58 145.329 27.93C143.759 31.65 143.739 37.01 144.159 40.98C145.169 37.55 145.809 33.95 146.539 30.45L146.529 30.44Z" fill="#E47573"/>
<path d="M154.539 37.32C155.359 37.03 156.219 36.71 156.809 36.06C156.999 35.85 157.159 35.56 157.059 35.3C156.919 34.95 156.439 34.93 156.069 34.99C152.079 35.59 147.489 38.36 144.319 40.79C147.779 39.87 151.179 38.53 154.549 37.33L154.539 37.32Z" fill="#E47573"/>
<path d="M152.509 42.54C153.369 42.4 154.269 42.24 154.969 41.71C155.189 41.54 155.409 41.28 155.349 41C155.269 40.63 154.799 40.52 154.429 40.51C150.399 40.38 145.379 42.27 141.819 44.08C145.389 43.8 148.969 43.1 152.509 42.53V42.54Z" fill="#E47573"/>
<path d="M151.129 45.96C151.999 45.88 152.909 45.79 153.639 45.31C153.879 45.15 154.109 44.91 154.069 44.63C154.019 44.26 153.559 44.12 153.189 44.08C149.179 43.66 144.039 45.2 140.359 46.75C143.939 46.72 147.569 46.28 151.129 45.97V45.96Z" fill="#E47573"/>
<path d="M148.559 49.91C149.429 49.83 150.339 49.74 151.069 49.26C151.309 49.1 151.539 48.86 151.499 48.58C151.449 48.21 150.989 48.07 150.619 48.03C146.609 47.61 141.469 49.15 137.789 50.7C141.369 50.67 144.999 50.23 148.559 49.92V49.91Z" fill="#E47573"/>
<path d="M146.369 53.99C147.239 53.91 148.149 53.82 148.879 53.34C149.119 53.18 149.349 52.94 149.309 52.66C149.259 52.29 148.799 52.15 148.429 52.11C144.419 51.69 139.279 53.23 135.599 54.78C139.179 54.75 142.809 54.31 146.369 54V53.99Z" fill="#E47573"/>
<path d="M144.259 58.21C145.129 58.13 146.039 58.04 146.769 57.56C147.009 57.4 147.239 57.16 147.199 56.88C147.149 56.51 146.689 56.37 146.319 56.33C142.309 55.91 137.169 57.45 133.489 59C137.069 58.97 140.699 58.53 144.259 58.22V58.21Z" fill="#E47573"/>
<path d="M142.509 62.79C143.379 62.71 144.289 62.62 145.019 62.14C145.259 61.98 145.489 61.74 145.449 61.46C145.399 61.09 144.939 60.95 144.569 60.91C140.559 60.49 135.419 62.03 131.739 63.58C135.319 63.55 138.949 63.11 142.509 62.8V62.79Z" fill="#E47573"/>
<path d="M140.859 67.65C141.729 67.57 142.639 67.48 143.369 67C143.609 66.84 143.839 66.6 143.799 66.32C143.749 65.95 143.289 65.81 142.919 65.77C138.909 65.35 133.769 66.89 130.089 68.44C133.669 68.41 137.299 67.97 140.859 67.66V67.65Z" fill="#E47573"/>
<path d="M139.489 71.96C140.359 71.88 141.269 71.79 141.999 71.31C142.239 71.15 142.469 70.91 142.429 70.63C142.379 70.26 141.919 70.12 141.549 70.08C137.539 69.66 132.399 71.2 128.719 72.75C132.299 72.72 135.929 72.28 139.489 71.97V71.96Z" fill="#E47573"/>
<path d="M138.199 77.38C139.069 77.3 139.979 77.21 140.709 76.73C140.949 76.57 141.179 76.33 141.139 76.05C141.089 75.68 140.629 75.54 140.259 75.5C136.249 75.08 131.109 76.62 127.429 78.17C131.009 78.14 134.639 77.7 138.199 77.39V77.38Z" fill="#E47573"/>
<path d="M137.289 83.7C138.159 83.62 139.069 83.53 139.799 83.05C140.039 82.89 140.269 82.65 140.229 82.37C140.179 82 139.719 81.86 139.349 81.82C135.339 81.4 130.199 82.94 126.519 84.49C130.099 84.46 133.729 84.02 137.289 83.71V83.7Z" fill="#E47573"/>
<path d="M137.419 36.59C137.159 35.75 136.879 34.88 136.249 34.27C136.049 34.07 135.759 33.9 135.499 33.99C135.149 34.12 135.109 34.6 135.149 34.97C135.589 38.98 138.169 43.68 140.469 46.94C139.689 43.45 138.489 40 137.429 36.58L137.419 36.59Z" fill="#E47573"/>
<path d="M134.809 40.27C134.549 39.43 134.269 38.56 133.639 37.95C133.439 37.75 133.149 37.58 132.889 37.67C132.539 37.8 132.499 38.28 132.539 38.65C132.979 42.66 135.559 47.36 137.859 50.62C137.079 47.13 135.879 43.68 134.819 40.26L134.809 40.27Z" fill="#E47573"/>
<path d="M131.779 44.75C131.459 43.94 131.099 43.09 130.439 42.53C130.219 42.35 129.919 42.2 129.669 42.31C129.329 42.46 129.319 42.95 129.389 43.32C130.139 47.28 133.079 51.77 135.619 54.84C134.569 51.42 133.109 48.07 131.779 44.75Z" fill="#E47573"/>
<path d="M128.959 49.19C128.579 48.4 128.169 47.58 127.469 47.07C127.239 46.9 126.929 46.77 126.679 46.91C126.349 47.09 126.379 47.57 126.469 47.93C127.489 51.83 130.739 56.11 133.479 59C132.199 55.66 130.509 52.42 128.949 49.2L128.959 49.19Z" fill="#E47573"/>
<path d="M127.179 53.81C126.799 53.02 126.389 52.2 125.679 51.69C125.449 51.52 125.139 51.39 124.889 51.53C124.559 51.71 124.589 52.19 124.679 52.55C125.699 56.45 128.949 60.73 131.689 63.62C130.409 60.28 128.719 57.04 127.159 53.82L127.179 53.81Z" fill="#E47573"/>
<path d="M125.399 58.44C125.019 57.65 124.609 56.83 123.909 56.32C123.679 56.15 123.369 56.02 123.119 56.16C122.789 56.34 122.819 56.82 122.909 57.18C123.929 61.08 127.179 65.36 129.919 68.25C128.639 64.91 126.949 61.67 125.389 58.45L125.399 58.44Z" fill="#E47573"/>
<path d="M123.619 63.06C123.239 62.27 122.829 61.45 122.119 60.94C121.889 60.77 121.579 60.64 121.329 60.78C120.999 60.96 121.029 61.44 121.119 61.8C122.139 65.7 125.389 69.98 128.129 72.87C126.849 69.53 125.159 66.29 123.599 63.07L123.619 63.06Z" fill="#E47573"/>
<path d="M121.719 75.04C121.339 74.25 120.929 73.43 120.219 72.92C119.989 72.75 119.679 72.62 119.429 72.76C119.099 72.94 119.129 73.42 119.219 73.78C120.239 77.68 123.489 81.96 126.229 84.85C124.949 81.51 123.259 78.27 121.699 75.05L121.719 75.04Z" fill="#E47573"/>
<path d="M122.669 68.99C122.289 68.2 121.879 67.38 121.179 66.87C120.949 66.7 120.639 66.57 120.389 66.71C120.059 66.89 120.089 67.37 120.179 67.73C121.199 71.63 124.449 75.91 127.189 78.8C125.909 75.46 124.219 72.22 122.659 69L122.669 68.99Z" fill="#E47573"/>
<path d="M148.379 35.22C147.679 36.23 146.959 37.24 146.239 38.24L144.179 41.3L142.169 44.39L140.259 47.54C137.769 51.77 135.479 56.12 133.569 60.63C131.589 65.11 129.999 69.76 128.759 74.5L127.909 78.08L127.229 81.7L126.689 85.35L126.319 89.03C126.339 87.8 126.369 86.56 126.409 85.33L126.719 81.64L127.259 77.97L127.979 74.33C129.059 69.5 130.679 64.79 132.609 60.23C134.619 55.7 136.919 51.31 139.579 47.14L141.619 44.05L143.759 41.03L146.019 38.1C146.799 37.14 147.589 36.19 148.379 35.25V35.22Z" fill="#5700DD"/>
<path d="M99.3488 29.92C99.5088 29.06 99.6888 28.16 100.239 27.48C100.419 27.26 100.679 27.05 100.959 27.12C101.329 27.2 101.419 27.68 101.429 28.05C101.469 32.08 99.4588 37.06 97.5688 40.57C97.9288 37.01 98.7088 33.44 99.3588 29.92H99.3488Z" fill="#EEB422"/>
<path d="M95.3288 26.32C95.3088 25.45 95.2988 24.53 95.6888 23.75C95.8188 23.5 96.0288 23.24 96.3088 23.24C96.6888 23.24 96.8788 23.69 96.9588 24.06C97.8288 28 96.8988 33.28 95.7788 37.11C95.3988 33.55 95.4188 29.9 95.3288 26.32Z" fill="#EEB422"/>
<path d="M86.2088 31.65C85.4488 31.21 84.6688 30.75 84.1988 30C84.0488 29.76 83.9388 29.44 84.0888 29.2C84.2888 28.88 84.7688 28.95 85.1288 29.07C88.9488 30.37 92.9688 33.93 95.6488 36.88C92.4188 35.35 89.3088 33.43 86.2088 31.65Z" fill="#EEB422"/>
<path d="M87.2688 37.16C86.4488 36.87 85.5888 36.55 84.9988 35.9C84.8088 35.69 84.6488 35.4 84.7488 35.14C84.8888 34.79 85.3688 34.77 85.7388 34.82C89.7288 35.41 94.3288 38.17 97.4988 40.59C94.0388 39.68 90.6388 38.35 87.2588 37.16H87.2688Z" fill="#EEB422"/>
<path d="M88.0188 40.77C87.1788 40.54 86.2988 40.28 85.6688 39.68C85.4688 39.48 85.2788 39.2 85.3688 38.94C85.4888 38.58 85.9588 38.53 86.3388 38.55C90.3588 38.86 95.1488 41.29 98.4788 43.47C94.9688 42.8 91.4688 41.72 88.0288 40.77H88.0188Z" fill="#EEB422"/>
<path d="M89.8388 45.11C88.9988 44.88 88.1188 44.62 87.4888 44.02C87.2888 43.82 87.0988 43.54 87.1888 43.28C87.3088 42.92 87.7788 42.87 88.1588 42.89C92.1788 43.2 96.9688 45.63 100.299 47.81C96.7888 47.14 93.2888 46.06 89.8488 45.11H89.8388Z" fill="#EEB422"/>
<path d="M91.2688 49.51C90.4288 49.28 89.5488 49.02 88.9188 48.42C88.7188 48.22 88.5288 47.94 88.6188 47.68C88.7388 47.32 89.2088 47.27 89.5888 47.29C93.6088 47.6 98.3988 50.03 101.729 52.21C98.2188 51.54 94.7188 50.46 91.2788 49.51H91.2688Z" fill="#EEB422"/>
<path d="M92.5888 54.04C91.7488 53.81 90.8688 53.55 90.2388 52.95C90.0388 52.75 89.8488 52.47 89.9388 52.21C90.0588 51.85 90.5288 51.8 90.9088 51.82C94.9288 52.13 99.7188 54.56 103.049 56.74C99.5388 56.07 96.0388 54.99 92.5988 54.04H92.5888Z" fill="#EEB422"/>
<path d="M93.4788 58.87C92.6388 58.64 91.7588 58.38 91.1188 57.78C90.9188 57.58 90.7288 57.3 90.8188 57.04C90.9388 56.68 91.4088 56.63 91.7888 56.65C95.8088 56.96 100.599 59.39 103.929 61.57C100.419 60.9 96.9188 59.82 93.4788 58.87Z" fill="#EEB422"/>
<path d="M94.2288 63.95C93.3888 63.72 92.5088 63.46 91.8788 62.86C91.6788 62.66 91.4888 62.38 91.5788 62.12C91.6988 61.76 92.1688 61.71 92.5488 61.73C96.5688 62.04 101.359 64.47 104.689 66.65C101.179 65.98 97.6788 64.9 94.2388 63.95H94.2288Z" fill="#EEB422"/>
<path d="M94.8088 68.43C93.9688 68.2 93.0888 67.94 92.4588 67.34C92.2588 67.14 92.0688 66.86 92.1588 66.6C92.2788 66.24 92.7488 66.19 93.1288 66.21C97.1488 66.52 101.939 68.95 105.269 71.13C101.759 70.46 98.2588 69.38 94.8188 68.43H94.8088Z" fill="#EEB422"/>
<path d="M95.1088 73.99C94.2688 73.76 93.3888 73.5 92.7588 72.9C92.5588 72.7 92.3688 72.42 92.4588 72.16C92.5788 71.8 93.0488 71.75 93.4288 71.77C97.4488 72.08 102.239 74.51 105.569 76.69C102.059 76.02 98.5588 74.94 95.1188 73.99H95.1088Z" fill="#EEB422"/>
<path d="M94.8788 80.38C94.0388 80.15 93.1588 79.89 92.5288 79.29C92.3288 79.09 92.1388 78.81 92.2288 78.55C92.3488 78.19 92.8188 78.14 93.1988 78.16C97.2188 78.47 102.009 80.9 105.339 83.08C101.829 82.41 98.3288 81.33 94.8888 80.38H94.8788Z" fill="#EEB422"/>
<path d="M103.189 34C103.599 33.23 104.029 32.42 104.749 31.93C104.979 31.77 105.299 31.65 105.539 31.79C105.869 31.98 105.819 32.46 105.709 32.82C104.559 36.69 101.179 40.85 98.3388 43.65C99.7288 40.36 101.529 37.17 103.189 34Z" fill="#EEB422"/>
<path d="M105.089 38.09C105.499 37.32 105.929 36.51 106.649 36.02C106.879 35.86 107.199 35.74 107.439 35.88C107.769 36.07 107.719 36.55 107.609 36.91C106.459 40.78 103.079 44.94 100.239 47.74C101.629 44.45 103.429 41.26 105.089 38.09Z" fill="#EEB422"/>
<path d="M107.269 43.04C107.729 42.3 108.229 41.53 108.989 41.1C109.239 40.96 109.559 40.86 109.789 41.02C110.099 41.23 110.019 41.71 109.879 42.06C108.429 45.82 104.729 49.71 101.689 52.28C103.339 49.1 105.369 46.07 107.269 43.04Z" fill="#EEB422"/>
<path d="M109.249 47.91C109.759 47.2 110.309 46.47 111.099 46.09C111.349 45.97 111.679 45.89 111.899 46.07C112.189 46.3 112.079 46.77 111.919 47.11C110.219 50.77 106.259 54.39 103.039 56.74C104.899 53.69 107.139 50.8 109.249 47.91Z" fill="#EEB422"/>
<path d="M110.179 52.78C110.689 52.07 111.239 51.34 112.029 50.96C112.279 50.84 112.609 50.76 112.829 50.94C113.119 51.17 113.009 51.64 112.849 51.98C111.149 55.64 107.189 59.26 103.969 61.61C105.829 58.56 108.069 55.67 110.179 52.78Z" fill="#EEB422"/>
<path d="M111.099 57.65C111.609 56.94 112.159 56.21 112.949 55.83C113.199 55.71 113.529 55.63 113.749 55.81C114.039 56.04 113.929 56.51 113.769 56.85C112.069 60.51 108.109 64.13 104.889 66.48C106.749 63.43 108.989 60.54 111.099 57.65Z" fill="#EEB422"/>
<path d="M112.019 62.52C112.529 61.81 113.079 61.08 113.869 60.7C114.119 60.58 114.449 60.5 114.669 60.68C114.959 60.91 114.849 61.38 114.689 61.72C112.989 65.38 109.029 69 105.809 71.35C107.669 68.3 109.909 65.41 112.019 62.52Z" fill="#EEB422"/>
<path d="M111.739 74.64C112.249 73.93 112.799 73.2 113.589 72.82C113.839 72.7 114.169 72.62 114.389 72.8C114.679 73.03 114.569 73.5 114.409 73.84C112.709 77.5 108.749 81.12 105.529 83.47C107.389 80.42 109.629 77.53 111.739 74.64Z" fill="#EEB422"/>
<path d="M111.889 68.52C112.399 67.81 112.949 67.08 113.739 66.7C113.989 66.58 114.319 66.5 114.539 66.68C114.829 66.91 114.719 67.38 114.559 67.72C112.859 71.38 108.899 75 105.679 77.35C107.539 74.3 109.779 71.41 111.889 68.52Z" fill="#EEB422"/>
<path d="M92.6488 30.7C93.2588 31.77 93.8688 32.84 94.4588 33.93L96.1588 37.22L97.7188 40.58L99.1788 43.99C101.039 48.57 102.529 53.31 103.689 58.12C104.769 62.95 105.519 67.87 105.719 72.82L105.769 76.53L105.639 80.24L105.279 83.93C105.099 85.15 104.909 86.37 104.709 87.59L105.009 83.91L105.129 80.23L105.109 76.55L104.909 72.88C104.539 67.99 103.809 63.13 102.659 58.37C101.599 53.59 100.109 48.9 98.4188 44.29L97.0988 40.85L95.6788 37.45L94.1988 34.07C93.6688 32.96 93.1488 31.84 92.6388 30.72L92.6488 30.7Z" fill="#5700DD"/>
<path d="M118.489 87.94C119.459 83.3 118.089 78.47 116.099 74.17C114.109 69.87 111.479 65.87 109.689 61.49C105.499 51.23 106.199 39.47 109.589 28.92C108.589 40.26 110.099 52.2 113.659 63.02C115.069 67.29 116.819 71.45 117.989 75.8C119.159 80.14 119.489 83.56 118.489 87.94Z" fill="#2C2D40"/>
<path d="M121.379 91.43C123.569 83.12 119.759 74.59 117.879 66.2C114.659 51.86 117.329 36.29 125.119 23.84C125.229 28.59 123.389 33.51 122.419 38.16C119.999 49.67 119.509 61.57 120.959 73.24C121.679 79.01 122.579 85.74 121.379 91.43Z" fill="#2C2D40"/>
<path d="M123.619 88.6C126.119 78.13 122.929 67.08 124.379 56.41C126.029 44.27 133.589 33.39 134.299 21.16C136.089 29.41 133.779 38.01 131.139 46.02C128.499 54.04 125.319 62.05 124.979 70.49C124.719 77.08 126.199 82.53 123.609 88.6H123.619Z" fill="#2C2D40"/>
<path d="M181.989 46.99C181.989 48.79 180.529 50.25 178.729 50.25C176.929 50.25 175.469 48.79 175.469 46.99C175.469 45.19 176.929 43.73 178.729 43.73C180.529 43.73 181.989 45.19 181.989 46.99Z" stroke="#5700DD" stroke-width="0.53" stroke-miterlimit="10"/>
<path d="M118.739 31.54C118.739 33.34 117.279 34.8 115.479 34.8C113.679 34.8 112.219 33.34 112.219 31.54C112.219 29.74 113.679 28.28 115.479 28.28C117.279 28.28 118.739 29.74 118.739 31.54Z" stroke="#EEB422" stroke-width="0.53" stroke-miterlimit="10"/>
<path d="M47.0088 60.8C48.8092 60.8 50.2688 59.3404 50.2688 57.54C50.2688 55.7395 48.8092 54.28 47.0088 54.28C45.2083 54.28 43.7488 55.7395 43.7488 57.54C43.7488 59.3404 45.2083 60.8 47.0088 60.8Z" stroke="#BFCDF2" stroke-width="0.53" stroke-miterlimit="10"/>
<path d="M167.039 55.43C167.039 56.33 166.309 57.06 165.409 57.06C164.509 57.06 163.779 56.33 163.779 55.43C163.779 54.53 164.509 53.8 165.409 53.8C166.309 53.8 167.039 54.53 167.039 55.43Z" fill="#2C2D40"/>
<path d="M107.599 17.78C107.599 18.68 106.869 19.41 105.969 19.41C105.069 19.41 104.339 18.68 104.339 17.78C104.339 16.88 105.069 16.15 105.969 16.15C106.869 16.15 107.599 16.88 107.599 17.78Z" fill="#8674FC"/>
<path d="M56.8988 63.89C56.8988 64.79 56.1688 65.52 55.2688 65.52C54.3688 65.52 53.6388 64.79 53.6388 63.89C53.6388 62.99 54.3688 62.26 55.2688 62.26C56.1688 62.26 56.8988 62.99 56.8988 63.89Z" fill="#EEB422"/>
<path d="M127.899 149.51L86.6388 82.04L60.1688 73.48C60.1688 73.48 53.1588 86.71 50.8288 94.24C48.4888 101.77 49.0088 108.51 47.1988 110.33C45.3788 112.15 30.3288 125.12 30.3288 125.12C33.2688 130.87 37.9888 135.1 44.3188 136.41C44.7688 140.45 44.8188 144.56 44.8988 148.66C46.6588 149.4 50.5088 151.15 50.5088 152.28C50.5088 153.41 46.8588 153.25 45.0088 153.11C45.1388 156.92 45.4188 160.71 46.1788 164.41C47.0588 168.7 48.8688 173.29 52.8188 175.2C54.6988 176.11 56.8388 176.28 58.9288 176.35C65.9988 176.59 73.0988 175.83 79.9588 174.09L102.399 214.03L147.109 182.99L127.909 149.52L127.899 149.51Z" fill="#E47573"/>
<path d="M156.669 89.44C160.259 95.91 161.759 103.53 160.889 110.88C160.819 111.46 160.609 112.18 160.029 112.27C159.729 112.31 159.439 112.16 159.189 111.99C157.799 111.04 156.859 109.46 156.709 107.78C157.789 114.42 156.539 121.27 154.079 127.53C151.629 133.79 148.019 139.52 144.239 145.09C142.509 147.63 140.729 150.18 139.629 153.05C138.529 155.92 138.159 159.2 139.319 162.05C137.839 162.15 136.329 161.43 135.489 160.21C136.519 161.56 137.459 163.7 136.109 164.72C135.209 165.39 133.949 164.99 132.909 164.56C130.149 163.41 127.339 162.23 125.009 160.36C121.949 157.91 119.889 154.43 118.129 150.92C114.079 142.87 111.209 134.24 109.619 125.38C105.639 124.91 101.209 124.6 97.2288 124.13C97.2888 118.97 97.3588 113.67 97.9488 108.55C95.0388 108.42 92.0988 106.05 90.8088 103.44C89.5188 100.83 89.2188 97.86 88.9388 94.96C85.7888 95.01 82.2688 94.16 80.0888 91.89C77.9088 89.62 76.7388 86.42 76.9188 83.28C74.0188 84.98 70.3688 84.95 67.2488 83.71C64.1288 82.47 61.6388 79.73 60.6988 76.5C58.6288 78.42 56.5988 80.82 55.0688 83.2C54.9688 83.35 55.0188 83.25 54.9188 83.41C52.6288 79.94 53.0988 75.14 55.2988 71.61C57.4988 68.08 61.1588 65.69 64.9988 64.09C64.9988 64.09 80.2388 75.38 109.999 82.2C139.759 89.01 156.649 89.44 156.649 89.44H156.669Z" fill="#2C2D40"/>
<path d="M129.519 119.5C129.169 125.45 126.149 131.19 121.449 134.85C119.979 136 118.309 136.96 116.459 137.25C112.299 137.9 108.239 134.78 106.639 130.89C105.039 127 105.419 122.58 106.349 118.48C107.559 113.18 110.259 107.5 115.429 105.83C123.769 103.14 129.949 112.13 129.509 119.5H129.519Z" fill="#E47573"/>
<g style="mix-blend-mode:multiply">
<path d="M111.119 132.55C112.899 131.84 114.479 130.63 115.609 129.08C115.839 128.77 116.059 128.43 116.089 128.04C116.149 127.31 115.529 126.71 114.969 126.24C113.829 125.28 112.689 124.32 111.559 123.36C111.329 123.17 111.099 122.96 110.989 122.69C110.879 122.38 110.939 122.04 111.009 121.72C111.869 117.64 112.929 113.24 116.169 110.61C117.039 109.9 118.079 109.34 119.199 109.23C120.859 109.06 122.499 109.9 123.669 111.09C124.839 112.28 125.619 113.79 126.349 115.29C126.349 115.29 127.929 123.73 122.439 129.35C116.949 134.97 111.119 132.54 111.119 132.54V132.55Z" fill="#E47573"/>
</g>
<path d="M126.349 115.3C125.419 113.85 124.499 112.36 123.239 111.31C122.019 110.26 120.409 109.66 119.009 109.99C117.609 110.33 116.319 111.41 115.379 112.66C114.409 113.91 113.709 115.4 113.199 116.97C112.649 118.53 112.269 120.18 111.889 121.85C111.839 122.06 111.799 122.22 111.799 122.31C111.799 122.41 111.779 122.37 111.809 122.43C111.859 122.54 112.289 122.89 112.589 123.17C113.239 123.74 113.869 124.32 114.509 124.9L115.469 125.78C115.799 126.09 116.159 126.43 116.429 126.94C116.719 127.42 116.759 128.19 116.489 128.69C116.229 129.2 115.929 129.5 115.619 129.84C114.379 131.14 112.809 132.11 111.129 132.56C112.649 131.73 113.959 130.61 114.909 129.26C115.139 128.93 115.399 128.57 115.499 128.28C115.589 127.99 115.539 127.81 115.369 127.55C115.029 127.06 114.239 126.55 113.579 126.02C112.899 125.49 112.219 124.96 111.549 124.42C111.209 124.12 110.909 123.99 110.429 123.41C110.199 123.12 110.059 122.64 110.079 122.31C110.079 121.97 110.139 121.7 110.179 121.49C110.519 119.79 110.889 118.07 111.459 116.37C112.049 114.69 112.839 113 114.029 111.56C114.619 110.84 115.319 110.21 116.089 109.66C116.869 109.12 117.779 108.7 118.779 108.56C119.779 108.42 120.799 108.6 121.659 109C122.529 109.4 123.279 109.98 123.889 110.65C125.109 112.02 125.799 113.66 126.369 115.29L126.349 115.3Z" fill="#2C2D40"/>
<g style="mix-blend-mode:overlay">
<path d="M132.239 96.16C132.809 98.06 133.459 99.92 134.279 101.71C135.069 103.49 135.979 105.29 137.059 106.85C137.619 107.58 138.299 108.31 139.069 108.49C139.459 108.58 139.769 108.51 139.939 108.27C140.129 108.04 140.199 107.59 140.239 107.11C140.429 105.18 140.379 103.23 140.159 101.3C140.129 101.01 140.329 100.75 140.619 100.72C140.879 100.69 141.109 100.86 141.179 101.1C141.789 103.35 143.119 105.41 144.909 106.92C145.139 107.1 145.359 107.3 145.569 107.41C145.789 107.53 146.029 107.6 146.169 107.59C146.299 107.57 146.369 107.54 146.429 107.33C146.479 107.13 146.489 106.79 146.509 106.51C146.559 105.33 146.429 104.14 146.119 102.99C146.079 102.82 146.169 102.66 146.329 102.62C146.449 102.59 146.579 102.64 146.649 102.74C147.319 103.71 147.979 104.69 148.799 105.51C149.619 106.33 150.639 107 151.829 107.17C150.619 107.15 149.489 106.54 148.579 105.76C147.649 104.98 146.879 104.04 146.169 103.08L146.699 102.82C147.079 104.01 147.289 105.26 147.299 106.52C147.299 106.84 147.319 107.12 147.239 107.52C147.199 107.91 146.779 108.42 146.289 108.46C145.369 108.53 144.809 107.98 144.329 107.63C142.359 106.03 140.889 103.83 140.179 101.39L141.189 101.19C141.439 103.19 141.419 105.22 141.189 107.22C141.129 107.71 141.089 108.31 140.659 108.87C140.449 109.14 140.119 109.34 139.779 109.41C139.439 109.49 139.119 109.45 138.829 109.38C137.649 109.05 136.929 108.16 136.359 107.32C135.279 105.58 134.489 103.77 133.769 101.9C133.099 100.02 132.549 98.1 132.219 96.15L132.239 96.16Z" fill="#BFCDF2"/>
<path d="M140.189 120.17C139.759 121.45 139.389 122.73 139.069 124.03C138.749 125.32 138.479 126.63 138.289 127.92C138.209 128.54 138.249 129.15 138.479 129.55C138.609 129.75 138.729 129.82 138.849 129.81C138.979 129.81 139.219 129.69 139.459 129.51C140.479 128.78 141.309 127.79 141.889 126.67V126.65C142.019 126.42 142.309 126.33 142.539 126.45C142.769 126.57 142.859 126.85 142.749 127.08C142.469 127.67 142.249 128.28 142.129 128.89C142.019 129.51 142.049 130.13 142.259 130.71C142.469 131.28 142.869 131.8 143.449 132.05C144.019 132.3 144.749 132.31 145.319 131.91C144.849 132.43 144.029 132.58 143.329 132.39C142.599 132.21 141.999 131.63 141.669 130.96C141.319 130.29 141.229 129.51 141.299 128.77C141.369 128.03 141.599 127.33 141.869 126.68L142.729 127.08C142.149 128.38 141.209 129.51 140.059 130.36C139.759 130.56 139.389 130.82 138.849 130.84C138.279 130.86 137.799 130.44 137.599 130.07C137.149 129.28 137.229 128.47 137.339 127.77C137.599 126.41 137.979 125.11 138.449 123.83C138.919 122.56 139.499 121.33 140.169 120.16L140.189 120.17Z" fill="#BFCDF2"/>
<path d="M123.099 140.62C123.249 141.85 123.529 143.04 123.919 144.18C124.319 145.3 124.829 146.44 125.459 147.37C125.789 147.82 126.179 148.15 126.609 148.25C127.079 148.34 127.449 148.24 127.659 147.87C127.899 147.49 128.079 146.86 128.199 146.32C128.309 145.76 128.389 145.18 128.379 144.6H129.319C129.259 145.76 129.199 146.92 129.899 147.73C130.239 148.12 130.719 148.4 131.249 148.35C131.789 148.3 132.299 147.94 132.729 147.54C132.409 148.04 131.959 148.51 131.319 148.69C130.669 148.88 129.939 148.61 129.459 148.16C128.949 147.71 128.659 147.05 128.529 146.43C128.389 145.79 128.389 145.17 128.389 144.57C128.389 144.31 128.599 144.1 128.859 144.1C129.109 144.1 129.309 144.3 129.329 144.54V144.56C129.369 145.21 129.329 145.87 129.209 146.51C129.059 147.16 128.939 147.75 128.549 148.43C128.349 148.76 127.979 149.09 127.569 149.21C127.159 149.34 126.749 149.33 126.369 149.24C125.589 149.05 125.029 148.46 124.679 147.9C123.989 146.76 123.589 145.58 123.309 144.34C123.049 143.11 122.979 141.84 123.099 140.61V140.62Z" fill="#BFCDF2"/>
<path d="M93.6588 86.01C94.4488 87.87 95.4388 89.62 96.6788 91.19C97.8888 92.77 99.3088 94.18 100.899 95.35C101.699 95.93 102.509 96.49 103.379 96.95C104.169 97.42 105.209 97.69 105.599 97.26C105.809 97.07 105.909 96.67 105.939 96.19C105.969 95.71 105.979 95.23 105.939 94.75C105.879 93.79 105.689 92.84 105.379 91.94L106.369 91.65C106.629 92.8 107.159 93.89 107.879 94.85C108.599 95.8 109.519 96.61 110.559 97.2C111.589 97.77 112.789 98.24 113.929 98.21C114.209 98.19 114.479 98.14 114.729 98.03C114.849 97.98 114.969 97.9 115.059 97.83C115.129 97.78 115.169 97.69 115.209 97.59C115.319 97.12 115.139 96.47 114.929 95.93V95.9C114.869 95.78 114.929 95.64 115.059 95.6C115.129 95.57 115.209 95.58 115.269 95.62C115.979 96.06 116.729 96.48 117.489 96.84C118.259 97.19 119.039 97.54 119.879 97.67C119.019 97.64 118.189 97.38 117.389 97.08C116.579 96.78 115.809 96.42 115.029 96.03L115.369 95.72C115.649 96.32 115.909 96.94 115.799 97.72C115.749 97.91 115.669 98.13 115.489 98.29C115.339 98.43 115.199 98.52 115.029 98.61C114.709 98.78 114.349 98.87 113.999 98.9C112.599 99 111.339 98.55 110.149 97.98C108.979 97.36 107.949 96.49 107.109 95.45C106.279 94.41 105.679 93.18 105.369 91.88C105.299 91.6 105.469 91.32 105.749 91.26C106.009 91.2 106.269 91.34 106.359 91.59C106.709 92.59 106.929 93.64 106.979 94.69C107.009 95.22 106.999 95.75 106.959 96.27C106.909 96.78 106.839 97.46 106.299 97.98C105.759 98.5 104.979 98.54 104.439 98.41C103.869 98.29 103.359 98.04 102.909 97.77C102.019 97.25 101.169 96.67 100.369 96.02C98.7788 94.72 97.3788 93.19 96.2288 91.5C95.0988 89.8 94.2088 87.95 93.6488 86.01H93.6588Z" fill="#BFCDF2"/>
<path d="M70.0588 71.32C69.8288 72.32 69.7888 73.35 70.0688 74.29C70.3188 75.23 70.8688 76.05 71.6088 76.6C72.3488 77.16 73.2588 77.43 74.1188 77.28C74.9888 77.15 75.7888 76.62 76.1888 75.89C76.3288 75.63 76.6388 75.54 76.8888 75.68C77.0188 75.75 77.1088 75.88 77.1388 76.02C77.4988 77.58 78.7388 78.88 80.2088 79.69C80.9588 80.1 81.7688 80.41 82.6188 80.66C83.4588 80.92 84.3388 81.08 85.2088 81.28C84.3088 81.3 83.4188 81.24 82.5088 81.13C81.6088 81 80.7088 80.78 79.8588 80.4C78.9988 80.02 78.1988 79.48 77.5388 78.79C76.8688 78.1 76.3588 77.23 76.1188 76.26L77.0888 76.38C76.5188 77.48 75.3888 78.13 74.2388 78.29C73.0688 78.46 71.8688 78.01 71.0388 77.27C70.1888 76.53 69.6488 75.48 69.5088 74.4C69.3888 73.33 69.5588 72.25 70.0288 71.32H70.0588Z" fill="#BFCDF2"/>
</g>
<path d="M67.4688 112.86C66.3988 113.77 65.1988 114.52 63.9388 115.2C62.6788 115.86 61.3388 116.39 59.9488 116.79C58.5688 117.19 57.1388 117.7 55.6688 117.55C54.2188 117.42 52.7588 117.04 51.4888 116.12L51.5288 115.86C52.9888 115.34 54.2888 115.13 55.5988 114.92C56.8888 114.69 58.2088 114.88 59.5288 114.73C60.8388 114.57 62.1588 114.32 63.4588 113.98C64.7688 113.66 66.0488 113.18 67.3288 112.64L67.4688 112.86Z" fill="#2C2D40"/>
<path d="M53.9888 115.74L56.7488 105.24L55.0188 115.95L53.9888 115.74Z" fill="#2C2D40"/>
<path d="M52.4188 89.87C52.4188 89.87 51.4288 92.12 50.5888 95.02C55.7188 94.22 60.6288 95.04 65.1688 97.56C69.7088 100.09 73.9688 104.26 75.9988 109.04C75.9988 109.04 73.4388 97.99 65.7488 93.29C57.0488 87.97 52.4188 89.86 52.4188 89.86V89.87Z" fill="#2C2D40"/>
<path d="M79.6988 174.23C88.2188 169.8 95.7488 163.48 101.589 155.86C97.5588 165.43 91.4288 174.31 83.9188 181.49" fill="#2C2D40"/>
<path d="M190.339 234.94C190.339 234.94 155.639 181.41 144.069 177.31C132.499 173.21 108.649 191.29 92.9788 204.06C77.3188 216.83 58.9988 238.55 58.9988 238.55L190.339 234.94Z" fill="#8674FC"/>
<g style="mix-blend-mode:multiply" opacity="0.32">
<path d="M77.7088 130.55C77.3488 134.31 72.2488 136.9 66.3188 136.33C60.3888 135.76 55.8788 132.25 56.2388 128.5C56.5988 124.74 61.6988 122.15 67.6288 122.72C73.5588 123.29 78.0688 126.79 77.7088 130.55Z" fill="#FF7673"/>
</g>
<path d="M43.2088 133.41C45.3588 133.49 47.4488 134.14 49.3688 135.09L48.6288 135.41C49.2288 133.41 49.2388 131.29 48.7888 129.1C50.0488 130.97 50.3088 133.5 49.6288 135.71L49.4388 136.31L48.8888 136.02C47.0488 135.07 45.1588 134.27 43.1988 133.4L43.2088 133.41Z" fill="#2C2D40"/>
</g>
</svg>
