<svg width="270" height="291" viewBox="0 0 270 291" fill="none" xmlns="http://www.w3.org/2000/svg">
<g clip-path="url(#clip0_452_641)">
<g clip-path="url(#clip1_452_641)">
<path d="M52.0547 65.3847C0.842087 202.011 -62.0973 191.169 -54.3488 262.515C-48.6341 315.077 -7.16806 299.981 41.0325 301.952C89.2331 303.923 233.549 302.119 233.549 302.119C233.549 302.119 215.061 227.095 252.281 151.789C322.14 10.3935 86.9318 -27.6613 52.0547 65.3847Z" fill="#EDE4DD"/>
<path d="M49.213 279.82C49.213 279.82 116.06 240.812 129.963 230.32C144.329 219.479 181.147 214.66 212.236 223.669C243.326 232.679 295.904 252.578 310.42 266.822C318.588 274.826 317.609 279.834 317.609 279.834L49.213 279.82Z" fill="#565697"/>
<path d="M191.49 220.457L207.676 225.402C207.676 225.402 174.673 252.94 163.28 258.696C151.221 264.793 137.747 269.675 126.776 263.728C113.463 256.51 132.581 236.424 132.581 236.424L191.49 220.457Z" fill="#1D1E40"/>
<path d="M121.363 206.885C121.363 206.885 131.525 213.456 130.214 244.205C128.903 274.955 197.845 225.545 197.845 225.545C197.845 225.545 182.691 221.139 179.191 180.138C175.691 139.136 173.111 154.038 173.111 154.038C173.111 154.038 116.269 199.341 121.363 206.885Z" fill="#EFB6AB"/>
<path opacity="0.64" d="M168.865 155.847C168.865 155.847 174.701 217.325 129.963 230.32C128.324 221.519 128.635 216.553 124.786 212.29C129.492 185.159 168.865 155.847 168.865 155.847Z" fill="#EFB6AB"/>
<path d="M174.589 149.628C174.589 149.628 169.747 185.991 182.74 184.463C195.733 182.936 207.565 120.574 208.21 115.319C208.855 110.064 213.265 75.5039 211.989 72.2014C210.713 68.8988 164.797 53.4058 89.2515 62.3042C51.1443 65.6102 53.0896 75.1803 53.0896 75.1803C53.0896 75.1803 65.8245 122.529 71.4268 129.719C77.029 136.909 174.589 149.628 174.589 149.628Z" fill="#A16D4B"/>
<path d="M326.586 266.943H-57.2543V295.709H326.586V266.943Z" fill="#989CB7"/>
<path d="M65.9152 76.1999C65.9152 76.1999 64.8694 136.752 78.5421 172.423C92.2148 208.093 105.881 212.29 105.881 212.29C105.881 212.29 111.587 214.806 124.8 212.29C140.533 209.297 163.315 191.062 173.122 154.326C173.122 154.326 195.206 157.657 197.734 130.408C199.418 112.277 183.298 111.143 175.816 114.132C170.671 116.185 165.835 122.136 163.043 125.512C157.284 132.472 156.479 120.086 158.476 104.353C160.272 90.2766 142.907 82.102 142.907 82.102" fill="#EFB6AB"/>
<path fill-rule="evenodd" clip-rule="evenodd" d="M178.531 125.347C180.987 124.442 183.891 124.308 187.251 125.5C187.586 125.619 187.762 125.987 187.642 126.323C187.523 126.658 187.154 126.833 186.819 126.714C183.73 125.618 181.137 125.759 178.977 126.555C176.804 127.355 175.021 128.836 173.602 130.488C172.215 132.102 171.196 133.857 170.515 135.235C171.179 134.761 171.974 134.264 172.857 133.85C174.159 133.239 175.686 132.791 177.285 132.886C178.902 132.983 180.546 133.635 182.056 135.142C182.308 135.393 182.308 135.801 182.056 136.052C181.804 136.304 181.396 136.304 181.144 136.052C179.853 134.763 178.504 134.249 177.208 134.172C175.894 134.093 174.588 134.46 173.406 135.015C172.226 135.569 171.204 136.293 170.473 136.885C170.109 137.179 169.82 137.438 169.624 137.622C169.526 137.714 169.451 137.787 169.401 137.836C169.377 137.861 169.358 137.879 169.346 137.891L169.334 137.904L169.331 137.907L169.331 137.907L169.331 137.907L169.331 137.907C169.123 138.125 168.791 138.169 168.533 138.014C168.274 137.859 168.158 137.546 168.253 137.26L168.865 137.462C168.253 137.26 168.253 137.26 168.253 137.26L168.253 137.259L168.254 137.255L168.258 137.245C168.261 137.236 168.265 137.223 168.271 137.207C168.282 137.174 168.299 137.127 168.321 137.066C168.364 136.945 168.43 136.769 168.517 136.55C168.691 136.11 168.954 135.49 169.311 134.762C170.021 133.309 171.111 131.409 172.623 129.649C174.134 127.89 176.088 126.246 178.531 125.347Z" fill="#4C1C17"/>
<path d="M101.952 109.587C102.07 106.535 109.273 103.556 115.548 103.897C121.823 104.238 124.685 106.427 126.522 108.157C128.032 109.587 126.871 112.43 123.28 110.687C119.32 108.756 115.987 107.555 110.381 108.829C104.552 110.155 101.844 112.323 101.952 109.587Z" fill="#E69766"/>
<path fill-rule="evenodd" clip-rule="evenodd" d="M82.8358 120.007C83.186 120.071 83.4174 120.407 83.3526 120.757L82.7185 120.64L82.0843 120.523C82.1491 120.173 82.4855 119.942 82.8358 120.007ZM97.2435 169.581C97.2424 169.582 97.2393 169.586 97.234 169.593C97.2233 169.607 97.2038 169.631 97.1746 169.665C97.1161 169.732 97.0189 169.836 96.8761 169.968C96.5907 170.23 96.1218 170.603 95.4145 171.002C94.0015 171.799 91.6219 172.711 87.83 173.055C84.1097 173.393 81.6172 172.417 79.9508 170.982C78.2675 169.532 77.3615 167.557 76.9379 165.802L76.9377 165.801C76.8233 165.331 76.8065 164.285 76.9056 162.712C77.0024 161.173 77.2025 159.217 77.4757 156.99C78.022 152.536 78.8567 147.027 79.7278 141.656C80.5986 136.286 81.5049 131.062 82.1935 127.178C82.5378 125.237 82.8276 123.631 83.0314 122.511C83.1332 121.951 83.2136 121.512 83.2684 121.214C83.2959 121.064 83.3169 120.95 83.3311 120.873L83.3525 120.757C83.3525 120.757 83.3526 120.757 82.7185 120.64C82.0843 120.523 82.0842 120.523 82.0842 120.523L82.0626 120.64C82.0483 120.717 82.0272 120.832 81.9997 120.982C81.9447 121.281 81.8643 121.72 81.7622 122.281C81.5582 123.403 81.268 125.011 80.9234 126.954C80.2341 130.841 79.3267 136.072 78.4545 141.45C77.5825 146.826 76.7447 152.355 76.1954 156.833C75.9209 159.072 75.7174 161.056 75.6183 162.631C75.5214 164.17 75.5161 165.412 75.6839 166.104M97.7682 169.955C98.296 170.325 98.2954 170.326 98.2954 170.326L98.2933 170.329L98.2897 170.334C98.2871 170.338 98.2839 170.342 98.2801 170.347C98.2726 170.357 98.2628 170.37 98.2506 170.386C98.2262 170.417 98.1923 170.459 98.1479 170.51C98.0592 170.611 97.929 170.75 97.7505 170.914C97.3932 171.243 96.844 171.674 96.0492 172.123C94.458 173.02 91.8977 173.979 87.9468 174.337C83.9245 174.703 81.0727 173.648 79.1082 171.957C77.1609 170.28 76.1495 168.032 75.6841 166.105M97.2435 169.581C97.4491 169.294 97.8488 169.225 98.1388 169.428C98.4303 169.633 98.5007 170.034 98.296 170.325L97.7682 169.955" fill="#4C1C17"/>
<path d="M101.146 180.475C101.146 180.475 111.437 184.568 116.137 173.759Z" fill="#EFB6AB"/>
<path fill-rule="evenodd" clip-rule="evenodd" d="M116.779 172.282C117.596 172.636 117.97 173.584 117.616 174.4C115.013 180.385 110.731 182.389 107.046 182.771C105.256 182.957 103.65 182.76 102.501 182.522C101.922 182.402 101.45 182.27 101.116 182.166C100.949 182.114 100.815 182.068 100.72 182.034C100.672 182.017 100.634 182.003 100.605 181.992C100.591 181.987 100.579 181.982 100.57 181.978L100.558 181.974L100.553 181.972L100.551 181.971C100.55 181.971 100.55 181.971 101.138 180.497L100.55 181.971C99.7223 181.642 99.3189 180.705 99.6484 179.88C99.9773 179.056 100.912 178.653 101.738 178.978L101.747 178.981C101.758 178.986 101.778 178.993 101.806 179.003C101.864 179.024 101.956 179.056 102.079 179.094C102.326 179.171 102.695 179.275 103.155 179.37C104.082 179.562 105.342 179.712 106.713 179.57C109.348 179.296 112.561 177.941 114.658 173.118C115.012 172.303 115.962 171.929 116.779 172.282Z" fill="#3A130D"/>
<path fill-rule="evenodd" clip-rule="evenodd" d="M125.091 127.124C125.745 127.728 125.785 128.746 125.181 129.399C120.746 134.192 116.041 134.673 112.436 133.82C110.685 133.406 109.235 132.691 108.228 132.088C107.721 131.785 107.319 131.505 107.038 131.296C106.898 131.192 106.787 131.105 106.708 131.041C106.668 131.009 106.637 130.983 106.614 130.963C106.602 130.954 106.592 130.945 106.585 130.939L106.575 130.931L106.571 130.927L106.57 130.926C106.569 130.925 106.568 130.925 107.611 129.727L106.568 130.925C105.896 130.342 105.825 129.325 106.409 128.654C106.992 127.985 108.007 127.912 108.679 128.491L108.686 128.498C108.695 128.505 108.712 128.518 108.735 128.538C108.783 128.576 108.859 128.636 108.963 128.713C109.171 128.868 109.484 129.087 109.887 129.328C110.699 129.814 111.839 130.371 113.18 130.688C115.758 131.298 119.239 131.077 122.812 127.215C123.416 126.562 124.437 126.521 125.091 127.124Z" fill="black"/>
<path fill-rule="evenodd" clip-rule="evenodd" d="M71.0165 129.273C71.0165 129.273 71.0165 129.273 71.0165 129.273L71.0159 129.271L71.0156 129.27C71.0156 129.27 71.0157 129.271 71.0158 129.271C70.7643 128.607 70.0218 128.271 69.3558 128.521C68.6888 128.771 68.3513 129.513 68.6017 130.179L69.8092 129.726C68.6017 130.179 68.6019 130.179 68.602 130.18L68.6031 130.182L68.605 130.188L68.6106 130.202C68.615 130.214 68.621 130.229 68.6284 130.247C68.6434 130.285 68.6643 130.336 68.6913 130.399C68.7451 130.526 68.8234 130.701 68.926 130.909C69.1296 131.321 69.4369 131.88 69.8491 132.447C70.6261 133.516 72.0208 134.943 74.0449 134.943C76.0406 134.943 77.6287 133.974 78.6551 133.11C79.1775 132.671 79.5848 132.234 79.8628 131.905C80.0025 131.74 80.1115 131.601 80.1878 131.499C80.226 131.448 80.2562 131.406 80.2781 131.375C80.2891 131.36 80.298 131.347 80.3048 131.337L80.3135 131.324L80.3167 131.32L80.3185 131.317C80.3188 131.317 80.319 131.316 79.2497 130.596L80.319 131.316C80.7174 130.727 80.5617 129.926 79.9711 129.529C79.3818 129.132 78.5821 129.286 78.1829 129.872C78.1828 129.873 78.1827 129.873 78.1826 129.873C78.1814 129.875 78.1783 129.879 78.1734 129.886C78.1635 129.9 78.1462 129.924 78.1218 129.957C78.0728 130.022 77.9957 130.121 77.8926 130.243C77.6849 130.488 77.3793 130.816 76.9927 131.141C76.2011 131.807 75.1868 132.368 74.0449 132.368C73.3115 132.368 72.5884 131.83 71.9369 130.934C71.6348 130.519 71.4003 130.095 71.2405 129.771C71.1615 129.611 71.1028 129.479 71.065 129.391C71.0462 129.347 71.0327 129.313 71.0246 129.293C71.0205 129.283 71.0178 129.276 71.0165 129.273C71.0161 129.272 71.0159 129.271 71.0158 129.271C71.0158 129.271 71.0158 129.271 71.0158 129.271M71.0165 129.273C71.0165 129.273 71.0165 129.273 71.0165 129.273ZM78.1809 129.875L78.1821 129.874L78.1826 129.873" fill="black"/>
<path d="M68.0104 107.83C69.9522 107.945 70.6041 105.794 75.3104 107.043C80.0167 108.293 80.5082 109.723 81.5855 109.385C83.8863 108.658 82.3908 105.209 77.3742 103.73C74.2854 102.815 71.1374 102.906 69.3386 104.291C68.3904 105.018 66.0686 107.715 68.0104 107.83Z" fill="#E69766"/>
<path d="M101.952 109.587C102.07 106.535 109.273 103.556 115.548 103.897C121.823 104.238 124.685 106.427 126.522 108.157C128.032 109.587 126.871 112.43 123.28 110.687C119.32 108.756 115.987 107.555 110.381 108.829C104.552 110.155 101.844 112.323 101.952 109.587Z" fill="#A16D4B"/>
<path d="M68.0104 107.83C69.9522 107.945 70.6041 105.794 75.3104 107.043C80.0167 108.293 80.5082 109.723 81.5855 109.385C83.8863 108.658 82.3908 105.209 77.3742 103.73C74.2854 102.815 71.1374 102.906 69.3386 104.291C68.3904 105.018 66.0686 107.715 68.0104 107.83Z" fill="#A16D4B"/>
<path d="M132.686 85.2863C176.487 85.2863 211.996 79.2316 211.996 71.7629C211.996 64.2941 176.487 58.2395 132.686 58.2395C88.8838 58.2395 53.3755 64.2941 53.3755 71.7629C53.3755 79.2316 88.8838 85.2863 132.686 85.2863Z" fill="#A16D4B"/>
<path opacity="0.62" d="M212.763 72.0726C212.763 79.5477 177.329 85.2967 133.529 85.2967C89.7291 85.2967 54.2191 79.2415 54.2191 71.7733C54.2191 64.3052 89.7291 58.2465 133.529 58.2465C177.329 58.2465 212.763 64.601 212.763 72.0726Z" fill="#A16D4B"/>
<path fill-rule="evenodd" clip-rule="evenodd" d="M168.52 167.894C168.863 167.988 169.065 168.342 168.971 168.685L168.349 168.515C168.971 168.685 168.971 168.686 168.971 168.686L168.968 168.694L168.962 168.716C168.957 168.735 168.949 168.763 168.938 168.8C168.917 168.873 168.885 168.98 168.843 169.119C168.757 169.397 168.628 169.803 168.451 170.321C168.097 171.357 167.551 172.841 166.78 174.644C165.239 178.248 162.797 183.131 159.194 188.25C151.987 198.489 140.111 209.699 121.484 213.474C121.135 213.545 120.794 213.32 120.724 212.971C120.653 212.623 120.878 212.283 121.227 212.212C139.438 208.522 151.059 197.568 158.139 187.509C161.679 182.479 164.079 177.68 165.593 174.138C166.35 172.368 166.885 170.914 167.23 169.905C167.403 169.401 167.528 169.007 167.609 168.742C167.65 168.609 167.68 168.508 167.699 168.441C167.709 168.408 167.716 168.383 167.721 168.366L167.726 168.348L167.727 168.344L167.727 168.344C167.822 168.001 168.177 167.799 168.52 167.894Z" fill="#4C1C17"/>
<path d="M91.4478 287.897V288.081C91.4451 288.234 91.4123 288.384 91.3513 288.524C91.2902 288.664 91.2021 288.791 91.0921 288.897C90.982 289.003 90.8521 289.086 90.7097 289.142C90.5674 289.198 90.4155 289.225 90.2626 289.223L12.8942 292.744L-36.8986 268.732V258.55L57.3602 267.88L89.9906 275.911C90.1779 275.907 90.3641 275.94 90.5387 276.008C90.7133 276.075 90.8728 276.177 91.0081 276.306C91.1435 276.435 91.252 276.59 91.3274 276.761C91.4028 276.932 91.4438 277.117 91.4478 277.303C91.4451 277.452 91.4131 277.598 91.3536 277.734C91.2941 277.87 91.2083 277.993 91.101 278.096C90.9938 278.199 90.8674 278.279 90.7289 278.333C90.5904 278.387 90.4425 278.413 90.2939 278.41H87.9094V286.832H90.3288C90.4724 286.828 90.6153 286.853 90.7493 286.904C90.8834 286.956 91.0059 287.033 91.1098 287.132C91.2138 287.231 91.2972 287.35 91.3552 287.481C91.4132 287.612 91.4447 287.753 91.4478 287.897Z" fill="#E69766"/>
<path d="M87.9094 286.828L13.5182 290.562V281.003L87.9094 278.323V286.828Z" fill="white"/>
<path fill-rule="evenodd" clip-rule="evenodd" d="M87.9109 281.651C87.9179 281.829 87.7793 281.979 87.6013 281.986L29.2639 284.272C29.086 284.279 28.936 284.141 28.9291 283.963C28.9221 283.785 29.0607 283.636 29.2386 283.629L87.576 281.342C87.754 281.335 87.9039 281.474 87.9109 281.651Z" fill="#5B5B5B"/>
<path fill-rule="evenodd" clip-rule="evenodd" d="M87.8586 285.012C87.8659 285.19 87.7276 285.34 87.5496 285.347L27.8387 287.801C27.6608 287.808 27.5106 287.67 27.5033 287.492C27.4959 287.315 27.6343 287.165 27.8122 287.157L87.5231 284.704C87.7011 284.697 87.8513 284.835 87.8586 285.012Z" fill="#5B5B5B"/>
<path d="M-35.769 267.883L13.5183 290.562V281.003L-35.769 260.579V267.883Z" fill="white"/>
<path fill-rule="evenodd" clip-rule="evenodd" d="M-33.423 262.996C-33.3528 262.832 -33.1632 262.757 -32.9995 262.827L13.6453 282.778C13.809 282.848 13.8848 283.037 13.8147 283.2C13.7445 283.364 13.5549 283.439 13.3912 283.369L-33.2535 263.418C-33.4172 263.348 -33.4931 263.159 -33.423 262.996Z" fill="#5B5B5B"/>
<path fill-rule="evenodd" clip-rule="evenodd" d="M-19.0363 271.112C-18.9627 270.95 -18.7716 270.878 -18.6094 270.952L13.6515 285.568C13.8137 285.641 13.8855 285.832 13.8119 285.994C13.7383 286.156 13.5471 286.228 13.385 286.154L-18.8759 271.538C-19.0381 271.464 -19.1099 271.274 -19.0363 271.112Z" fill="#5B5B5B"/>
<path fill-rule="evenodd" clip-rule="evenodd" d="M-14.0168 275.264C-13.9398 275.104 -13.7472 275.036 -13.5866 275.113L13.6577 288.16C13.8183 288.237 13.886 288.429 13.809 288.589C13.732 288.75 13.5394 288.817 13.3788 288.74L-13.8655 275.694C-14.0261 275.617 -14.0938 275.424 -14.0168 275.264Z" fill="#5B5B5B"/>
<path d="M86.1942 272.518V272.797C86.1942 273.743 85.5423 274.513 84.73 274.513L-2.82139 279.315L-34.1201 259.524V241.428L44.2871 242.298L84.3953 254.426C85.3889 254.426 86.1872 255.372 86.1872 256.514C86.1872 257.433 85.5492 258.181 84.7683 258.181H81.826V270.886H84.7962C85.5701 270.876 86.1942 271.617 86.1942 272.518Z" fill="#E55558"/>
<path d="M81.8365 270.911L-1.70581 275.055V260.168L81.8365 258.08V270.911Z" fill="white"/>
<path fill-rule="evenodd" clip-rule="evenodd" d="M81.7646 263.107C81.7732 263.285 81.6359 263.435 81.458 263.444L9.76866 266.886C9.59077 266.894 9.43963 266.757 9.43107 266.58C9.42252 266.402 9.55979 266.251 9.73768 266.243L81.427 262.801C81.6049 262.792 81.7561 262.929 81.7646 263.107Z" fill="#5B5B5B"/>
<path fill-rule="evenodd" clip-rule="evenodd" d="M81.6984 268.17C81.7074 268.347 81.5704 268.498 81.3926 268.507L8.02287 272.203C7.845 272.212 7.69354 272.075 7.68456 271.898C7.67558 271.72 7.8125 271.569 7.99037 271.56L81.3601 267.864C81.5379 267.855 81.6894 267.992 81.6984 268.17Z" fill="#5B5B5B"/>
<path d="M93.5325 252.996V253.201C93.5031 253.562 93.3336 253.898 93.0602 254.136C92.7868 254.375 92.4309 254.497 92.0684 254.478L4.25203 256.472L-26.7748 243.38L-26.5412 232.276L38.8068 235.874L91.7407 239.601C92.7342 239.601 93.5325 240.297 93.5325 241.167C93.5066 241.518 93.3431 241.844 93.0774 242.076C92.8118 242.307 92.4655 242.424 92.1137 242.402H89.1818V251.798H92.152C92.4941 251.775 92.8317 251.887 93.0906 252.112C93.3494 252.336 93.5084 252.654 93.5325 252.996Z" fill="#1D1E40"/>
<path d="M89.1749 251.805L4.25204 253.298V244.372L89.1749 242.305V251.805Z" fill="white"/>
<path fill-rule="evenodd" clip-rule="evenodd" d="M89.4972 245.102C89.5017 245.279 89.3611 245.427 89.183 245.432L17.6854 247.248C17.5074 247.253 17.3594 247.112 17.3548 246.935C17.3503 246.757 17.491 246.609 17.669 246.605L89.1666 244.788C89.3447 244.784 89.4927 244.924 89.4972 245.102Z" fill="#5B5B5B"/>
<path fill-rule="evenodd" clip-rule="evenodd" d="M89.1486 248.192C89.1531 248.37 89.0125 248.517 88.8344 248.522L15.4613 250.384C15.2832 250.388 15.1352 250.248 15.1307 250.07C15.1262 249.892 15.2668 249.745 15.4449 249.74L88.818 247.878C88.9961 247.874 89.1441 248.014 89.1486 248.192Z" fill="#5B5B5B"/>
<path d="M-25.5442 234.106V241.964L4.25204 253.298V244.372L-25.5442 234.106Z" fill="white"/>
<path fill-rule="evenodd" clip-rule="evenodd" d="M-21.5803 241.316C-21.5146 241.151 -21.3272 241.07 -21.1617 241.136L4.37097 251.249C4.53651 251.314 4.61746 251.501 4.55177 251.667C4.48609 251.832 4.29865 251.913 4.13311 251.847L-21.3995 241.734C-21.5651 241.669 -21.646 241.481 -21.5803 241.316Z" fill="#5B5B5B"/>
<path fill-rule="evenodd" clip-rule="evenodd" d="M-16.049 241.319C-15.9849 241.153 -15.7983 241.071 -15.6321 241.135L4.368 248.829C4.53418 248.893 4.61698 249.079 4.55293 249.245C4.48889 249.411 4.30225 249.494 4.13607 249.43L-15.864 241.735C-16.0302 241.671 -16.113 241.485 -16.049 241.319Z" fill="#5B5B5B"/>
<path fill-rule="evenodd" clip-rule="evenodd" d="M-19.0682 237.091C-19.0044 236.925 -18.8179 236.842 -18.6516 236.906L4.36748 245.718C4.53377 245.781 4.61688 245.967 4.55312 246.133C4.48936 246.299 4.30286 246.382 4.13657 246.319L-18.8825 237.507C-19.0488 237.444 -19.1319 237.257 -19.0682 237.091Z" fill="#5B5B5B"/>
<path d="M84.1513 239.5L-4.26466 240.22L-35.3089 229.147V211.312H30.3529L83.2867 217.099C84.2803 217.099 85.0786 218.188 85.0786 219.535C85.0786 220.579 84.4406 221.453 83.6597 221.453H80.7279V236.069H83.6981C86.2534 236.493 86.1314 239.208 84.1513 239.5Z" fill="#FCCA5F"/>
<path d="M80.7279 221.303H-3.1944V236.069H80.7279V221.303Z" fill="white"/>
<path fill-rule="evenodd" clip-rule="evenodd" d="M39.1886 225.074C39.1912 224.896 39.3376 224.754 39.5157 224.757L80.377 225.345C80.555 225.348 80.6973 225.494 80.6947 225.672C80.6922 225.849 80.5457 225.991 80.3677 225.989L39.5064 225.401C39.3283 225.398 39.186 225.252 39.1886 225.074Z" fill="#5B5B5B"/>
<path fill-rule="evenodd" clip-rule="evenodd" d="M6.67664 230.462C6.67664 230.285 6.82101 230.141 6.99911 230.141H80.3723C80.5504 230.141 80.6948 230.285 80.6948 230.462C80.6948 230.64 80.5504 230.784 80.3723 230.784H6.99911C6.82101 230.784 6.67664 230.64 6.67664 230.462Z" fill="#5B5B5B"/>
<path fill-rule="evenodd" clip-rule="evenodd" d="M35.1376 233.518C35.1376 233.34 35.282 233.196 35.4601 233.196H80.7209C80.899 233.196 81.0434 233.34 81.0434 233.518C81.0434 233.696 80.899 233.84 80.7209 233.84H35.4601C35.282 233.84 35.1376 233.696 35.1376 233.518Z" fill="#5B5B5B"/>
<path d="M75.2895 215.38V215.62C75.2849 216.017 75.1232 216.396 74.8398 216.674C74.5563 216.953 74.1741 217.108 73.7765 217.106H-17.3238L-49.5115 208.789V195.394H18.5557L73.4209 199.741C73.9094 199.736 74.3798 199.925 74.7288 200.266C75.0778 200.608 75.277 201.073 75.2825 201.561C75.283 201.753 75.245 201.944 75.1709 202.122C75.0967 202.3 74.9879 202.461 74.8506 202.597C74.7133 202.732 74.5504 202.839 74.3714 202.911C74.1924 202.983 74.0008 203.018 73.8079 203.015H70.7644V213.998H73.8392C74.2142 213.993 74.5764 214.134 74.8477 214.393C75.1189 214.651 75.2776 215.006 75.2895 215.38Z" fill="#565697"/>
<path d="M70.7749 202.901H-16.2152V213.991H70.7749V202.901Z" fill="white"/>
<path fill-rule="evenodd" clip-rule="evenodd" d="M21.96 206.175C21.96 205.998 22.1043 205.853 22.2824 205.853H70.9771C71.1552 205.853 71.2996 205.998 71.2996 206.175C71.2996 206.353 71.1552 206.497 70.9771 206.497H22.2824C22.1043 206.497 21.96 206.353 21.96 206.175Z" fill="#5B5B5B"/>
<path fill-rule="evenodd" clip-rule="evenodd" d="M-5.96066 209.781C-5.96066 209.603 -5.81629 209.459 -5.63819 209.459H70.4159C70.594 209.459 70.7383 209.603 70.7383 209.781C70.7383 209.958 70.594 210.103 70.4159 210.103H-5.63819C-5.81629 210.103 -5.96066 209.958 -5.96066 209.781Z" fill="#5B5B5B"/>
<path d="M6.07877 191.19V199.741H14.3758V195.464L21.1703 199.741H39.511L22.8228 191.1L6.07877 191.19Z" fill="#9D4E49"/>
<path d="M6.07877 191.166V199.713H14.3758V195.439L21.1703 199.713H39.511L22.8228 191.076L6.07877 191.166Z" fill="#9D4E49"/>
<path d="M33.3336 192.499V199.741H40.5569V195.325L49.0596 199.741H67.0691L51.7997 192.499H33.3336Z" fill="#9D4E49"/>
<path fill-rule="evenodd" clip-rule="evenodd" d="M5.75632 198.091C5.75632 197.913 5.90069 197.769 6.07879 197.769H14.1388C14.3169 197.769 14.4613 197.913 14.4613 198.091C14.4613 198.269 14.3169 198.413 14.1388 198.413H6.07879C5.90069 198.413 5.75632 198.269 5.75632 198.091Z" fill="#4C1C17"/>
<path fill-rule="evenodd" clip-rule="evenodd" d="M18.418 198.091C18.418 197.913 18.5624 197.769 18.7405 197.769H33.3336C33.5116 197.769 33.656 197.913 33.656 198.091C33.656 198.269 33.5116 198.413 33.3336 198.413H18.7405C18.5624 198.413 18.418 198.269 18.418 198.091Z" fill="#4C1C17"/>
<path fill-rule="evenodd" clip-rule="evenodd" d="M33.0111 198.091C33.0111 197.913 33.1555 197.769 33.3336 197.769H40.5534C40.7315 197.769 40.8759 197.913 40.8759 198.091C40.8759 198.269 40.7315 198.413 40.5534 198.413H33.3336C33.1555 198.413 33.0111 198.269 33.0111 198.091Z" fill="#4C1C17"/>
<path fill-rule="evenodd" clip-rule="evenodd" d="M45.9134 198.091C45.9134 197.913 46.0577 197.769 46.2358 197.769H63.2274C63.4055 197.769 63.5498 197.913 63.5498 198.091C63.5498 198.269 63.4055 198.413 63.2274 198.413H46.2358C46.0577 198.413 45.9134 198.269 45.9134 198.091Z" fill="#4C1C17"/>
<path d="M0.0791056 99.4151C0.0791056 99.4151 2.57519 171.619 1.12495 179.477C-0.325289 187.334 -2.22873 192.137 -2.22873 192.137L28.4146 192.575L18.7614 145.999L11.5451 113.005C9.21935 111.566 7.10711 109.809 5.26999 107.785C2.99862 105.358 1.22981 102.508 0.065158 99.3977" fill="#55957C"/>
<path d="M0.0791056 99.3386C0.0791056 99.3386 2.57519 171.539 1.12495 179.4C-0.325289 187.261 -2.22873 192.06 -2.22873 192.06L28.4216 192.499L18.7614 145.922L11.5451 112.928C9.22047 111.495 7.10829 109.743 5.26999 107.725C2.99862 105.299 1.22981 102.449 0.065158 99.3386" fill="#E59666"/>
<path d="M3.6001 109.438C3.6001 109.438 21.0309 189.377 28.4181 192.575H56.52C56.52 192.575 41.5923 172.068 35.2161 144.363C33.3335 136.178 28.4181 113.739 28.4181 113.739L1.57465 96.6416L3.6001 109.438Z" fill="#FCC95F"/>
<path fill-rule="evenodd" clip-rule="evenodd" d="M19.9182 115.89C20.0488 115.861 20.1783 115.943 20.2076 116.073L19.9711 116.126L19.7347 116.179C19.7055 116.049 19.7876 115.919 19.9182 115.89ZM26.7615 146.061C25.6988 142.045 23.9417 134.573 22.4512 128.109C21.7057 124.876 21.0266 121.893 20.5339 119.719C20.2875 118.632 20.0877 117.747 19.9495 117.134C19.8804 116.827 19.8267 116.589 19.7903 116.427L19.7347 116.179C19.7347 116.179 19.7347 116.179 19.9711 116.126C20.2076 116.073 20.2075 116.073 20.2076 116.073L20.2631 116.321C20.2995 116.483 20.3532 116.721 20.4223 117.028C20.5604 117.641 20.7602 118.526 21.0065 119.612C21.4991 121.786 22.1781 124.768 22.9234 128C24.4144 134.466 26.1696 141.931 27.23 145.937C29.3354 153.906 32.6169 164.336 36.3975 173.372C38.2879 177.891 40.3007 182.055 42.3506 185.386C44.4054 188.724 46.4794 191.196 48.4814 192.367C48.5968 192.434 48.6356 192.582 48.568 192.698C48.5003 192.813 48.3519 192.852 48.2364 192.784C46.1265 191.55 44.001 188.991 41.9377 185.639C39.8697 182.278 37.8459 178.09 35.9503 173.559C32.159 164.497 28.8709 154.044 26.7615 146.061Z" fill="white"/>
<path d="M38.1235 51.6344C38.1235 51.6344 35.6553 54.8604 36.5304 57.2686C37.5762 60.1083 26.0161 54.6864 29.0316 53.2178C30.9775 52.2422 32.7988 51.0364 34.4561 49.6264L38.1235 51.6344Z" fill="#EFB6AB"/>
<path opacity="0.64" d="M34.7001 46.5257L36.7186 54.1226L40.1804 47.4653L34.7001 46.5257Z" fill="#EFB6AB"/>
<path d="M52.9467 70.2978C53.3685 69.0554 56.269 67.6773 58.4304 71.6689C60.5918 75.6605 59.5041 77.0803 58.3049 76.7776C57.1056 76.4748 56.255 75.8763 55.7077 74.4042C55.3609 73.4275 54.7446 72.5685 53.9298 71.9264C53.9298 71.9264 52.5423 71.5332 52.9467 70.2978Z" fill="#EFB6AB"/>
<path d="M36.37 57.8985C36.37 57.8985 48.338 54.5333 51.9357 51.6936C55.5334 48.8539 63.44 34.6902 66.4242 33.0928C69.4083 31.4955 71.7196 31.5999 75.4185 33.7889C79.1173 35.9778 80.6163 42.2662 76.0181 47.5489C71.4198 52.8315 61.5296 60.3345 61.5296 60.3345L40.1804 74.3973C40.1804 74.3973 41.6236 66.1183 36.37 57.8985Z" fill="#E55558"/>
<path d="M21.6689 56.8266C21.6689 56.8266 16.9033 60.8808 15.589 72.1666C14.3026 83.3722 0.908803 92.4934 -0.447313 92.1836C-1.80343 91.8739 -0.680887 117.428 24.7262 114.487C39.6261 112.747 35.2161 99.4117 35.2161 99.4117C35.2161 99.4117 43.412 100.365 49.6906 89.4692C55.1011 80.0732 55.9273 78.6359 56.5026 76.1964C57.1405 73.4716 54.4388 68.9928 48.2404 70.6005C46.0406 71.1747 41.2402 76.4853 41.2402 76.4853C41.54 75.7579 41.5156 62.0745 36.3595 57.9019C33.717 57.9019 33.3161 57.279 30.2657 55.7339C26.7691 53.9591 21.6689 56.8266 21.6689 56.8266Z" fill="#E55558"/>
<path d="M33.717 48.6311C33.717 48.6311 36.1852 53.2387 41.5818 51.1611C45.9534 48.652 45.6397 45.5339 46.33 43.7661C47.0388 43.4352 47.7196 43.0477 48.3659 42.6072C48.5035 42.5126 48.6067 42.376 48.6601 42.2179C48.7136 42.0599 48.7143 41.8888 48.6622 41.7303C48.4809 41.163 47.7976 40.2373 46.9017 39.2942C46.7099 35.2052 45.2004 33.4826 45.2004 33.4826C45.2004 33.4826 40.7521 29.1883 36.8337 34.4744C32.9152 39.7606 33.717 48.6311 33.717 48.6311Z" fill="#EFB6AB"/>
<path d="M45.3684 41.0503C45.555 40.5355 45.4802 40.0365 45.2015 39.9358C44.9228 39.8352 44.5456 40.171 44.3591 40.6859C44.1725 41.2008 44.2472 41.6998 44.5259 41.8004C44.8046 41.9011 45.1818 41.5652 45.3684 41.0503Z" fill="black"/>
<path fill-rule="evenodd" clip-rule="evenodd" d="M45.7006 37.66C45.7038 37.8377 45.5619 37.9843 45.3839 37.9874C44.83 37.9971 44.4068 38.342 44.1024 38.7401C43.9529 38.9355 43.8417 39.132 43.7678 39.2805C43.731 39.3543 43.704 39.4151 43.6865 39.4566C43.6778 39.4774 43.6715 39.4932 43.6675 39.5033L43.6634 39.514L43.6628 39.5155C43.6628 39.5155 43.6628 39.5156 43.6628 39.5157C43.6628 39.5156 43.6628 39.5155 43.3597 39.4056L43.0566 39.2957C42.9958 39.4629 43.0823 39.6475 43.2497 39.7082C43.417 39.7688 43.6019 39.6826 43.6628 39.5157M43.3597 39.4056C43.0566 39.2957 43.0567 39.2956 43.0567 39.2955L43.0568 39.2952L43.057 39.2946L43.0577 39.2928L43.0597 39.2874C43.0614 39.2829 43.0637 39.2769 43.0666 39.2694C43.0725 39.2543 43.081 39.2333 43.092 39.207C43.1141 39.1546 43.1467 39.0813 43.1903 38.9939C43.2769 38.8198 43.4089 38.5859 43.5897 38.3494C43.9459 37.8836 44.5319 37.3584 45.3726 37.3437C45.5506 37.3406 45.6975 37.4822 45.7006 37.66" fill="#91461C"/>
<path fill-rule="evenodd" clip-rule="evenodd" d="M44.2795 44.3855C44.2238 44.217 44.0419 44.1253 43.8729 44.1805C43.7037 44.2359 43.6114 44.4177 43.6669 44.5867L43.9733 44.4864C43.6669 44.5867 43.6669 44.5868 43.6669 44.5869L43.667 44.5871L43.6672 44.5877L43.6677 44.5892L43.6692 44.5935L43.6739 44.6071C43.6779 44.6184 43.6835 44.6339 43.6908 44.6529C43.7054 44.691 43.7268 44.7438 43.7552 44.8058C43.8114 44.9283 43.898 45.0937 44.0179 45.2538C44.2494 45.5631 44.6817 45.9411 45.2958 45.759C45.4665 45.7084 45.5638 45.5292 45.513 45.3588C45.4623 45.1883 45.2828 45.0912 45.1121 45.1418C44.8929 45.2068 44.71 45.1028 44.5345 44.8684C44.4508 44.7566 44.386 44.6347 44.3417 44.5379C44.3198 44.4902 44.3036 44.4503 44.2932 44.4231C44.288 44.4095 44.2843 44.3992 44.2821 44.3929L44.2798 44.3864L44.2795 44.3855Z" fill="#4C1C17"/>
<path d="M40.027 35.7968C40.027 35.7968 43.1296 47.1104 32.9013 54.1748C22.6729 61.2393 17.2658 54.3802 16.7743 52.1703C16.2827 49.9605 15.8714 46.9816 18.6429 44.9806C21.4144 42.9796 24.3881 38.0762 24.3881 34.7598C24.3881 31.4433 34.721 29.1395 36.7883 27.8937C38.8556 26.6478 48.087 20.6065 50.6144 26.6757C53.6056 33.8585 46.9714 35.4732 44.172 35.4732C41.3726 35.4732 40.8706 34.6763 40.027 35.7968Z" fill="#9D4E49"/>
<path fill-rule="evenodd" clip-rule="evenodd" d="M41.7143 25.5342L41.6296 25.3076C41.5042 25.3543 41.4405 25.4937 41.4873 25.6188C41.534 25.7439 41.6735 25.8075 41.7988 25.7609L41.8 25.7605L41.8057 25.7584C41.811 25.7565 41.8195 25.7535 41.8308 25.7497C41.8535 25.7419 41.8877 25.7305 41.9322 25.7168C42.0213 25.6893 42.1512 25.6525 42.3111 25.6161C42.632 25.5431 43.0688 25.4731 43.5384 25.4816C44.4746 25.4984 45.5072 25.8215 46.0609 27.0271L46.0611 27.0276C46.6883 28.3848 46.5853 29.9206 45.6118 31.3132C44.8085 32.4624 43.403 33.525 41.3016 34.2919C41.6632 34.0004 42.0574 33.6457 42.42 33.241C42.9517 32.6475 43.4283 31.9321 43.6223 31.1375C43.8188 30.3326 43.7211 29.4611 43.1284 28.5833L43.1281 28.5828C42.6457 27.8721 41.9226 27.5184 41.1383 27.38C40.3583 27.2423 39.5034 27.3141 38.7211 27.4639C37.9364 27.6142 37.2099 27.8458 36.6809 28.0392C36.4159 28.136 36.1995 28.2235 36.0489 28.2871C35.9735 28.3189 35.9146 28.3447 35.8742 28.3627C35.854 28.3717 35.8384 28.3788 35.8277 28.3836L35.8154 28.3893L35.8121 28.3908L35.8111 28.3913C35.811 28.3913 35.8107 28.3915 35.9133 28.6106L35.8107 28.3915C35.6895 28.4481 35.6371 28.592 35.6938 28.713C35.7505 28.834 35.8947 28.8862 36.0159 28.8297M36.0159 28.8297L36.0164 28.8294L36.0188 28.8283L36.0292 28.8236C36.0386 28.8193 36.0529 28.8128 36.0717 28.8044C36.1094 28.7876 36.1654 28.7631 36.2375 28.7327C36.382 28.6717 36.591 28.5871 36.8474 28.4934C37.3612 28.3056 38.0614 28.0828 38.8124 27.939C39.5657 27.7947 40.3554 27.733 41.054 27.8563C41.7482 27.9788 42.3376 28.2806 42.7268 28.854C43.2407 29.6151 43.3168 30.3461 43.1515 31.0229C42.9837 31.7102 42.5629 32.3559 42.0588 32.9186C41.5563 33.4795 40.9839 33.9438 40.5346 34.2689C40.3104 34.4311 40.1183 34.5577 39.9826 34.6435C39.9148 34.6864 39.8612 34.719 39.8249 34.7407C39.8068 34.7515 39.793 34.7597 39.7839 34.765L39.7738 34.7708L39.7715 34.7721L39.7711 34.7724C39.7711 34.7724 39.7711 34.7724 39.7711 34.7724C39.6655 34.8324 39.6208 34.9614 39.6666 35.0737C39.7125 35.1861 39.8347 35.2472 39.9523 35.2165C42.9562 34.4329 44.9445 33.113 46.0092 31.59C47.0786 30.0603 47.2022 28.3424 46.5013 26.8252C45.8418 25.3896 44.591 25.0167 43.5471 24.9979C43.0267 24.9885 42.5492 25.0658 42.2034 25.1445C42.03 25.184 41.8883 25.2241 41.7893 25.2546C41.7397 25.2699 41.7007 25.2828 41.6737 25.2921C41.6602 25.2967 41.6496 25.3004 41.6422 25.3031L41.6335 25.3062L41.6309 25.3071L41.6301 25.3075C41.63 25.3075 41.6296 25.3076 41.7143 25.5342" fill="#772220"/>
<path fill-rule="evenodd" clip-rule="evenodd" d="M39.7002 35.2429C39.8246 35.2829 39.8949 35.4141 39.8591 35.5395C36.5498 47.1294 31.2234 51.9434 26.6768 53.8382C24.409 54.7833 22.3495 54.9958 20.8557 54.9716C20.1088 54.9595 19.5027 54.8882 19.0817 54.8195C18.8712 54.7852 18.7068 54.7515 18.5942 54.7261C18.5379 54.7134 18.4945 54.7028 18.4647 54.6952C18.4498 54.6914 18.4383 54.6884 18.4302 54.6862L18.4208 54.6837L18.4181 54.6829L18.4172 54.6827C18.4169 54.6826 18.4167 54.6825 18.4825 54.4498L18.4167 54.6825C18.2879 54.6463 18.213 54.5126 18.2493 54.3841C18.2856 54.2556 18.4194 54.1808 18.5481 54.2169M18.5483 54.217L18.5495 54.2173L18.5559 54.2191C18.5619 54.2207 18.5714 54.2232 18.5843 54.2264C18.6099 54.233 18.6491 54.2425 18.7009 54.2542C18.8047 54.2776 18.9595 54.3095 19.1599 54.3421C19.5606 54.4075 20.1431 54.4762 20.8636 54.4879C22.3046 54.5112 24.2956 54.3063 26.4901 53.3918C30.364 51.7774 34.9172 47.9315 38.1865 39.1092C37.342 40.6529 36.1613 42.5328 34.6115 44.394C30.9783 48.7568 25.2967 53.0369 17.1552 52.5998C17.0216 52.5926 16.9191 52.4786 16.9263 52.3453C16.9335 52.2119 17.0476 52.1096 17.1812 52.1167C25.1144 52.5427 30.6617 48.3803 34.2388 44.0847C36.0272 41.9373 37.3181 39.7616 38.162 38.1223C38.5838 37.3029 38.8935 36.6184 39.0974 36.1395C39.1994 35.9001 39.2749 35.7121 39.3247 35.5845C39.3496 35.5206 39.3681 35.4719 39.3803 35.4394C39.3864 35.4231 39.3909 35.4109 39.3939 35.4028L39.3971 35.394L39.3979 35.3919L39.398 35.3915C39.398 35.3915 39.398 35.3915 39.401 35.3925L39.398 35.3915C39.4422 35.2687 39.5759 35.203 39.7002 35.2429M18.5483 54.217C18.5483 54.217 18.5483 54.217 18.5483 54.217C18.5483 54.217 18.5482 54.217 18.5482 54.217" fill="#772220"/>
<path fill-rule="evenodd" clip-rule="evenodd" d="M24.8264 70.0711C24.9518 70.0245 25.0913 70.0882 25.138 70.2134L24.911 70.2978C25.138 70.2134 25.138 70.2132 25.138 70.2134L25.1383 70.214L25.1387 70.2151L25.1399 70.2186L25.1444 70.231C25.1482 70.2416 25.1536 70.257 25.1605 70.2772C25.1743 70.3176 25.1939 70.3769 25.2179 70.4548C25.266 70.6106 25.3319 70.8409 25.4049 71.1431C25.5508 71.7474 25.725 72.6389 25.841 73.7964C26.073 76.1115 26.0721 79.4891 25.1478 83.7574C24.245 87.9267 25.3523 91.7933 27.3968 94.6145C29.446 97.4421 32.4151 99.1937 35.2149 99.1802C35.3487 99.1796 35.4577 99.2874 35.4583 99.4209C35.459 99.5545 35.351 99.6633 35.2172 99.664C32.2196 99.6784 29.1175 97.8142 27.0042 94.898C24.8863 91.9755 23.7398 87.9703 24.6742 83.6552C25.5871 79.4392 25.5861 76.1125 25.3588 73.8445C25.2452 72.7104 25.0749 71.8406 24.9338 71.2565C24.8633 70.9644 24.8 70.7437 24.7548 70.5971C24.7322 70.5238 24.7141 70.469 24.7018 70.4331C24.6957 70.4151 24.691 70.4019 24.688 70.3934L24.6847 70.3842L24.684 70.3823C24.684 70.3823 24.684 70.3824 24.684 70.3823M24.8264 70.0711C24.7011 70.1177 24.6374 70.2572 24.684 70.3823Z" fill="#93242A"/>
<path fill-rule="evenodd" clip-rule="evenodd" d="M32.7357 57.2764C32.8431 57.1966 32.9948 57.2189 33.0747 57.326C36.2625 61.6018 37.8472 66.858 37.5532 72.1799C37.379 75.3605 37.2919 77.6126 37.2484 79.069C37.2291 79.7145 37.2184 80.2037 37.2124 80.5481L40.7678 76.6325C40.8577 76.5336 41.0109 76.5261 41.11 76.6158C41.2092 76.7055 41.2167 76.8584 41.1268 76.9574L37.1422 81.3457C37.0749 81.4198 36.9689 81.4449 36.8754 81.4089C36.782 81.373 36.7204 81.2833 36.7204 81.1833H36.9627C36.7204 81.1833 36.7204 81.1833 36.7204 81.1833L36.7204 81.175L36.7205 81.151C36.7205 81.1297 36.7207 81.0978 36.7211 81.055C36.7217 80.9694 36.7231 80.8404 36.7258 80.6657C36.7313 80.3165 36.7422 79.7849 36.764 79.0546C36.8077 77.5938 36.8949 75.3376 37.0693 72.1533C37.3571 66.9445 35.806 61.7998 32.686 57.6148C32.6061 57.5076 32.6284 57.3561 32.7357 57.2764Z" fill="#93242A"/>
<path fill-rule="evenodd" clip-rule="evenodd" d="M37.129 81.0324C37.2298 81.1203 37.2401 81.2731 37.1521 81.3737C35.2385 83.5616 34.1197 86.3296 33.9764 89.2306C33.9699 89.364 33.8562 89.4668 33.7225 89.4602C33.5889 89.4537 33.4859 89.3402 33.4925 89.2068C33.6411 86.1971 34.8018 83.3254 36.7871 81.0555C36.8751 80.9549 37.0282 80.9446 37.129 81.0324Z" fill="#93242A"/>
<path fill-rule="evenodd" clip-rule="evenodd" d="M56.2658 46.8271C56.3802 46.8965 56.4166 47.0453 56.3471 47.1594C52.3856 53.6661 49.685 57.1001 47.9675 58.9108C47.1084 59.8165 46.4921 60.3194 46.0836 60.598C45.8791 60.7374 45.7258 60.8212 45.6192 60.8713C45.5659 60.8963 45.5242 60.913 45.4936 60.9239C45.4783 60.9293 45.4657 60.9334 45.4558 60.9363C45.4509 60.9378 45.4466 60.939 45.443 60.9399L45.4381 60.9412L45.436 60.9417L45.4351 60.942C45.4347 60.9421 45.4342 60.9422 45.3782 60.7068L45.4342 60.9422C45.304 60.973 45.1734 60.8927 45.1425 60.7627C45.112 60.6343 45.1902 60.5055 45.3176 60.4727C45.3191 60.4722 45.3235 60.4709 45.3307 60.4683C45.3457 60.463 45.3729 60.4524 45.4129 60.4336C45.493 60.396 45.624 60.3255 45.8103 60.1985C46.1831 59.9443 46.7734 59.4661 47.6156 58.5783C49.3005 56.8019 51.9809 53.3995 55.933 46.9082C56.0025 46.7941 56.1515 46.7578 56.2658 46.8271Z" fill="#93242A"/>
<path fill-rule="evenodd" clip-rule="evenodd" d="M38.8316 60.4838C38.955 60.4321 39.097 60.4901 39.1488 60.6133C40.8235 64.6002 41.6422 68.8933 41.5521 73.2156C41.5493 73.3491 41.4386 73.4551 41.3048 73.4524C41.171 73.4496 41.0648 73.3391 41.0676 73.2055C41.1563 68.9509 40.3504 64.7249 38.7019 60.8004C38.6501 60.6772 38.7082 60.5354 38.8316 60.4838Z" fill="#93242A"/>
<path d="M90.9528 29.0769V26.7522L88.4497 25.5934L88.1464 23.6968L90.2381 21.6088L89.4642 19.7122L86.6752 20.1402L85.1971 18.6681L86.1837 15.6753L84.3395 14.3599L82.077 16.1625L80.2328 15.3064L79.7448 12.9191L77.2347 12.5537L76.1889 15.3064H74.1565L72.6191 13.2915L70.2938 14.1476L70.5308 16.9629L69.1364 18.1287L66.6298 17.2727L65.0925 19.1136L66.7449 21.6157L66.0755 23.3279L63.1995 23.6307L62.9589 26.018L65.7967 27.2429V29.2057L63.705 30.977L64.6915 33.2425L67.5084 32.8736L68.7982 34.464L67.8779 36.9L69.8964 38.3755L72.0648 36.6007L73.8462 37.7004L74.1495 40.206H76.9663L77.9529 37.7004H79.7901L81.5715 39.6005L83.7748 38.5008L83.3425 36.0648L84.7544 34.9059L87.6305 35.5219L88.9203 33.5105L87.3272 31.4886L88.122 29.5293L90.9528 29.0769ZM76.9454 31.6069C75.9111 31.6069 74.9001 31.3007 74.0402 30.7271C73.1802 30.1536 72.51 29.3383 72.1142 28.3845C71.7184 27.4306 71.6149 26.381 71.8166 25.3685C72.0184 24.3559 72.5164 23.4258 73.2478 22.6957C73.9791 21.9657 74.9109 21.4685 75.9252 21.2671C76.9396 21.0657 77.991 21.1691 78.9465 21.5642C79.902 21.9592 80.7187 22.6283 81.2933 23.4867C81.8679 24.3452 82.1746 25.3544 82.1746 26.3868C82.1746 27.7713 81.6237 29.099 80.643 30.078C79.6624 31.0569 78.3323 31.6069 76.9454 31.6069Z" fill="#565697"/>
<path d="M72.6853 28.1686C72.6853 28.1686 70.6529 31.753 72.8457 33.2425C75.0385 34.7319 77.0779 33.0232 77.9738 32.101C78.8698 31.1788 78.6048 30.0478 77.5973 29.2196C76.5898 28.3913 73.2606 26.8044 72.6853 28.1686Z" fill="#EFB6AB"/>
</g>
</g>
<defs>
<clipPath id="clip0_452_641">
<rect width="270" height="296" rx="25" fill="white"/>
</clipPath>
<clipPath id="clip1_452_641">
<rect width="385" height="296" fill="white" transform="translate(-57.5)"/>
</clipPath>
</defs>
</svg>
